<svg width="204" height="201" viewBox="0 0 204 201" fill="none" xmlns="http://www.w3.org/2000/svg">
<g clip-path="url(#clip0_38_122)">
<path d="M22.5041 59.3019C22.1193 48.2195 30.7307 38 42.3706 38H161.644C173.284 38 181.895 48.2195 181.511 59.3019C181.141 69.9476 181.621 83.7379 185.082 94.9821C188.555 106.261 194.41 113.39 204 114.306V124.694C194.41 125.61 188.555 132.739 185.082 144.018C181.621 155.262 181.141 169.052 181.511 179.699C181.895 190.781 173.284 201 161.644 201H42.3706C30.7307 201 22.1193 190.781 22.5045 179.699C22.8739 169.052 22.3938 155.262 18.9322 144.018C15.4602 132.739 9.59039 125.61 0 124.694V114.306C9.58999 113.39 15.4602 106.261 18.9322 94.9821C22.3938 83.7379 22.8739 69.9476 22.5041 59.3019Z" fill="url(#paint0_linear_38_122)"/>
<g filter="url(#filter0_d_38_122)">
<path d="M106.424 162.83C125.269 162.83 136.625 153.578 136.625 138.318C136.625 126.783 128.522 118.432 116.491 117.11V116.629C125.33 115.187 132.266 106.957 132.266 97.7646C132.266 84.6675 121.954 76.136 106.24 76.136H70.8823V162.83H106.424ZM84.6324 87.1305H102.925C112.869 87.1305 118.516 91.5762 118.516 99.6268C118.516 108.218 111.948 113.024 100.04 113.024H84.6324V87.1305ZM84.6324 151.835V123.298H102.802C115.815 123.298 122.568 128.104 122.568 137.477C122.568 146.849 116 151.835 103.6 151.835H84.6324Z" fill="#343434"/>
</g>
</g>
<g clip-path="url(#clip1_38_122)">
<path d="M29.0682 0.0550171C29.1856 0.0333364 29.2819 -0.000249249 29.3777 1.39482e-06C33.3336 0.015416 37.2896 0.00952544 41.245 0.0651684C42.593 0.0839667 43.8316 0.563323 44.9391 1.35786C47.467 3.1709 47.7005 8.35045 44.2303 10.2083C44.0537 10.3028 43.8779 10.3983 43.6382 10.5274C44.2977 10.8326 44.9464 11.0371 45.4903 11.4012C47.5775 12.7988 48.4276 15.9258 47.4932 18.6723C46.6778 21.0686 44.7419 22.0582 42.4906 22.5845C41.7512 22.7575 40.9768 22.8472 40.2174 22.8526C36.5195 22.8795 32.8214 22.8646 29.0679 22.8646C29.0682 15.2701 29.0682 7.67459 29.0682 0.0550171ZM33.0232 19.5218C35.7735 19.5218 38.4445 19.5849 41.1105 19.499C42.7864 19.445 43.9974 17.6343 43.8966 15.8732C43.7972 14.1372 42.7366 12.6609 41.0973 12.5837C38.4543 12.4593 35.8041 12.4945 33.1567 12.4667C33.1172 12.4664 33.0771 12.5251 33.0231 12.5673L33.0232 19.5218ZM33.0324 9.49489C35.4906 9.49489 37.8613 9.58512 40.2215 9.46494C41.9595 9.37634 42.9405 7.97561 42.8755 6.06082C42.8179 4.36546 41.8248 3.34585 40.0367 3.29822C37.7948 3.23895 35.5504 3.26639 33.3069 3.26113C33.2157 3.26088 33.1243 3.31051 33.0324 3.33682V9.49489ZM155.616 6.36134H158.914V8.14267C159.281 7.85731 159.728 7.54037 160.14 7.18333C162.667 4.99771 168.66 5.2659 170.711 9.66733C172.476 13.4553 172.399 17.2647 170.017 20.7913C168.697 22.7446 166.654 23.4426 164.339 23.317C162.328 23.2076 160.558 22.5705 159.164 20.6939V28.9999H155.616C155.616 21.447 155.616 13.9257 155.616 6.36134ZM158.966 14.7023C159.115 15.5318 159.196 16.3812 159.426 17.1874C159.938 18.9865 161.499 20.3169 163.116 20.4319C165.279 20.5856 166.832 19.7802 167.614 17.8475C168.608 15.3913 168.573 12.9142 167.12 10.6187C165.408 7.91082 161.303 8.13715 159.852 10.9738C159.254 12.1416 158.962 13.3706 158.966 14.7023ZM153.28 20.5018C153.28 21.1807 153.304 21.8701 153.263 22.5559C153.253 22.7253 153.042 23.0112 152.905 23.023C151.877 23.1094 150.832 23.2605 149.816 23.1537C148.921 23.0595 148.428 22.2948 148.152 21.4105C146.027 23.1541 143.591 23.5312 140.999 23.2075C138.831 22.9369 137.035 21.1429 136.881 19.1511C136.668 16.4058 137.714 14.6182 140.16 13.9674C141.875 13.5112 143.662 13.3279 145.416 13.0197C145.841 12.945 146.272 12.8841 146.687 12.7696C147.485 12.55 148.061 12.1046 148.12 11.1887C148.18 10.2421 147.816 9.50442 146.933 9.14612C145.427 8.53518 143.893 8.55034 142.409 9.24989C141.733 9.56896 141.331 10.2111 140.976 11.3018H137.5C137.503 9.96623 137.965 8.84372 138.845 7.89867C140.007 6.65021 141.523 6.16008 143.155 5.98801C144.863 5.80792 146.562 5.81594 148.222 6.38002C150.453 7.13859 151.522 8.62278 151.519 10.9989C151.516 13.5211 151.518 16.0433 151.518 18.5659C151.517 20.356 151.517 20.356 153.28 20.5018ZM147.908 14.8102C146.813 15.0014 145.81 15.148 144.821 15.3566C143.781 15.5759 142.721 15.7659 141.729 16.1321C140.756 16.4912 140.426 17.4073 140.458 18.3911C140.489 19.3317 141.126 19.8586 141.947 20.148C143.356 20.6442 144.769 20.583 146.113 19.9495C147.075 19.4957 147.808 18.7538 147.894 17.6203C147.965 16.6761 147.908 15.722 147.908 14.8102ZM58.4731 5.88474C63.9241 5.8202 67.1206 9.84755 66.7834 15.3313C66.6664 17.2373 66.1582 19.0186 64.9135 20.525C63.5722 22.148 61.8463 23.0027 59.7772 23.2346C58.0495 23.4287 56.3706 23.3146 54.7696 22.5823C52.3855 21.4913 51.0255 19.5876 50.4535 17.0509C50.0612 15.3123 50.0784 13.581 50.5181 11.8612C51.4883 8.06748 54.3867 5.89953 58.4731 5.88474ZM53.7281 14.6357C53.8712 15.4407 53.9459 16.2657 54.1706 17.0468C54.7424 19.0355 56.2997 20.3486 58.0802 20.4356C60.281 20.5431 61.8209 19.61 62.6388 17.5437C63.4374 15.5265 63.4387 13.4621 62.5631 11.4692C61.2659 8.51675 57.7318 7.76181 55.4561 9.95633C54.1584 11.2075 53.8235 12.8702 53.7281 14.6357ZM77.3851 5.88499C82.3015 5.87722 85.6467 9.21655 85.7089 14.1834C85.7353 16.2807 85.3963 18.2806 84.1749 20.0375C82.4265 22.5527 79.901 23.4327 76.9934 23.2992C75.9221 23.25 74.8116 23.0101 73.8132 22.6151C71.4689 21.6876 70.0712 19.8614 69.45 17.4171C68.9048 15.2707 68.9655 13.1379 69.659 11.04C70.7227 7.82197 73.6406 5.89063 77.3851 5.88499ZM82.0975 14.1897C82.0181 13.7492 81.9399 12.898 81.7043 12.0934C81.1054 10.0472 79.5225 8.80487 77.5282 8.71752C75.65 8.63506 73.9606 9.7513 73.2321 11.7062C72.3741 14.0087 72.4373 16.3023 73.7301 18.4476C75.0769 20.6826 78.1299 21.1724 80.1322 19.5049C81.6599 18.2325 82.0337 16.4757 82.0975 14.1897ZM112.495 10.9494C111.373 10.9494 110.28 10.9587 109.189 10.9376C109.054 10.9351 108.845 10.7992 108.801 10.6776C108.187 8.95864 106.743 8.75424 105.249 8.74559C104.629 8.74183 103.97 8.89385 103.397 9.13634C102.171 9.65468 102.035 11.0526 103.184 11.7222C103.981 12.1868 104.916 12.4363 105.815 12.6915C107.087 13.0525 108.4 13.27 109.664 13.6548C112.895 14.6392 114.158 17.9046 112.349 20.5965C111.481 21.8875 110.183 22.5863 108.695 22.9483C106.496 23.4833 104.306 23.5226 102.157 22.7402C99.8567 21.9026 98.6418 20.2218 98.4626 17.6777H101.972C102.97 20.3028 105.789 21.3252 108.43 19.9837C109.041 19.6732 109.449 19.2317 109.49 18.5058C109.534 17.73 109.236 17.063 108.546 16.8033C107.314 16.3404 106.028 16.0229 104.764 15.6493C103.717 15.3398 102.636 15.1162 101.626 14.7132C99.6766 13.935 98.8296 12.5964 98.8415 10.5555C98.852 8.77542 99.8843 7.25025 101.715 6.58128C104.234 5.66054 106.805 5.546 109.336 6.54519C111.046 7.22068 112.066 8.55285 112.49 10.3465C112.528 10.512 112.495 10.6955 112.495 10.9494ZM93.4425 6.31535H96.6905V8.99235H93.5078C93.4853 9.31293 93.4563 9.53725 93.456 9.76145C93.4529 12.4635 93.4516 15.1655 93.4572 17.867C93.4578 18.2266 93.4854 18.5871 93.5206 18.9453C93.5905 19.6598 93.984 20.0841 94.6977 20.1232C95.3517 20.1594 96.0093 20.131 96.7019 20.131V22.8077C95.2184 23.1778 93.7107 23.1582 92.2512 22.8305C90.5516 22.449 89.8612 21.2704 89.8463 19.0394C89.8258 16.0031 89.8402 12.9663 89.8396 9.92976V9.03709H87.142V6.32951H89.8031V1.37152H93.4429C93.4425 2.99332 93.4425 4.6032 93.4425 6.31535ZM123.819 22.9109C122.421 22.9109 121.098 22.9547 119.78 22.8983C118.501 22.8437 117.517 21.9894 117.238 20.7143C117.079 19.9872 116.995 19.2455 116.986 18.5009C116.958 15.6442 116.975 12.7867 116.975 9.92963V9.02619H114.286V6.35445H116.935V1.37629H120.581V6.27374H123.814V8.96491H120.712C120.675 9.2074 120.627 9.37508 120.627 9.54314C120.624 12.4517 120.615 15.3603 120.634 18.2687C120.644 19.8069 121.043 20.1771 122.556 20.1662C122.96 20.1635 123.364 20.1659 123.819 20.1659L123.819 22.9109ZM129.885 6.37062V9.18723C131.285 6.7907 133.223 5.54186 136.086 5.96758V9.44238C134.726 9.23635 133.414 9.19963 132.253 10.0409C130.729 11.1449 130.197 12.758 130.159 14.5362C130.101 17.2852 130.144 20.0366 130.144 22.8471H126.572V6.37037C127.654 6.37062 128.713 6.37062 129.885 6.37062Z" fill="#D4D4D4"/>
</g>
<defs>
<filter id="filter0_d_38_122" x="54.8823" y="64.136" width="97.7422" height="118.694" filterUnits="userSpaceOnUse" color-interpolation-filters="sRGB">
<feFlood flood-opacity="0" result="BackgroundImageFix"/>
<feColorMatrix in="SourceAlpha" type="matrix" values="0 0 0 0 0 0 0 0 0 0 0 0 0 0 0 0 0 0 127 0" result="hardAlpha"/>
<feOffset dy="4"/>
<feGaussianBlur stdDeviation="8"/>
<feColorMatrix type="matrix" values="0 0 0 0 0 0 0 0 0 0 0 0 0 0 0 0 0 0 0.15 0"/>
<feBlend mode="normal" in2="BackgroundImageFix" result="effect1_dropShadow_38_122"/>
<feBlend mode="normal" in="SourceGraphic" in2="effect1_dropShadow_38_122" result="shape"/>
</filter>
<linearGradient id="paint0_linear_38_122" x1="30.3127" y1="42.3139" x2="208.944" y2="183.731" gradientUnits="userSpaceOnUse">
<stop stop-color="#D4D4D4"/>
<stop offset="1" stop-color="#6E6E6E"/>
</linearGradient>
<clipPath id="clip0_38_122">
<rect width="204" height="163" fill="white" transform="translate(0 38)"/>
</clipPath>
<clipPath id="clip1_38_122">
<rect width="143" height="29" fill="white" transform="translate(29)"/>
</clipPath>
</defs>
</svg>
