<svg width="338" height="270" viewBox="0 0 338 270" fill="none" xmlns="http://www.w3.org/2000/svg">
<g clip-path="url(#clip0_95_22)">
<path d="M37.2863 35.2853C36.6486 16.9279 50.9165 0 70.2023 0H267.822C287.108 0 301.376 16.9279 300.738 35.2853C300.126 52.9193 300.921 75.7621 306.656 94.3875C312.409 113.07 322.111 124.88 338 126.397V143.603C322.111 145.12 312.409 156.93 306.656 175.612C300.921 194.238 300.126 217.081 300.738 234.715C301.376 253.072 287.108 270 267.822 270H70.2023C50.9165 270 36.6486 253.072 37.2869 234.715C37.8989 217.081 37.1034 194.238 31.368 175.612C25.6154 156.93 15.89 145.12 0 143.603V126.397C15.8893 124.88 25.6154 113.07 31.368 94.3875C37.1034 75.7621 37.8989 52.9193 37.2863 35.2853Z" fill="url(#paint0_linear_95_22)"/>
<g filter="url(#filter0_d_95_22)">
<path d="M176.33 206.773C207.553 206.773 226.368 191.448 226.368 166.17C226.368 147.063 212.943 133.23 193.009 131.041V130.245C207.655 127.856 219.147 114.223 219.147 98.9967C219.147 77.302 202.061 63.17 176.025 63.17H117.442V206.773H176.33ZM140.224 81.3818H170.533C187.009 81.3818 196.365 88.7459 196.365 102.081C196.365 116.312 185.483 124.273 165.753 124.273H140.224V81.3818ZM140.224 188.562V141.291H170.329C191.89 141.291 203.078 149.252 203.078 164.777C203.078 180.302 192.196 188.562 171.651 188.562H140.224Z" fill="url(#paint1_linear_95_22)"/>
<path d="M176.33 206.773C207.553 206.773 226.368 191.448 226.368 166.17C226.368 147.063 212.943 133.23 193.009 131.041V130.245C207.655 127.856 219.147 114.223 219.147 98.9967C219.147 77.302 202.061 63.17 176.025 63.17H117.442V206.773H176.33ZM140.224 81.3818H170.533C187.009 81.3818 196.365 88.7459 196.365 102.081C196.365 116.312 185.483 124.273 165.753 124.273H140.224V81.3818ZM140.224 188.562V141.291H170.329C191.89 141.291 203.078 149.252 203.078 164.777C203.078 180.302 192.196 188.562 171.651 188.562H140.224Z" stroke="white"/>
</g>
</g>
<defs>
<filter id="filter0_d_95_22" x="100.942" y="50.67" width="141.926" height="176.603" filterUnits="userSpaceOnUse" color-interpolation-filters="sRGB">
<feFlood flood-opacity="0" result="BackgroundImageFix"/>
<feColorMatrix in="SourceAlpha" type="matrix" values="0 0 0 0 0 0 0 0 0 0 0 0 0 0 0 0 0 0 127 0" result="hardAlpha"/>
<feOffset dy="4"/>
<feGaussianBlur stdDeviation="8"/>
<feColorMatrix type="matrix" values="0 0 0 0 0 0 0 0 0 0 0 0 0 0 0 0 0 0 0.15 0"/>
<feBlend mode="normal" in2="BackgroundImageFix" result="effect1_dropShadow_95_22"/>
<feBlend mode="normal" in="SourceGraphic" in2="effect1_dropShadow_95_22" result="shape"/>
</filter>
<linearGradient id="paint0_linear_95_22" x1="50.224" y1="7.14574" x2="346.134" y2="241.468" gradientUnits="userSpaceOnUse">
<stop stop-color="#9013FE"/>
<stop offset="1" stop-color="#6610F2"/>
</linearGradient>
<linearGradient id="paint1_linear_95_22" x1="127.745" y1="72.622" x2="194.003" y2="184.406" gradientUnits="userSpaceOnUse">
<stop stop-color="white"/>
<stop offset="1" stop-color="#F1E5FC"/>
</linearGradient>
<clipPath id="clip0_95_22">
<rect width="338" height="270" fill="white"/>
</clipPath>
</defs>
</svg>
