<svg width="496" height="404" viewBox="0 0 496 404" fill="none" xmlns="http://www.w3.org/2000/svg">
<g opacity="0.8">
<path d="M58.6877 248.397C62.3145 271.24 71.3383 292.886 85.0083 311.534V248.397H58.6877Z" fill="#FF6523"/>
<path d="M85.0081 248.397V311.534C98.7112 292.899 107.757 271.249 111.388 248.397H85.0081Z" fill="#FF8D23"/>
<path d="M65.2087 247.803C68.9635 263.273 75.6883 277.865 85.0084 290.765V247.803H65.2087Z" fill="#FFCA00"/>
<path d="M85.0081 247.803V290.765C94.3894 277.98 101.195 263.488 105.045 248.1L85.0081 247.803Z" fill="#FFAA00"/>
<path d="M123.185 220.982L165.392 275.456V200.569L123.185 167.932V220.982Z" fill="#FF4140"/>
<path d="M123.185 190.184V220.982L151.343 257.357V211.962L123.185 190.184Z" fill="#CC2221"/>
<path d="M46.9502 220.982L4.74243 275.456V200.569L46.9502 167.932V220.982Z" fill="#FF4140"/>
<path d="M46.9505 190.184V220.982L18.7922 257.357V211.962L46.9505 190.184Z" fill="#CC2221"/>
<path d="M45.3496 64.0277C47.2466 59.4783 49.2226 55.0872 51.2777 50.8542C49.2226 55.0476 47.2466 59.4387 45.3496 64.0277Z" fill="#FFCA00"/>
<path d="M40.9631 75.3023C42.3266 71.4452 43.8086 67.7068 45.3499 64.0277C43.8086 67.7068 42.3266 71.2078 40.9631 75.3023Z" fill="white"/>
<path d="M137.768 168.644C137.057 174.934 136.108 181.046 135.041 186.92C136.345 181.046 137.057 174.934 137.768 168.644Z" fill="#FFCA00"/>
<path d="M38.947 81.2362C39.5991 79.2187 40.2512 77.2605 40.9626 75.3022C40.2512 77.1418 39.5991 79.2187 38.947 81.2362Z" fill="#FFCA00"/>
<path d="M118.561 50.8542C120.636 55.0674 122.71 59.4585 124.489 64.0277C122.888 59.3398 120.813 55.0674 118.561 50.8542Z" fill="#FFCA00"/>
<path d="M35.0938 186.92C34.0268 180.986 33.0783 175.053 32.3669 168.644C33.0783 174.934 34.0268 181.046 35.0938 186.92Z" fill="#FFCA00"/>
<path d="M42.4446 216.353C41.7925 214.336 41.1997 212.318 40.5476 210.419C41.4961 212.318 41.7925 214.336 42.4446 216.353Z" fill="#FFCA00"/>
<path d="M65.2087 26.4062C70.544 18.0987 75.5235 11.5119 79.0804 7.00211C75.6421 11.5119 70.6625 18.0987 65.2087 26.4062Z" fill="#FFCA00"/>
<path d="M57.7394 38.9269C56.9095 40.3511 56.1388 41.7752 55.3682 43.1994C56.1388 41.5379 56.9095 40.3511 57.7394 38.9269Z" fill="#FFCA00"/>
<path d="M85.0081 0C85.0081 0 82.7555 2.43293 79.0801 7.0021C82.6962 2.43293 85.0081 0 85.0081 0Z" fill="#FFCA00"/>
<path d="M124.785 64.0277C126.327 67.7068 127.809 71.4452 129.172 75.3023C127.809 71.2078 126.327 67.7068 124.785 64.0277Z" fill="#FFCA00"/>
<path d="M129.172 75.3022C129.883 77.2605 130.536 79.2187 131.188 81.2362C130.417 79.2187 129.883 77.1418 129.172 75.3022Z" fill="#FFCA00"/>
<path d="M118.561 50.8542C117.257 48.2433 115.953 45.6916 114.589 43.1994C116.13 45.6916 117.435 48.2433 118.561 50.8542Z" fill="#FFCA00"/>
<path d="M114.767 43.1994C113.167 40.1731 111.507 37.2654 109.847 34.5358C111.507 37.3248 113.167 40.1731 114.767 43.1994Z" fill="#FFCA00"/>
<path d="M85.0673 240.03V43.1994H55.4271C54.0636 45.6916 52.7594 48.2433 51.4553 50.8542C49.3212 55.0476 47.3452 59.4387 45.5272 64.0277C43.9859 67.7067 42.5039 71.4451 41.1405 75.3022C40.4291 77.2604 39.777 79.2187 39.1249 81.2362C33.5898 97.9304 30.7092 115.391 30.5885 132.981C30.5644 144.876 31.2175 156.763 32.5448 168.584C33.2562 174.874 34.2046 180.986 35.2717 186.861C35.2717 188.048 35.6867 189.235 35.9238 190.362C36.3387 192.439 36.7537 194.516 37.228 196.296C37.7022 198.076 37.8208 199.026 38.1764 200.391C38.5321 201.755 39.2435 204.782 39.8363 206.859L40.7255 210.004C41.3776 212.081 41.9704 214.098 42.6225 215.938C43.2746 217.777 43.9859 219.854 44.6973 221.872C45.4087 223.889 46.8314 227.39 47.9577 230.001C49.0841 232.612 51.0996 236.707 52.8187 239.733L85.0673 240.03Z" fill="white"/>
<path d="M85.0674 43.1994V0C85.0674 0 82.8147 2.43293 79.1393 7.0021C75.4639 11.5713 70.6622 18.0987 65.2084 26.4062C63.9635 28.3051 62.7186 30.3227 61.4144 32.3402L60.1695 34.4764L57.6205 38.8676C56.7906 40.2918 56.0199 41.7159 55.2493 43.1401L85.0674 43.1994Z" fill="#FF4140"/>
<path d="M131.188 81.2362C130.535 79.2187 129.883 77.2604 129.172 75.3022C127.809 71.4451 126.327 67.7067 124.785 64.0277C123.244 60.3486 120.813 55.0673 118.857 50.8542C117.553 48.2433 116.249 45.6916 114.885 43.1994H85.2451V240.03H117.672C119.391 237.003 120.991 233.74 122.533 230.298C124.43 225.966 126.208 221.278 127.868 216.353C128.52 214.335 129.113 212.318 129.765 210.419L130.417 207.096C131.01 205.019 131.543 202.824 132.077 200.628C132.907 197.305 133.618 193.923 134.329 190.422C134.329 189.294 134.804 188.107 134.981 186.92C136.049 180.986 136.997 175.052 137.708 168.644C139.036 156.823 139.689 144.935 139.665 133.04C139.569 115.434 136.709 97.9525 131.188 81.2362Z" fill="#E0E0E0"/>
<path d="M85.0675 43.1991H114.708C113.107 40.1728 111.447 37.2651 109.788 34.5355C109.373 33.8234 108.958 33.1113 108.483 32.3993C107.238 30.3224 105.994 28.3048 104.749 26.4653C99.4134 18.1577 94.4339 11.571 90.877 7.06115C87.3202 2.55133 84.949 0.0590515 84.949 0.0590515L85.0675 43.1991Z" fill="#CC2221"/>
<path d="M48.8472 232.612C50.0921 235.223 51.337 237.715 52.6411 240.03H85.0676V232.612H48.8472Z" fill="#FFCA00"/>
<path d="M121.288 232.612H85.0676V240.03H117.494C118.561 237.715 120.043 235.223 121.288 232.612Z" fill="#FFAA00"/>
<path d="M52.6413 239.555L46.1797 256.051H85.0677V239.555H52.6413Z" fill="#FF4140"/>
<path d="M117.494 239.555H85.0676V256.051H124.015L117.494 239.555Z" fill="#CC2221"/>
<path d="M85.0676 83.8472V156.182C94.3971 155.804 103.219 151.828 109.686 145.087C116.153 138.345 119.765 129.361 119.765 120.015C119.765 110.668 116.153 101.684 109.686 94.9429C103.219 88.2015 94.3971 84.2255 85.0676 83.8472Z" fill="white"/>
<path d="M48.9065 120.044C48.9222 129.634 52.739 138.826 59.5188 145.602C66.2986 152.377 75.4873 156.182 85.0676 156.182V83.8472C75.4771 83.8472 66.2794 87.6608 59.4978 94.4491C52.7163 101.237 48.9065 110.444 48.9065 120.044Z" fill="#E0E0E0"/>
<path d="M85.0677 89.6032C77.0125 89.6189 69.2926 92.833 63.6022 98.5402C57.9119 104.247 54.716 111.981 54.7161 120.045H85.0677V89.6032Z" fill="#00447D"/>
<path d="M54.7161 120.044C54.7161 128.102 57.9138 135.83 63.6059 141.528C66.4243 144.349 69.7702 146.587 73.4526 148.114C77.1351 149.641 81.0819 150.426 85.0677 150.426V120.044H54.7161Z" fill="#003766"/>
<path d="M85.0676 89.6032V120.045H115.419C115.419 111.981 112.223 104.247 106.533 98.5402C100.843 92.833 93.1228 89.6189 85.0676 89.6032Z" fill="#003766"/>
<path d="M85.0676 120.044V150.426C93.1174 150.426 100.837 147.226 106.529 141.528C112.221 135.83 115.419 128.102 115.419 120.044H85.0676Z" fill="#00447D"/>
<path d="M71.1365 113.161C71.1366 114.205 70.7263 115.208 69.9942 115.952C69.2621 116.696 68.2671 117.121 67.224 117.137C66.1706 117.137 65.1604 116.718 64.4155 115.972C63.6707 115.227 63.2522 114.216 63.2522 113.161V107.524C63.2522 107.002 63.3549 106.485 63.5545 106.002C63.7541 105.52 64.0467 105.082 64.4155 104.713C64.7843 104.343 65.2222 104.05 65.7041 103.851C66.1859 103.651 66.7024 103.548 67.224 103.548C68.2671 103.564 69.2621 103.989 69.9942 104.733C70.7263 105.477 71.1366 106.48 71.1365 107.524V113.161Z" fill="white"/>
<path d="M324.501 59.8145C318.7 59.8145 313.136 62.1215 309.034 66.2279C304.931 70.3342 302.627 75.9037 302.627 81.7109V261.511C302.627 267.323 304.929 272.899 309.03 277.015C313.131 281.131 318.694 283.451 324.501 283.466H386.509V59.8145H324.501Z" fill="white"/>
<path d="M448.516 59.8145H386.509V283.466H448.516C454.333 283.466 459.912 281.153 464.026 277.036C468.139 272.918 470.45 267.334 470.45 261.511V81.7109C470.434 75.8982 468.117 70.3289 464.005 66.2242C459.893 62.1196 454.323 59.8145 448.516 59.8145Z" fill="#F0F0F0"/>
<path d="M302.805 264.359C303.482 269.64 306.059 274.493 310.052 278.01C314.046 281.527 319.183 283.466 324.502 283.466H448.516C453.842 283.468 458.986 281.53 462.99 278.015C466.993 274.499 469.581 269.645 470.272 264.359H302.805Z" fill="white"/>
<path d="M403.108 59.8145H297.766C292.441 59.8127 287.296 61.7505 283.293 65.2664C279.29 68.7823 276.701 73.6361 276.01 78.922H426.82C427.511 73.6361 430.099 68.7823 434.103 65.2664C438.106 61.7505 443.25 59.8127 448.576 59.8145H403.108Z" fill="#E0E0E0"/>
<path d="M369.14 283.466H474.244C479.57 283.468 484.714 281.53 488.717 278.015C492.721 274.499 495.309 269.645 496 264.359H345.309C344.631 269.64 342.055 274.493 338.062 278.01C334.068 281.527 328.931 283.466 323.612 283.466H369.14Z" fill="#E0E0E0"/>
<path d="M455.749 148.112H317.269V166.448H455.749V148.112Z" fill="#2D4375"/>
<path d="M455.749 116.306H317.269V134.642H455.749V116.306Z" fill="#2D4375"/>
<path d="M455.749 179.978H317.269V198.314H455.749V179.978Z" fill="#2D4375"/>
<path d="M408.206 332.896C408.206 336.894 406.619 340.728 403.796 343.554C400.972 346.381 397.142 347.969 393.148 347.969H88.0316C84.0382 347.969 80.2083 346.381 77.3845 343.554C74.5607 340.728 72.9744 336.894 72.9744 332.896V156.064C72.9744 152.066 74.5607 148.233 77.3845 145.406C80.2083 142.579 84.0382 140.991 88.0316 140.991H393.148C397.142 140.991 400.972 142.579 403.796 145.406C406.619 148.233 408.206 152.066 408.206 156.064V332.896Z" fill="#343049"/>
<path d="M88.0316 140.991C84.0382 140.991 80.2083 142.579 77.3845 145.406C74.5607 148.233 72.9744 152.066 72.9744 156.064V332.896C72.9744 336.894 74.5607 340.728 77.3845 343.554C80.2083 346.381 84.0382 347.969 88.0316 347.969H242.161V140.991H88.0316Z" fill="#1E2D4F"/>
<path d="M393.148 140.991H242.22V347.969H393.148C397.142 347.969 400.971 346.381 403.795 343.554C406.619 340.728 408.205 336.894 408.205 332.896V156.064C408.205 152.066 406.619 148.233 403.795 145.406C400.971 142.579 397.142 140.991 393.148 140.991Z" fill="#2D4375"/>
<path d="M94.1375 154.284C91.7368 154.299 89.4389 155.261 87.7413 156.96C86.0437 158.659 85.0832 160.959 85.0676 163.363V325.42C85.0676 327.828 86.0232 330.137 87.7241 331.839C89.4251 333.542 91.7321 334.499 94.1375 334.499H242.339V154.284H94.1375Z" fill="#62C3ED"/>
<path d="M387.042 154.284H242.22V334.499H387.042C388.233 334.499 389.413 334.264 390.513 333.808C391.614 333.351 392.613 332.683 393.456 331.839C394.298 330.996 394.966 329.996 395.422 328.894C395.878 327.793 396.112 326.612 396.112 325.42V163.541C396.128 162.336 395.905 161.139 395.457 160.021C395.009 158.902 394.344 157.883 393.501 157.023C392.658 156.163 391.654 155.478 390.545 155.007C389.437 154.537 388.246 154.291 387.042 154.284Z" fill="#2A9ED1"/>
<path d="M242.22 347.969V378.766H409.035C412.611 378.774 416.152 378.075 419.457 376.709C422.762 375.343 425.765 373.337 428.293 370.806C430.821 368.275 432.825 365.27 434.19 361.962C435.554 358.654 436.253 355.108 436.245 351.529V347.969H242.22Z" fill="#1E2D4F"/>
<path d="M44.8751 347.969V351.529C44.8673 355.103 45.5638 358.644 46.9247 361.948C48.2857 365.252 50.2843 368.255 52.8063 370.785C55.3282 373.315 58.3239 375.322 61.6218 376.692C64.9197 378.061 68.4551 378.766 72.0255 378.766H242.22V347.969H44.8751Z" fill="#2D4375"/>
<path d="M242.22 137.134H215.425V140.991H242.22V137.134Z" fill="#1E2D4F"/>
<path d="M269.015 137.134H242.22V140.991H269.015V137.134Z" fill="#2D4375"/>
<path d="M242.22 98.8008V137.134H264.332L242.22 98.8008Z" fill="#1E2D4F"/>
<path d="M220.108 137.134H242.22V98.8008L220.108 137.134Z" fill="#2D4375"/>
<path d="M270.319 107.108C270.319 99.6486 267.359 92.4944 262.089 87.2196C256.819 81.9447 249.672 78.9813 242.22 78.9813V135.235C249.672 135.235 256.819 132.272 262.089 126.997C267.359 121.722 270.319 114.568 270.319 107.108Z" fill="white"/>
<path d="M242.22 135.235V78.9813C234.768 78.9813 227.621 81.9447 222.351 87.2196C217.082 92.4944 214.121 99.6486 214.121 107.108C214.121 114.568 217.082 121.722 222.351 126.997C227.621 132.272 234.768 135.235 242.22 135.235Z" fill="#E1EDF7"/>
<path d="M215.485 107.108C215.5 114.196 218.324 120.988 223.336 125.994C228.348 131 235.14 133.811 242.22 133.811V80.4055C235.14 80.4055 228.348 83.2169 223.336 88.223C218.324 93.2291 215.5 100.021 215.485 107.108Z" fill="white"/>
<path d="M242.22 80.3462V133.752C248.988 133.3 255.331 130.29 259.964 125.332C264.598 120.374 267.176 113.839 267.176 107.049C267.176 100.26 264.598 93.724 259.964 88.7659C255.331 83.8078 248.988 80.798 242.22 80.3462Z" fill="#E1EDF7"/>
<path d="M261.96 107.108C261.96 101.868 259.881 96.8416 256.179 93.1359C252.476 89.4301 247.455 87.3482 242.22 87.3482V126.869C247.455 126.869 252.476 124.787 256.179 121.081C259.881 117.375 261.96 112.349 261.96 107.108Z" fill="white"/>
<path d="M242.22 126.869V87.3482C239.628 87.3482 237.061 87.8593 234.666 88.8524C232.271 89.8454 230.095 91.301 228.262 93.1359C226.428 94.9708 224.974 97.1491 223.982 99.5465C222.99 101.944 222.48 104.513 222.48 107.108C222.48 109.703 222.99 112.273 223.982 114.67C224.974 117.068 226.428 119.246 228.262 121.081C230.095 122.916 232.271 124.371 234.666 125.364C237.061 126.357 239.628 126.869 242.22 126.869Z" fill="#E1EDF7"/>
<path d="M225.266 107.108C225.281 111.599 227.074 115.901 230.252 119.071C233.43 122.24 237.734 124.02 242.22 124.02V90.1372C239.993 90.1372 237.789 90.5762 235.732 91.4291C233.675 92.282 231.806 93.5321 230.231 95.108C228.657 96.6839 227.408 98.5548 226.556 100.614C225.704 102.673 225.266 104.88 225.266 107.108Z" fill="#62C3ED"/>
<path d="M242.22 90.1372V124.02C246.535 123.765 250.59 121.868 253.556 118.719C256.521 115.57 258.172 111.406 258.172 107.079C258.172 102.751 256.521 98.5874 253.556 95.4384C250.59 92.2893 246.535 90.393 242.22 90.1372Z" fill="#2A9ED1"/>
<path d="M481.18 378.766H0V403.511H481.18V378.766Z" fill="white"/>
<path d="M481.18 391.109H0V403.511H481.18V391.109Z" fill="#E0E0E0"/>
<path d="M242.22 166.092H117.375V322.037H242.22V166.092Z" fill="white"/>
<path d="M367.065 166.092H242.22V322.037H367.065V166.092Z" fill="#E0E0E0"/>
<path d="M242.22 166.092H117.375V187.87H242.22V166.092Z" fill="#2D4375"/>
<path d="M367.065 166.092H242.22V187.87H367.065V166.092Z" fill="#1E2D4F"/>
<path d="M168.89 245.489L209.319 231.425V249.821L189.342 254.449L209.319 260.383V278.779L168.89 264.062V245.489Z" fill="#FF4140"/>
<path d="M243.88 209.41H265.339L234.988 300.378H213.41L243.88 209.41Z" fill="#FF4140"/>
<path d="M269.548 260.146L289.526 254.212L269.548 249.583V231.425L310.037 245.489V263.825L269.548 278.541V260.146Z" fill="#FF4140"/>
<path d="M468.316 314.501C463.017 314.501 457.836 316.074 453.43 319.021C449.023 321.969 445.589 326.158 443.561 331.059C441.533 335.96 441.002 341.352 442.036 346.555C443.07 351.758 445.622 356.537 449.369 360.288C453.117 364.04 457.891 366.594 463.089 367.629C468.286 368.664 473.674 368.133 478.57 366.103C483.466 364.073 487.651 360.635 490.595 356.224C493.539 351.813 495.111 346.628 495.111 341.323C495.111 334.209 492.288 327.387 487.263 322.357C482.238 317.327 475.422 314.501 468.316 314.501ZM468.316 360.015C464.606 360.027 460.976 358.935 457.887 356.879C454.797 354.823 452.387 351.895 450.962 348.467C449.536 345.038 449.16 341.263 449.881 337.62C450.602 333.977 452.388 330.63 455.011 328.004C457.634 325.378 460.978 323.591 464.617 322.87C468.256 322.148 472.027 322.524 475.453 323.951C478.878 325.377 481.803 327.79 483.857 330.883C485.911 333.975 487.001 337.609 486.989 341.323C486.958 346.26 484.977 350.984 481.478 354.463C477.98 357.943 473.248 359.896 468.316 359.896V360.015Z" fill="#CC2221"/>
<path d="M439.446 303.642H410.399V378.766H439.446V303.642Z" fill="#FF4140"/>
<path d="M468.494 303.642H439.447V378.766H468.494V303.642Z" fill="#CC2221"/>
</g>
</svg>
