<svg width="219" height="227" viewBox="0 0 219 227" fill="none" xmlns="http://www.w3.org/2000/svg">
<g clip-path="url(#clip0_35_54)">
<path d="M46.0499 214.498L31.939 45.8012H187.061L172.95 214.434L109.38 233.219L46.0499 214.498Z" fill="#6E6E6E"/>
<path d="M109.5 218.903L160.845 203.743L172.95 59.5984H109.5V218.903Z" fill="#989898"/>
<path d="M59.0704 98.5351L57.1841 79.0349H161.816L160.602 101.646L116.374 122.44H158.775L154.211 186.575L111.446 198.819L67.099 187.354L64.3615 154.831H83.9517L85.0467 171.999L110.715 177.119L134.441 169.344L135.536 141.877H62.6591L61.3203 121.47L109.5 98.9906L59.0704 98.5351Z" fill="#D7D7D7"/>
<path d="M61.3203 121.47L62.6591 141.877H109.5V98.9906L61.3203 121.47Z" fill="#B6B6B6"/>
<path d="M85.0466 171.999L83.9516 154.831H64.3613L67.0988 187.354L109.5 198.3V176.859L85.0466 171.999Z" fill="#B6B6B6"/>
<path d="M57.1841 79.0349L59.0704 98.5351L109.5 98.9906V79.0349H57.1841Z" fill="#B6B6B6"/>
<path d="M124.098 7.77549V0H94.9012V18.1383H114.975V23.9687H94.2896V31.0974H123.491V12.3078H102.81V7.77549H124.098Z" fill="#D4D4D4"/>
<path d="M71.1749 18.3341V23.9687H91.8601V31.0974H62.6587V12.5036V0H91.2485V7.77549H71.1749V18.3341Z" fill="#D4D4D4"/>
<path d="M156.341 7.77549V0H127.14V18.1383H147.217V23.9687H126.532V31.0974H155.734V12.3078H135.048V7.77549H156.341Z" fill="#D4D4D4"/>
</g>
<defs>
<clipPath id="clip0_35_54">
<rect width="219" height="227" fill="white"/>
</clipPath>
</defs>
</svg>
