<svg width="672" height="336" viewBox="0 0 672 336" fill="none" xmlns="http://www.w3.org/2000/svg">
<path d="M224.064 233.818V104.764H231.07V125.066C231.897 124.166 232.662 123.211 233.358 122.206C236.22 116.264 240.717 111.261 246.322 107.783C251.927 104.306 258.406 102.498 265.002 102.571C280.967 102.095 293.929 108.004 301.555 122.206C306.406 131.028 309.076 140.884 309.342 150.949C309.607 161.014 307.46 170.996 303.08 180.062C295.979 195.979 278.441 203.89 259.664 200.983C253.821 200.485 248.195 198.532 243.301 195.302C238.406 192.073 234.398 187.669 231.642 182.492V233.818H224.064ZM231.07 150.419C231.69 156.71 231.928 161.189 232.643 165.574C235.407 182.826 245.605 193.072 261.618 194.931C269.137 196.166 276.851 194.757 283.447 190.942C290.043 187.127 295.112 181.143 297.79 174.009C300.867 166.672 302.348 158.764 302.134 150.81C301.92 142.856 300.017 135.039 296.551 127.877C293.692 121.484 288.831 116.194 282.701 112.806C276.571 109.419 269.506 108.118 262.571 109.101C256.061 109.572 249.859 112.061 244.828 116.22C239.798 120.38 236.188 126.003 234.501 132.309C233.009 138.275 231.863 144.321 231.07 150.419Z" fill="#D4D4D4"/>
<path d="M452.246 167.957C451.184 177.043 446.859 185.435 440.074 191.571C433.289 197.707 424.506 201.171 415.359 201.317C386.003 202.794 372.23 183.302 370.038 160.808C368.516 148.593 370.5 136.197 375.757 125.066C379.418 117.431 385.413 111.158 392.876 107.157C400.338 103.156 408.88 101.634 417.266 102.81C425.238 103.486 432.795 106.652 438.868 111.861C444.94 117.07 449.221 124.057 451.102 131.833C452.594 138.915 453.692 146.075 454.39 153.279H377.234C375.804 173.676 386.765 190.07 402.302 194.025C421.65 198.791 438.187 190.403 444.192 172.008C445.526 167.29 447.957 166.622 452.246 167.957ZM377.234 146.75H446.193C445.765 125.018 432.23 109.291 413.882 109.053C393.104 108.719 378.139 123.874 377.234 146.75Z" fill="#D4D4D4"/>
<path d="M466.448 168.433H473.215C473.465 173.413 475.083 178.227 477.891 182.347C480.7 186.467 484.589 189.732 489.133 191.785C494.838 194.353 501.049 195.6 507.304 195.435C513.558 195.27 519.695 193.697 525.257 190.832C528.288 189.466 530.827 187.202 532.531 184.347C534.236 181.493 535.023 178.184 534.788 174.867C534.962 171.668 534.089 168.5 532.3 165.843C530.511 163.185 527.905 161.183 524.875 160.141C517.441 157.377 509.53 155.852 501.952 153.421C494.068 151.176 486.359 148.357 478.886 144.986C466.686 139.029 465.924 115.82 479.744 108.481C486.821 104.488 494.785 102.33 502.91 102.205C511.035 102.08 519.061 103.992 526.257 107.766C530.617 110.175 534.138 113.856 536.352 118.318C538.565 122.779 539.367 127.81 538.648 132.738H532.834C532.834 132.452 532.31 132.214 532.31 131.928C531.595 113.39 516.059 107.671 499.379 109.291C494.4 109.905 489.563 111.372 485.082 113.628C482.39 114.859 480.146 116.896 478.66 119.457C477.175 122.018 476.521 124.977 476.79 127.925C476.798 130.875 477.718 133.75 479.425 136.156C481.131 138.562 483.54 140.381 486.321 141.364C493.66 144.033 501.333 145.749 508.863 147.846C514.915 149.514 521.206 150.61 527.068 152.611C531.205 153.968 534.833 156.548 537.471 160.012C540.109 163.476 541.633 167.659 541.841 172.008C542.548 176.773 541.737 181.639 539.521 185.917C537.305 190.194 533.798 193.665 529.498 195.836C513.581 204.843 487.369 202.46 475.693 191.07C472.734 188.094 470.394 184.562 468.807 180.676C467.22 176.791 466.418 172.63 466.448 168.433Z" fill="#D4D4D4"/>
<path d="M627.623 132.738H621.285C621.285 131.881 620.952 131.118 620.856 130.403C620.753 125.652 619.021 121.081 615.95 117.454C612.879 113.828 608.655 111.366 603.986 110.483C595.175 107.955 585.777 108.407 577.25 111.769C573.88 112.736 570.912 114.766 568.791 117.558C566.669 120.349 565.508 123.752 565.479 127.258C565.36 130.701 566.434 134.08 568.517 136.823C570.601 139.567 573.568 141.508 576.917 142.317C586.448 145.272 596.218 147.083 605.892 149.752C609.027 150.504 612.114 151.443 615.137 152.564C619.652 154.179 623.574 157.118 626.391 160.998C629.208 164.877 630.79 169.516 630.929 174.309C631.068 179.101 629.758 183.824 627.17 187.86C624.582 191.896 620.837 195.058 616.424 196.932C609.699 199.986 602.41 201.602 595.024 201.676C587.638 201.749 580.318 200.28 573.533 197.361C567.953 194.955 563.245 190.897 560.041 185.733C556.837 180.57 555.292 174.549 555.614 168.481H558.283H561.809C562.955 174.011 565.432 179.177 569.025 183.534C572.618 187.891 577.219 191.306 582.429 193.484C587.639 195.662 593.302 196.537 598.926 196.033C604.551 195.53 609.968 193.663 614.708 190.594C617.596 189.094 619.993 186.797 621.615 183.975C623.237 181.154 624.015 177.927 623.859 174.676C624.002 171.476 623.098 168.316 621.283 165.675C619.469 163.035 616.842 161.059 613.803 160.046C606.368 157.282 598.457 155.804 590.88 153.374C582.951 151.163 575.194 148.376 567.671 145.034C555.757 139.172 554.804 116.154 568.386 108.815C575.551 104.654 583.67 102.419 591.955 102.327C600.239 102.235 608.407 104.29 615.662 108.29C619.811 110.767 623.15 114.397 625.274 118.738C627.398 123.078 628.214 127.942 627.623 132.738Z" fill="#D4D4D4"/>
<path d="M212.484 198.981C209.989 199.926 207.234 199.924 204.741 198.976C202.247 198.028 200.187 196.199 198.95 193.834C191.182 182.206 182.604 171.102 174.359 159.76L170.785 154.994C160.967 168.147 151.15 180.777 142.191 193.882C141.023 196.141 139.075 197.9 136.707 198.829C134.34 199.758 131.716 199.795 129.323 198.934L166.162 149.514L131.897 104.859C134.363 103.968 137.062 103.956 139.536 104.825C142.011 105.693 144.11 107.388 145.479 109.625C153.438 121.253 162.254 132.357 171.023 144.128C179.84 132.452 188.561 121.301 196.71 109.768C197.884 107.545 199.834 105.831 202.189 104.953C204.543 104.074 207.139 104.092 209.482 105.002L196.186 122.635C190.229 130.499 184.367 138.41 178.172 146.082C177.672 146.529 177.273 147.077 177 147.688C176.726 148.3 176.585 148.963 176.585 149.633C176.585 150.303 176.726 150.965 177 151.577C177.273 152.189 177.672 152.736 178.172 153.183C189.562 168.29 200.856 183.445 212.484 198.981Z" fill="#D4D4D4"/>
<path d="M368.894 104.383V111.055C364.074 110.738 359.241 111.436 354.708 113.104C350.174 114.771 346.04 117.37 342.574 120.734C339.107 124.097 336.384 128.15 334.58 132.632C332.777 137.113 331.933 141.922 332.103 146.75C332.103 162.445 332.103 178.139 332.103 193.834C332.103 195.502 332.103 197.17 332.103 199.172H325.288V104.764H331.96V124.113C340.205 110.006 352.929 104.764 368.894 104.383Z" fill="#D4D4D4"/>
<path d="M41.0625 148.894C42.0633 144.128 42.6828 138.934 44.0649 134.073C52.3095 104.764 85.9076 92.5636 109.021 110.721C122.556 121.348 125.939 136.408 125.272 153.374H49.0212C47.7821 183.684 69.6566 201.984 97.6312 192.643C102.169 191.02 106.231 188.292 109.451 184.706C112.671 181.12 114.947 176.789 116.074 172.103C117.552 167.337 119.935 166.527 124.462 167.909C123.716 173.711 121.665 179.268 118.462 184.163C115.259 189.058 110.989 193.163 105.971 196.17C97.6808 200.703 88.1691 202.499 78.7964 201.301C69.4237 200.103 60.67 195.971 53.7869 189.498C46.9775 181.841 42.8601 172.167 42.0633 161.952C42.0633 160.332 41.4438 158.711 41.1102 157.186C41.0784 154.359 41.0625 151.595 41.0625 148.894ZM49.1165 146.845H118.076C117.647 124.875 103.779 109.291 85.2881 109.148C64.7003 108.862 49.9743 124.112 49.0689 146.749L49.1165 146.845Z" fill="#D4D4D4"/>
</svg>
