<svg width="322" height="161" viewBox="0 0 322 161" fill="none" xmlns="http://www.w3.org/2000/svg">
<path d="M107.333 112.037V50.1999H110.687V59.9269C111.083 59.4956 111.449 59.0375 111.782 58.5558C114.584 52.7437 120.492 49.0755 126.943 49.148C134.59 48.9199 140.805 51.7508 144.457 58.5558C146.781 62.7833 148.06 67.5054 148.187 72.3279C148.314 77.1504 147.285 81.9333 145.187 86.2773C141.784 93.9033 133.38 97.6948 124.383 96.3022C121.583 96.0642 118.887 95.1286 116.542 93.5809C114.196 92.0331 112.276 89.9226 110.956 87.4418V112.035L107.333 112.037ZM110.687 72.0744L111.439 79.3355C112.764 87.6002 117.651 92.4838 125.322 93.4015C128.925 93.9938 132.621 93.3184 135.782 91.4904C138.942 89.6623 141.371 86.7948 142.654 83.3766C145.638 76.2658 145.418 68.2157 142.064 61.2713C140.694 58.2071 138.365 55.6719 135.427 54.0487C132.49 52.4255 129.104 51.8026 125.781 52.2741C122.662 52.501 119.691 53.6936 117.281 55.6864C114.871 57.6791 113.141 60.373 112.332 63.3938C111.618 66.2525 111.069 69.1499 110.687 72.0717V72.0744ZM216.674 80.4786C216.165 84.8325 214.092 88.8535 210.841 91.7937C207.59 94.7339 203.381 96.3933 198.998 96.4632C184.932 97.1716 178.331 87.8309 177.282 77.052C176.553 71.1984 177.503 65.2581 180.022 59.9243C181.775 56.2652 184.648 53.2594 188.224 51.3422C191.8 49.4249 195.893 48.6959 199.911 49.2607C203.73 49.5854 207.351 51.103 210.261 53.599C213.17 56.0949 215.221 59.4426 216.123 63.1684C216.838 66.5624 217.364 69.9934 217.699 73.4456H180.757C180.073 83.2183 185.324 91.0751 192.768 92.9695C202.039 95.2503 209.963 91.2334 212.839 82.4186C213.478 80.1566 214.642 79.8373 216.698 80.4786H216.674ZM180.73 70.3168H213.773C213.566 59.9055 207.083 52.3385 198.29 52.2526C188.362 52.0916 181.162 59.3554 180.73 70.3168ZM223.503 80.7067H226.741C226.86 83.0928 227.635 85.3998 228.981 87.374C230.326 89.3481 232.19 90.9129 234.367 91.8962C237.101 93.1265 240.078 93.7245 243.075 93.6455C246.072 93.5665 249.012 92.8127 251.678 91.44C253.131 90.7858 254.348 89.7014 255.164 88.3332C255.981 86.9651 256.358 85.3792 256.245 83.7898C256.328 82.257 255.91 80.7387 255.053 79.4652C254.196 78.1917 252.947 77.2323 251.495 76.7327C247.932 75.4071 244.143 74.6772 240.512 73.5126C236.734 72.4371 233.04 71.0864 229.46 69.4715C223.61 66.6165 223.248 55.4968 229.87 51.9762C233.261 50.0628 237.077 49.0289 240.97 48.9689C244.863 48.9089 248.71 49.8247 252.158 51.6328C256.435 53.9941 258.799 58.7624 258.096 63.6004H255.319C255.319 63.4662 255.067 63.3482 255.067 63.2113C254.723 54.3563 247.28 51.5871 239.289 52.3653C236.874 52.6336 234.585 53.3635 232.438 54.4422C231.148 55.0315 230.072 56.0073 229.361 57.2347C228.649 58.462 228.337 59.8801 228.467 61.2927C228.469 62.7065 228.91 64.0847 229.728 65.2379C230.546 66.391 231.701 67.2626 233.034 67.7328C236.522 69.0127 240.225 69.8338 243.834 70.8374L252.555 73.1182C254.537 73.7688 256.275 75.0058 257.539 76.6655C258.803 78.3252 259.533 80.3295 259.634 82.4133C260.331 87.0957 257.943 91.6976 253.72 93.8308C246.094 98.1456 233.533 97.0052 227.938 91.55C225.075 88.6708 223.478 84.7612 223.511 80.704L223.503 80.7067ZM300.729 63.6031H297.691C297.691 63.1925 297.53 62.7981 297.485 62.4841C297.436 60.2073 296.606 58.0163 295.134 56.2785C293.662 54.5408 291.638 53.3619 289.4 52.9395C285.178 51.7287 280.675 51.9457 276.59 53.5567C274.974 54.019 273.552 54.9918 272.535 56.3297C271.518 57.6675 270.962 59.2985 270.949 60.9788C270.891 62.6287 271.405 64.2479 272.404 65.5626C273.402 66.8774 274.824 67.807 276.429 68.1943L290.312 71.7578C291.814 72.1178 293.292 72.5677 294.74 73.1048C299.167 74.7148 302.173 78.8257 302.307 83.5242C302.373 85.824 301.742 88.0901 300.497 90.0249C299.252 91.9597 297.451 93.4725 295.33 94.3648C292.108 95.8286 288.615 96.6031 285.076 96.6386C281.537 96.6742 278.03 95.9701 274.778 94.5714C272.105 93.4185 269.848 91.4742 268.313 89.0001C266.778 86.5261 266.038 83.6411 266.192 80.7335H269.16C270.276 86.1136 273.971 90.5947 279.04 92.7146C284.108 94.8344 289.896 94.3138 294.506 91.33C295.889 90.6107 297.038 89.5102 297.815 88.1586C298.592 86.8071 298.965 85.2612 298.891 83.7039C298.96 82.1701 298.526 80.6556 297.657 79.3903C296.787 78.1249 295.528 77.1778 294.072 76.6924C290.508 75.3668 286.719 74.6611 283.089 73.4724C279.29 72.4134 275.573 71.078 271.969 69.4769C266.259 66.6675 265.803 55.639 272.312 52.1211C275.745 50.1274 279.636 49.0563 283.606 49.0121C287.575 48.9679 291.489 49.9521 294.965 51.8689C296.954 53.0556 298.554 54.7949 299.572 56.875C300.589 58.955 300.98 61.2861 300.697 63.5843L300.729 63.6031ZM101.814 95.3469C100.618 95.7991 99.2981 95.7979 98.1032 95.3435C96.9084 94.8892 95.9212 94.0133 95.3279 92.8809L83.5213 76.5529L81.8093 74.272L68.1082 92.9051C67.5498 93.9887 66.616 94.832 65.4812 95.2774C64.3465 95.7228 63.0884 95.7399 61.9419 95.3255L79.5929 71.6451L63.1709 50.2482C65.6073 49.368 68.3229 50.3233 69.678 52.529L81.914 69.0583L94.2224 52.5934C94.785 51.5283 95.7194 50.7072 96.8479 50.2862C97.9765 49.8651 99.2204 49.8736 100.343 50.3099L93.9702 58.765L85.3379 70.0002C85.0983 70.2141 84.9066 70.4763 84.7754 70.7694C84.6441 71.0626 84.5763 71.3802 84.5763 71.7014C84.5763 72.0226 84.6441 72.3402 84.7754 72.6334C84.9066 72.9265 85.0983 73.1887 85.3379 73.4026L101.779 95.3469H101.814ZM176.759 50.0201V53.2401C174.449 53.0886 172.134 53.423 169.961 54.2219C167.789 55.0207 165.808 56.2662 164.147 57.8779C162.486 59.4895 161.181 61.4316 160.317 63.5788C159.452 65.726 159.048 68.0305 159.13 70.3436C159.13 77.8641 159.13 85.3846 159.13 92.9051V95.4623H155.864V50.2213H159.084V59.4922C163.034 52.7302 169.13 50.2213 176.78 50.0389L176.759 50.0201ZM19.6768 71.3499L21.115 64.2471C25.0649 50.2025 41.1649 44.3582 52.2417 53.0576C58.7273 58.1506 60.3453 65.366 60.0287 73.4965H23.4898C22.8994 88.0187 33.3778 96.7879 46.7811 92.3121C51.1979 90.7021 54.5225 87.0313 55.6173 82.4696C56.3257 80.1888 57.4956 79.797 59.6369 80.4571C59.2798 83.2374 58.297 85.9005 56.7623 88.2462C55.2276 90.5919 53.1811 92.5591 50.7766 93.9999C46.8041 96.1724 42.2463 97.0332 37.7551 96.4592C33.2638 95.8852 29.0691 93.9058 25.7706 90.8041C22.5077 87.1359 20.5381 82.4991 20.1544 77.6021C20.1544 76.7971 19.8861 76.0457 19.6982 75.3212C19.6803 73.967 19.6714 72.6433 19.6714 71.3499H19.6768ZM23.5354 70.3678H56.5779C56.3713 59.8411 49.7274 52.3734 40.867 52.3036C31.0031 52.1694 23.9459 59.4735 23.5112 70.3222L23.5354 70.3678Z" fill="#D4D4D4"/>
<path d="M303.575 130.07L309.14 116.6H309.425L303.86 130.07H303.575ZM312.269 127.085L318.374 123.44V123.41L312.269 119.765V119.42L318.719 123.29V123.56L312.269 127.43V127.085Z" fill="white"/>
<path d="M3.275 24.56V24.29L9.725 20.42V20.765L3.62 24.41V24.44L9.725 28.085V28.43L3.275 24.56ZM15.9741 18.635C15.8141 18.635 15.6991 18.605 15.6291 18.545C15.5691 18.475 15.5391 18.39 15.5391 18.29V18.17C15.5391 18.07 15.5691 17.99 15.6291 17.93C15.6991 17.86 15.8141 17.825 15.9741 17.825C16.1341 17.825 16.2441 17.86 16.3041 17.93C16.3741 17.99 16.4091 18.07 16.4091 18.17V18.29C16.4091 18.39 16.3741 18.475 16.3041 18.545C16.2441 18.605 16.1341 18.635 15.9741 18.635ZM12.7491 28.715H15.8241V21.545H12.7491V21.26H16.1391V28.715H19.0191V29H12.7491V28.715ZM21.0833 29V21.26H21.3983V22.175H21.4433C21.5533 21.855 21.7333 21.595 21.9833 21.395C22.2433 21.185 22.5933 21.08 23.0333 21.08C23.9133 21.08 24.4283 21.49 24.5783 22.31H24.6083C24.7183 21.96 24.9083 21.67 25.1783 21.44C25.4483 21.2 25.8183 21.08 26.2883 21.08C26.8283 21.08 27.2333 21.245 27.5033 21.575C27.7733 21.895 27.9083 22.37 27.9083 23V29H27.5933V23.045C27.5933 22.465 27.4783 22.04 27.2483 21.77C27.0183 21.5 26.6883 21.365 26.2583 21.365C25.8283 21.365 25.4533 21.52 25.1333 21.83C24.8133 22.14 24.6533 22.61 24.6533 23.24V29H24.3383V23.045C24.3383 22.465 24.2233 22.04 23.9933 21.77C23.7633 21.5 23.4333 21.365 23.0033 21.365C22.7933 21.365 22.5883 21.405 22.3883 21.485C22.1983 21.555 22.0283 21.67 21.8783 21.83C21.7383 21.99 21.6233 22.19 21.5333 22.43C21.4433 22.66 21.3983 22.93 21.3983 23.24V29H21.0833ZM37.1274 29.945C37.1274 30.715 36.8174 31.28 36.1974 31.64C35.5774 32 34.6924 32.18 33.5424 32.18C32.4124 32.18 31.5924 32 31.0824 31.64C30.5824 31.28 30.3324 30.805 30.3324 30.215C30.3324 29.755 30.4624 29.375 30.7224 29.075C30.9924 28.775 31.3674 28.55 31.8474 28.4V28.355C31.5674 28.275 31.3624 28.15 31.2324 27.98C31.1124 27.8 31.0524 27.59 31.0524 27.35C31.0524 27 31.1824 26.72 31.4424 26.51C31.7024 26.29 31.9974 26.13 32.3274 26.03V25.985C31.8974 25.795 31.5624 25.505 31.3224 25.115C31.0824 24.725 30.9624 24.24 30.9624 23.66C30.9624 22.88 31.1924 22.255 31.6524 21.785C32.1124 21.315 32.7474 21.08 33.5574 21.08C34.2174 21.08 34.7724 21.25 35.2224 21.59V20.99C35.2224 20.72 35.3674 20.585 35.6574 20.585H37.3224V20.87H35.5074V21.845C35.7074 22.065 35.8624 22.33 35.9724 22.64C36.0924 22.94 36.1524 23.28 36.1524 23.66C36.1524 24.05 36.0874 24.405 35.9574 24.725C35.8374 25.045 35.6624 25.32 35.4324 25.55C35.2024 25.77 34.9274 25.94 34.6074 26.06C34.2974 26.18 33.9474 26.24 33.5574 26.24C33.4074 26.24 33.2674 26.23 33.1374 26.21C33.0074 26.19 32.8674 26.165 32.7174 26.135C31.8074 26.375 31.3524 26.775 31.3524 27.335C31.3524 27.445 31.3674 27.55 31.3974 27.65C31.4374 27.75 31.5074 27.84 31.6074 27.92C31.7074 27.99 31.8424 28.05 32.0124 28.1C32.1824 28.15 32.3974 28.175 32.6574 28.175H34.6824C35.5524 28.175 36.1774 28.335 36.5574 28.655C36.9374 28.975 37.1274 29.405 37.1274 29.945ZM36.7974 29.96C36.7974 29.49 36.6374 29.125 36.3174 28.865C36.0074 28.605 35.4474 28.475 34.6374 28.475H32.3124C31.8324 28.595 31.4424 28.795 31.1424 29.075C30.8424 29.355 30.6924 29.74 30.6924 30.23C30.6924 30.76 30.9124 31.17 31.3524 31.46C31.8024 31.75 32.4074 31.895 33.1674 31.895H33.9024C34.3324 31.895 34.7224 31.855 35.0724 31.775C35.4324 31.705 35.7374 31.59 35.9874 31.43C36.2474 31.27 36.4474 31.065 36.5874 30.815C36.7274 30.575 36.7974 30.29 36.7974 29.96ZM33.5574 25.955C34.2774 25.955 34.8274 25.765 35.2074 25.385C35.5974 24.995 35.7924 24.515 35.7924 23.945V23.375C35.7924 22.805 35.5974 22.33 35.2074 21.95C34.8274 21.56 34.2774 21.365 33.5574 21.365C32.8374 21.365 32.2824 21.56 31.8924 21.95C31.5124 22.33 31.3224 22.805 31.3224 23.375V23.945C31.3224 24.515 31.5174 24.995 31.9074 25.385C32.3074 25.765 32.8574 25.955 33.5574 25.955Z" fill="white"/>
</svg>
