<svg width="105" height="105" viewBox="0 0 105 105" fill="none" xmlns="http://www.w3.org/2000/svg">
<path fill-rule="evenodd" clip-rule="evenodd" d="M52.5 1.29395C23.502 1.29395 0 24.7959 0 53.7939C0 76.9801 15.0445 96.6573 35.901 103.618C38.5178 104.106 39.496 102.467 39.496 101.087C39.496 99.8217 39.4386 95.7078 39.4386 91.3068C24.8247 94.4712 21.7465 85.1217 21.7465 85.1217C19.3594 79.0514 15.9059 77.4415 15.9059 77.4415C11.1296 74.191 16.2504 74.2484 16.2504 74.2484C21.5147 74.6217 24.3059 79.6563 24.3059 79.6563C28.9939 87.6831 36.59 85.3514 39.5821 84.0286C40.0415 80.6346 41.4237 78.3336 42.9188 77.0088C31.2683 75.686 18.9841 71.1682 18.9841 51.0603C18.9841 45.3365 21.0267 40.6464 24.392 36.9652C23.8444 35.6425 22.0623 30.292 24.9088 23.0712C24.9088 23.0712 29.3098 21.6623 39.3504 28.4504C43.5504 27.2999 48.0375 26.6949 52.498 26.6949C56.9563 26.7236 61.4455 27.2999 65.6455 28.4504C75.6574 21.6623 80.0584 23.0712 80.0584 23.0712C82.9069 30.292 81.1227 35.6425 80.5752 36.9652C83.9405 40.6484 85.9831 45.3365 85.9831 51.0603C85.9831 71.2256 73.6989 75.6553 62.0197 76.9514C63.89 78.592 65.586 81.7851 65.586 86.6741C65.586 93.6939 65.5286 99.3603 65.5286 101.087C65.5286 102.496 66.4781 104.108 69.1236 103.618C89.9842 96.6573 105 77.0088 105 53.7939C105 24.7959 81.498 1.29395 52.5 1.29395Z" fill="#D7D7D7"/>
<path d="M19.8784 76.6642C19.7635 76.9226 19.3616 77.0088 18.9863 76.8365C18.6131 76.6642 18.3813 76.3197 18.5269 76.0593C18.6418 75.8009 19.0437 75.7147 19.419 75.887C19.7923 76.0593 20.0219 76.4058 19.8784 76.6642Z" fill="#D7D7D7"/>
<path d="M22.0072 79.0511C21.7488 79.2808 21.2586 79.166 20.9428 78.8215C20.5983 78.4482 20.5409 77.9581 20.7993 77.7284C21.0577 77.4987 21.5191 77.6135 21.8636 77.9581C22.2081 78.3313 22.2656 78.8215 22.0072 79.0511Z" fill="#D7D7D7"/>
<path d="M24.0782 82.0721C23.7624 82.3018 23.2435 82.1008 22.899 81.6127C22.5832 81.1533 22.5832 80.5771 22.899 80.3474C23.2148 80.1177 23.7336 80.3187 24.0782 80.7781C24.4227 81.2661 24.4227 81.8424 24.0782 82.0721Z" fill="#D7D7D7"/>
<path d="M26.9269 84.978C26.6398 85.2938 26.0348 85.2077 25.5754 84.7771C25.116 84.3464 24.9991 83.7414 25.2883 83.4256C25.5775 83.1098 26.2091 83.1959 26.6398 83.6266C27.0991 84.0859 27.214 84.6889 26.9269 84.978Z" fill="#D7D7D7"/>
<path d="M30.8377 86.674C30.7229 87.076 30.1179 87.279 29.5149 87.1047C28.91 86.9324 28.5367 86.4423 28.6516 86.0403C28.7664 85.6384 29.3714 85.4354 29.9743 85.6097C30.5506 85.7819 30.9525 86.2721 30.8377 86.674Z" fill="#D7D7D7"/>
<path d="M35.1238 86.9921C35.1525 87.4228 34.6357 87.798 34.0021 87.798C33.3684 87.8268 32.8803 87.4535 32.8516 87.0208C32.8516 86.5901 33.3396 86.2148 33.9733 86.2148C34.607 86.2148 35.1238 86.5594 35.1238 86.9921Z" fill="#D7D7D7"/>
<path d="M39.1227 86.3295C39.2088 86.7601 38.7782 87.1929 38.1445 87.3077C37.5395 87.4226 36.9653 87.1642 36.9079 86.7314C36.8217 86.3008 37.2811 85.8681 37.8861 85.7532C38.4911 85.6384 39.0366 85.8988 39.1227 86.3295Z" fill="#D7D7D7"/>
</svg>
