<svg width="225" height="225" viewBox="0 0 225 225" fill="none" xmlns="http://www.w3.org/2000/svg">
<path d="M47.3115 206.938L32.814 44.187H192.186L177.688 206.877L112.377 225L47.3115 206.938Z" fill="#6F6F6F"/>
<path d="M112.5 211.188L165.252 196.563L177.688 57.498H112.5V211.188Z" fill="#989898"/>
<path d="M112.5 117.875H86.0625L84.252 97.4355H112.5V77.502H112.438H62.4375L62.9385 82.8105L67.812 137.813H112.5V117.875Z" fill="#B6B6B6"/>
<path d="M112.5 169.686L112.438 169.752L90.189 163.688L88.752 147.814H77.937H68.748L71.499 179.125L112.438 190.499L112.5 190.437V169.686Z" fill="#B6B6B6"/>
<path d="M47.6235 0H57.7485V10.002H66.999V0H77.124V30.3135H66.999V20.127H57.7485V30.3135H47.6235V0Z" fill="#D4D4D4"/>
<path d="M90.501 10.0635H81.5625V0H109.564V10.0635H100.626V30.3135H90.501V10.0635Z" fill="#D4D4D4"/>
<path d="M114.064 0H124.629L131.128 10.6875L137.624 0H148.188V30.3135H138.125V15.3105L131.124 26.1211H130.935L123.935 15.3105V30.375H113.999V0H114.064Z" fill="#D4D4D4"/>
<path d="M153.25 0H163.375V20.3115H177.627V30.3135H153.25V0Z" fill="#D4D4D4"/>
<path d="M112.438 117.875V137.812H137L134.688 163.688L112.438 169.686V190.499L153.312 179.125L153.624 175.75L158.313 123.249L158.814 117.875H153.439H112.438Z" fill="#D7D7D7"/>
<path d="M112.438 77.502V89.877V97.374V97.4355H160.563H160.625L161.064 92.9355L161.938 82.8105L162.439 77.502H112.438Z" fill="#D7D7D7"/>
</svg>
