<svg width="176" height="233" viewBox="0 0 176 233" fill="none" xmlns="http://www.w3.org/2000/svg">
<g clip-path="url(#clip0_38_118)">
<path d="M22.3137 214.04L9 52.3023L168 52.6274L153.922 214.04L89.1001 232.698L22.3137 214.04Z" fill="#6E6E6E"/>
<path d="M89.1001 217.078V67.7058L154.577 67.9224L142.901 201.565L89.1001 217.078Z" fill="#989898"/>
<path d="M82.0886 85.4417H64.7781V184.86L51.3144 182.311V168.927L35.2861 166.378V196.331L82.0886 208.44V85.4417ZM95.074 85.4417H142.996L139.79 104.497H113.368V135.766H139.79L136.585 198.88L95.074 208.44V188.684L123.121 179.124L124.74 152.995L95.074 157.265V85.4417Z" fill="#D7D7D7"/>
</g>
<path d="M12.5891 28.138C12.5891 26.818 12.1373 25.8661 11.2339 25.3051C10.3443 24.7441 9.04412 24.4633 7.33252 24.4633V19.5499C8.18099 19.5499 8.93412 19.4891 9.59119 19.3651C10.2622 19.2287 10.8232 19.0161 11.2749 18.7286C11.7267 18.4353 12.0618 18.0444 12.2811 17.5787C12.5135 17.1131 12.6162 16.5521 12.5891 15.8957V9.36686C12.5891 8.35486 12.7189 7.49172 12.9792 6.78039C13.2395 6.04706 13.7125 5.46626 14.3755 5.01452C15.0597 4.54959 15.9837 4.20786 17.1475 3.98786C18.3113 3.76786 19.7882 3.66666 21.5819 3.66666V8.28666C21.0794 8.29741 20.5784 8.34546 20.083 8.43039C19.6452 8.51326 19.2763 8.66286 18.9537 8.88212C18.6603 9.08746 18.4198 9.37492 18.2555 9.74452C18.0913 10.1141 18.0091 10.593 18.0091 11.1819V17.3199C17.927 19.8865 16.3254 21.3987 13.2058 21.8775V22.1239C14.7795 22.3564 15.9925 22.8573 16.8189 23.6023C17.6454 24.3474 18.0509 25.3748 18.0099 26.6603V32.7983C18.0099 33.3872 18.092 33.8661 18.2563 34.2357C18.4205 34.6053 18.6523 34.8927 18.9544 35.0981C19.2697 35.3181 19.6459 35.4677 20.0837 35.5498C20.5355 35.6327 21.0349 35.6796 21.5827 35.6935V40.3333C19.7897 40.3333 18.312 40.2233 17.1482 40.0048C15.9844 39.7863 15.0611 39.4438 14.3762 38.9781C13.7052 38.5264 13.2395 37.9368 12.9799 37.2123C12.7203 36.4877 12.5898 35.618 12.5898 34.6053V28.1373M165.886 34.6053C165.886 35.6173 165.756 36.487 165.496 37.2123C165.235 37.9375 164.762 38.5264 164.079 38.9781C163.408 39.4431 162.491 39.7848 161.329 40.0048C160.167 40.2248 158.693 40.3333 156.893 40.3333V35.6935C157.441 35.6774 157.933 35.6312 158.371 35.5498C158.81 35.4684 159.178 35.3173 159.48 35.0981C159.795 34.8927 160.035 34.6053 160.199 34.2357C160.377 33.8661 160.466 33.3872 160.466 32.7983V26.6603C160.425 25.3741 160.821 24.354 161.657 23.6023C162.492 22.8507 163.689 22.3571 165.25 22.1239V21.8775C162.143 21.3987 160.557 19.8792 160.466 17.3199V11.1819C160.466 10.5937 160.378 10.1141 160.2 9.74452C160.05 9.39262 159.8 9.09263 159.481 8.88212C159.188 8.66359 158.81 8.51252 158.372 8.43039C157.884 8.34341 157.389 8.29535 156.894 8.28666V3.66666C158.687 3.66666 160.164 3.77666 161.328 3.99519C162.492 4.21372 163.409 4.55619 164.078 5.02186C164.762 5.47359 165.235 6.06172 165.495 6.78772C165.755 7.49906 165.885 8.36146 165.885 9.37419V15.9031C165.87 16.5601 165.973 17.1204 166.193 17.5861C166.413 18.0517 166.747 18.4345 167.199 18.7359C167.651 19.0234 168.205 19.2346 168.862 19.3725C169.533 19.4957 170.292 19.5573 171.142 19.5573V24.4706C169.431 24.4706 168.124 24.7507 167.22 25.3125C166.331 25.8735 165.886 26.818 165.886 28.1453V34.6133" fill="#D4D4D4"/>
<path d="M30.3637 35.8769C29.8973 35.8769 29.4837 35.8453 29.142 35.7801C28.7944 35.7251 28.4923 35.6481 28.2363 35.5469V33.352C28.5656 33.4382 28.9003 33.5024 29.2381 33.5441C29.6197 33.6011 30.005 33.6288 30.3909 33.627C30.734 33.6268 31.0756 33.5806 31.4065 33.4899C31.7499 33.4097 32.0697 33.2499 32.3401 33.0235C32.6239 32.7947 32.8534 32.4793 33.0265 32.0701C33.1995 31.6609 33.2875 31.1549 33.2875 30.5331V10.4691H35.8542V30.2647C35.8542 31.218 35.7171 32.0577 35.4435 32.7624C35.1781 33.4664 34.8033 34.0479 34.3179 34.5055C33.8412 34.9719 33.2655 35.3151 32.5887 35.5351C31.9287 35.7639 31.0091 35.8783 30.1943 35.8783M48.6105 28.4533H48.5005C48.1984 28.864 47.897 29.2219 47.5949 29.524C47.3009 29.8111 46.9684 30.0559 46.6071 30.2515C46.2499 30.4436 45.8517 30.5851 45.4132 30.6768C44.9747 30.7685 44.4599 30.8139 43.8901 30.8139C43.2594 30.8139 42.6779 30.7215 42.1469 30.5397C41.6312 30.3746 41.158 30.0982 40.7609 29.7301C40.3767 29.3634 40.0745 28.8882 39.8553 28.3367C39.6353 27.7699 39.5253 27.1018 39.5253 26.3333C39.5253 24.8329 40.0511 23.6801 41.1034 22.8749C42.1645 22.0697 43.7749 21.6304 45.9339 21.5571L48.4587 21.4603V20.5069C48.4587 19.8939 48.3898 19.3813 48.2534 18.9699C48.1251 18.5592 47.9329 18.2365 47.677 17.9821C47.4299 17.7254 47.1197 17.5421 46.7435 17.4321C46.3768 17.3221 45.9566 17.2678 45.4807 17.2678C44.7584 17.2617 44.0399 17.3729 43.3533 17.5971C42.7035 17.8171 42.0773 18.0811 41.473 18.3927L40.5945 16.5125C41.2713 16.1458 42.0259 15.8356 42.859 15.5789C43.7085 15.3203 44.592 15.1908 45.4799 15.1947C46.4135 15.1947 47.2179 15.2915 47.8955 15.4829C48.5819 15.6662 49.1444 15.9632 49.5837 16.3746C50.0237 16.7779 50.3661 17.2942 50.5854 17.9256C50.8047 18.557 50.9154 19.3211 50.9154 20.2173V30.5375H49.1129L48.6105 28.4533ZM44.5347 28.7892C45.092 28.7892 45.6097 28.7012 46.0857 28.5281C46.5616 28.3551 46.9657 28.0933 47.3206 27.7457C47.6682 27.3885 47.9381 26.9449 48.1302 26.4147C48.3311 25.8749 48.4323 25.2435 48.4323 24.5205V23.1616L46.4699 23.2584C45.6464 23.2951 44.9556 23.3867 44.3975 23.5327C43.8395 23.6786 43.3914 23.8847 43.0526 24.1501C42.7323 24.3942 42.4855 24.7218 42.3391 25.0969C42.1924 25.4635 42.1191 25.8793 42.1191 26.3457C42.1191 27.1876 42.3391 27.8124 42.7776 28.1981C43.2176 28.5919 43.8043 28.7885 44.5339 28.7885M53.0113 15.4711H55.5911L58.3221 23.8553L58.6792 25.0287L59.0899 26.4836L59.4602 27.8769L59.6934 28.8787H59.7887L60.0219 27.8769L60.3923 26.4836L60.8029 25.0287L61.1601 23.8553L63.891 15.4704H66.4709L61.3243 30.5389H58.1534L53.0113 15.4711ZM76.6774 28.4533H76.5674C76.2653 28.864 75.9639 29.2219 75.6617 29.524C75.3677 29.8111 75.0353 30.0559 74.6739 30.2515C74.3168 30.4436 73.9186 30.5851 73.4801 30.6768C73.0415 30.7685 72.5267 30.8139 71.9569 30.8139C71.3263 30.8139 70.7447 30.7215 70.2138 30.5397C69.6981 30.3746 69.2249 30.0982 68.8278 29.7301C68.4435 29.3634 68.1414 28.8882 67.9221 28.3367C67.7021 27.7699 67.5921 27.1018 67.5921 26.3333C67.5921 24.8329 68.1179 23.6801 69.1703 22.8749C70.2314 22.0697 71.8418 21.6304 74.0007 21.5571L76.5256 21.4603V20.5069C76.5256 19.8939 76.4567 19.3813 76.3203 18.9699C76.1919 18.5592 75.9998 18.2365 75.7439 17.9821C75.4967 17.7254 75.1865 17.5421 74.8103 17.4321C74.4437 17.3221 74.0235 17.2678 73.5475 17.2678C72.8252 17.2617 72.1068 17.3729 71.4201 17.5971C70.7704 17.8171 70.1441 18.0811 69.5399 18.3927L68.6613 16.5125C69.3382 16.1458 70.0928 15.8356 70.9259 15.5789C71.7753 15.3203 72.6588 15.1908 73.5468 15.1947C74.4803 15.1947 75.2848 15.2915 75.9624 15.4829C76.6488 15.6662 77.2113 15.9632 77.6505 16.3746C78.0905 16.7779 78.433 17.2942 78.6523 17.9256C78.8715 18.557 78.9823 19.3211 78.9823 20.2173V30.5375H77.1856L76.6774 28.4533ZM72.6015 28.7958C73.1589 28.7958 73.6766 28.7078 74.1525 28.5347C74.6285 28.3617 75.0325 28.0999 75.3875 27.7523C75.7351 27.3951 76.0049 26.9515 76.1971 26.4213C76.398 25.8815 76.4992 25.2501 76.4992 24.5271V23.1682L74.5368 23.265C73.7133 23.3017 73.0225 23.3933 72.4644 23.5393C71.9063 23.6852 71.4583 23.8913 71.1195 24.1567C70.7992 24.4008 70.5523 24.7284 70.4059 25.1035C70.2593 25.4701 70.1859 25.8859 70.1859 26.3523C70.1859 27.1942 70.4059 27.819 70.8445 28.2047C71.2845 28.5985 71.8711 28.7951 72.6008 28.7951M94.3764 25.1724C94.3764 26.0524 94.2165 26.8554 93.8961 27.5601C93.5851 28.2553 93.1363 28.8457 92.5511 29.3304C91.9659 29.8151 91.2517 30.1862 90.4098 30.4421C89.5679 30.6893 88.6205 30.8125 87.5689 30.8125C86.5532 30.8125 85.6021 30.7296 84.7147 30.5653C83.8362 30.4091 83.0999 30.1767 82.5052 29.865V27.423L83.5612 27.863L84.824 28.2333L86.1829 28.5076C86.6446 28.5715 87.1101 28.6039 87.5762 28.6044C89.0399 28.6044 90.1194 28.3301 90.8146 27.7809C91.5186 27.2309 91.8706 26.4447 91.8706 25.4195C91.8706 24.9253 91.8017 24.4955 91.6653 24.1289C91.5369 23.7622 91.3037 23.4293 90.9657 23.1271C90.6357 22.8162 90.1927 22.5185 89.6347 22.2354C89.0773 21.9421 88.3719 21.6267 87.5212 21.2821C86.7145 20.9616 85.9981 20.6221 85.3945 20.2393C84.8079 19.855 84.3055 19.4326 83.9132 18.9486C83.5265 18.4674 83.233 17.9183 83.0479 17.3294C82.8645 16.7259 82.7736 16.0387 82.7736 15.2709C82.7736 14.4657 82.9203 13.7478 83.2136 13.1164C83.5069 12.485 83.9176 11.9541 84.4485 11.5251C84.9795 11.0851 85.6101 10.7521 86.342 10.5233C87.0739 10.2945 87.8967 10.1801 88.784 10.1801C89.873 10.1801 90.852 10.285 91.721 10.4955C92.59 10.6964 93.3637 10.9575 94.0405 11.2779L93.1209 13.4193C92.5343 13.1538 91.8493 12.925 91.0896 12.7329C90.3289 12.5303 89.5448 12.4287 88.7576 12.4307C87.6415 12.4307 86.7776 12.6918 86.1638 13.2132C85.5507 13.7265 85.2442 14.421 85.2442 15.2988C85.2442 15.8121 85.3131 16.2741 85.4495 16.6577C85.5867 17.0331 85.8162 17.3763 86.1359 17.6873C86.4564 17.9894 86.8693 18.2776 87.3987 18.5526C88.0347 18.8662 88.6849 19.1501 89.3472 19.4033C90.1795 19.7333 90.907 20.0633 91.5289 20.4189C92.1595 20.7665 92.6861 21.1523 93.107 21.5923C93.5257 22.0281 93.8482 22.547 94.0537 23.1154C94.2737 23.6918 94.3896 24.3987 94.3896 25.1863M103.676 30.7978C102.752 30.7978 101.886 30.6555 101.082 30.3725C100.285 30.0848 99.5659 29.615 98.9825 29.0004C98.3958 28.3697 97.9213 27.5689 97.5891 26.5987C97.2503 25.6197 97.0817 24.4442 97.0817 23.0787C97.0817 21.6414 97.2555 20.4255 97.595 19.4282C97.9426 18.4221 98.4185 17.6073 99.0221 16.9862C99.6351 16.3555 100.342 15.8972 101.163 15.6149C101.985 15.3325 102.852 15.1895 103.784 15.1895C104.486 15.1884 105.186 15.2666 105.87 15.4227C106.556 15.5789 107.128 15.7703 107.586 15.9991L106.853 18.1126C106.624 18.0138 106.39 17.9267 106.153 17.8515C105.893 17.7576 105.627 17.6797 105.357 17.6183C105.091 17.5467 104.821 17.4916 104.548 17.4533C104.282 17.4079 104.031 17.3844 103.792 17.3844C102.355 17.3844 101.309 17.8464 100.65 18.7777C99.9915 19.6922 99.6623 21.12 99.6623 23.0589C99.6623 24.9898 99.9923 26.4029 100.65 27.2998C101.31 28.1798 102.337 28.6308 103.683 28.6308C104.416 28.6308 105.091 28.5479 105.687 28.3837C106.29 28.2099 106.839 28.017 107.334 27.7801V30.0036C106.831 30.2721 106.296 30.4749 105.742 30.6071C105.184 30.7443 104.46 30.8125 103.646 30.8125M117.284 15.1954L118.176 15.2357C118.461 15.2488 118.746 15.2812 119.027 15.3325L118.697 17.6381L117.901 17.5281C117.636 17.4915 117.384 17.4731 117.146 17.4731C116.569 17.4731 116.043 17.5919 115.568 17.8303C115.091 18.0591 114.688 18.3927 114.333 18.832C113.994 19.2617 113.729 19.7839 113.537 20.3962C113.354 20.9997 113.263 21.6722 113.263 22.4129V30.5367H110.765V15.4719H112.796L113.098 18.2292H113.208L113.936 17.0903C114.188 16.737 114.483 16.4167 114.814 16.137C115.141 15.8548 115.512 15.6277 115.912 15.4645C116.316 15.2907 116.814 15.2035 117.328 15.2035" fill="#D4D4D4"/>
<path d="M30.3637 35.8769C29.8973 35.8769 29.4837 35.8453 29.142 35.7801C28.7944 35.7251 28.4923 35.6481 28.2363 35.5469V33.352C28.5656 33.4382 28.9003 33.5024 29.2381 33.5441C29.6197 33.6011 30.005 33.6288 30.3909 33.627C30.734 33.6268 31.0756 33.5806 31.4065 33.4899C31.7499 33.4097 32.0697 33.2499 32.3401 33.0235C32.6239 32.7947 32.8534 32.4793 33.0265 32.0701C33.1995 31.6609 33.2875 31.1549 33.2875 30.5331V10.4691H35.8542V30.2647C35.8542 31.218 35.7171 32.0577 35.4435 32.7624C35.1781 33.4664 34.8033 34.0479 34.3179 34.5055C33.8412 34.9719 33.2655 35.3151 32.5887 35.5351C31.9287 35.7639 31.0091 35.8783 30.1943 35.8783M44.5347 28.7892C45.092 28.7892 45.6097 28.7012 46.0857 28.5281C46.5616 28.3551 46.9657 28.0933 47.3206 27.7457C47.6682 27.3885 47.9381 26.9449 48.1302 26.4147C48.3311 25.8749 48.4323 25.2435 48.4323 24.5205V23.1616L46.4699 23.2584C45.6464 23.2951 44.9556 23.3867 44.3975 23.5327C43.8395 23.6786 43.3914 23.8847 43.0526 24.1501C42.7323 24.3942 42.4855 24.7218 42.3391 25.0969C42.1924 25.4635 42.1191 25.8793 42.1191 26.3457C42.1191 27.1876 42.3391 27.8124 42.7776 28.1981C43.2176 28.5919 43.8043 28.7885 44.5339 28.7885M72.6015 28.7958C73.1589 28.7958 73.6766 28.7078 74.1525 28.5347C74.6285 28.3617 75.0325 28.0999 75.3875 27.7523C75.7351 27.3951 76.0049 26.9515 76.1971 26.4213C76.398 25.8815 76.4992 25.2501 76.4992 24.5271V23.1682L74.5368 23.265C73.7133 23.3017 73.0225 23.3933 72.4644 23.5393C71.9063 23.6852 71.4583 23.8913 71.1195 24.1567C70.7992 24.4008 70.5523 24.7284 70.4059 25.1035C70.2593 25.4701 70.1859 25.8859 70.1859 26.3523C70.1859 27.1942 70.4059 27.819 70.8445 28.2047C71.2845 28.5985 71.8711 28.7951 72.6008 28.7951M94.3764 25.1724C94.3764 26.0524 94.2165 26.8554 93.8961 27.5601C93.5851 28.2553 93.1363 28.8457 92.5511 29.3304C91.9659 29.8151 91.2517 30.1862 90.4098 30.4421C89.5679 30.6893 88.6205 30.8125 87.5689 30.8125C86.5532 30.8125 85.6021 30.7296 84.7147 30.5653C83.8362 30.4091 83.0999 30.1767 82.5052 29.865V27.423L83.5612 27.863L84.824 28.2333L86.1829 28.5076C86.6446 28.5715 87.1101 28.6039 87.5762 28.6044C89.0399 28.6044 90.1194 28.3301 90.8146 27.7809C91.5186 27.2309 91.8706 26.4447 91.8706 25.4195C91.8706 24.9253 91.8017 24.4955 91.6653 24.1289C91.5369 23.7622 91.3037 23.4293 90.9657 23.1271C90.6357 22.8162 90.1927 22.5185 89.6347 22.2354C89.0773 21.9421 88.3719 21.6267 87.5212 21.2821C86.7145 20.9616 85.9981 20.6221 85.3945 20.2393C84.8079 19.855 84.3055 19.4326 83.9132 18.9486C83.5265 18.4674 83.233 17.9183 83.0479 17.3294C82.8645 16.7259 82.7736 16.0387 82.7736 15.2709C82.7736 14.4657 82.9203 13.7478 83.2136 13.1164C83.5069 12.485 83.9176 11.9541 84.4485 11.5251C84.9795 11.0851 85.6101 10.7521 86.342 10.5233C87.0739 10.2945 87.8967 10.1801 88.784 10.1801C89.873 10.1801 90.852 10.285 91.721 10.4955C92.59 10.6964 93.3637 10.9575 94.0405 11.2779L93.1209 13.4193C92.5343 13.1538 91.8493 12.925 91.0896 12.7329C90.3289 12.5303 89.5448 12.4287 88.7576 12.4307C87.6415 12.4307 86.7776 12.6918 86.1638 13.2132C85.5507 13.7265 85.2442 14.421 85.2442 15.2988C85.2442 15.8121 85.3131 16.2741 85.4495 16.6577C85.5867 17.0331 85.8162 17.3763 86.1359 17.6873C86.4564 17.9894 86.8693 18.2776 87.3987 18.5526C88.0347 18.8662 88.6849 19.1501 89.3472 19.4033C90.1795 19.7333 90.907 20.0633 91.5289 20.4189C92.1595 20.7665 92.6861 21.1523 93.107 21.5923C93.5256 22.0281 93.8482 22.547 94.0537 23.1154C94.2737 23.6918 94.3896 24.3987 94.3896 25.1863M103.676 30.7978C102.752 30.7978 101.886 30.6555 101.082 30.3725C100.285 30.0848 99.5659 29.615 98.9825 29.0004C98.3958 28.3697 97.9213 27.5689 97.5891 26.5987C97.2503 25.6197 97.0817 24.4442 97.0817 23.0787C97.0817 21.6414 97.2555 20.4255 97.595 19.4282C97.9426 18.4221 98.4185 17.6073 99.0221 16.9862C99.6351 16.3555 100.342 15.8972 101.163 15.6149C101.985 15.3325 102.852 15.1895 103.784 15.1895C104.486 15.1884 105.186 15.2666 105.87 15.4227C106.556 15.5789 107.128 15.7703 107.586 15.9991L106.853 18.1126C106.624 18.0138 106.39 17.9267 106.153 17.8515C105.893 17.7576 105.627 17.6797 105.357 17.6183C105.091 17.5467 104.821 17.4916 104.548 17.4533C104.282 17.4079 104.031 17.3844 103.792 17.3844C102.355 17.3844 101.309 17.8464 100.65 18.7777C99.9915 19.6922 99.6623 21.12 99.6623 23.0589C99.6623 24.9898 99.9923 26.4029 100.65 27.2998C101.31 28.1798 102.337 28.6308 103.683 28.6308C104.416 28.6308 105.091 28.5479 105.687 28.3837C106.29 28.2099 106.839 28.017 107.334 27.7801V30.0036C106.831 30.2721 106.296 30.4749 105.742 30.6071C105.184 30.7443 104.46 30.8125 103.646 30.8125M117.284 15.1954L118.176 15.2357C118.461 15.2488 118.746 15.2812 119.027 15.3325L118.697 17.6381L117.901 17.5281C117.636 17.4915 117.384 17.4731 117.146 17.4731C116.569 17.4731 116.043 17.5919 115.568 17.8303C115.091 18.0591 114.688 18.3927 114.333 18.832C113.994 19.2617 113.729 19.7839 113.537 20.3962C113.354 20.9997 113.263 21.6722 113.263 22.4129V30.5367H110.765V15.4719H112.796L113.098 18.2292H113.208L113.936 17.0903C114.188 16.737 114.483 16.4167 114.814 16.137C115.141 15.8548 115.512 15.6277 115.912 15.4645C116.316 15.2907 116.814 15.2035 117.328 15.2035M48.6105 28.4533H48.5005C48.1984 28.864 47.897 29.2219 47.5949 29.524C47.3009 29.8111 46.9684 30.0559 46.6071 30.2515C46.2499 30.4436 45.8517 30.5851 45.4132 30.6768C44.9747 30.7685 44.4599 30.8139 43.8901 30.8139C43.2594 30.8139 42.6779 30.7215 42.1469 30.5397C41.6312 30.3746 41.158 30.0982 40.7609 29.7301C40.3767 29.3634 40.0745 28.8882 39.8553 28.3367C39.6353 27.7699 39.5253 27.1018 39.5253 26.3333C39.5253 24.8329 40.0511 23.6801 41.1034 22.8749C42.1645 22.0697 43.7749 21.6304 45.9339 21.5571L48.4587 21.4603V20.5069C48.4587 19.8939 48.3898 19.3813 48.2534 18.9699C48.1251 18.5592 47.9329 18.2365 47.677 17.9821C47.4299 17.7254 47.1197 17.5421 46.7435 17.4321C46.3768 17.3221 45.9566 17.2678 45.4807 17.2678C44.7584 17.2617 44.0399 17.3729 43.3533 17.5971C42.7035 17.8171 42.0773 18.0811 41.473 18.3927L40.5945 16.5125C41.2713 16.1458 42.0259 15.8356 42.859 15.5789C43.7085 15.3203 44.592 15.1908 45.4799 15.1947C46.4135 15.1947 47.2179 15.2915 47.8955 15.4829C48.5819 15.6662 49.1444 15.9632 49.5837 16.3746C50.0237 16.7779 50.3661 17.2942 50.5854 17.9256C50.8047 18.557 50.9154 19.3211 50.9154 20.2173V30.5375H49.1129L48.6105 28.4533ZM53.0113 15.4711H55.5911L58.3221 23.8553L58.6792 25.0287L59.0899 26.4836L59.4602 27.8769L59.6934 28.8787H59.7887L60.0219 27.8769L60.3923 26.4836L60.8029 25.0287L61.1601 23.8553L63.891 15.4704H66.4709L61.3243 30.5389H58.1534L53.0113 15.4711ZM76.6774 28.4533H76.5674C76.2653 28.864 75.9639 29.2219 75.6617 29.524C75.3677 29.8111 75.0353 30.0559 74.6739 30.2515C74.3168 30.4436 73.9186 30.5851 73.4801 30.6768C73.0415 30.7685 72.5267 30.8139 71.9569 30.8139C71.3263 30.8139 70.7447 30.7215 70.2138 30.5397C69.6981 30.3746 69.2249 30.0982 68.8278 29.7301C68.4435 29.3634 68.1414 28.8882 67.9221 28.3367C67.7021 27.7699 67.5921 27.1018 67.5921 26.3333C67.5921 24.8329 68.1179 23.6801 69.1703 22.8749C70.2314 22.0697 71.8418 21.6304 74.0007 21.5571L76.5256 21.4603V20.5069C76.5256 19.8939 76.4567 19.3813 76.3203 18.9699C76.1919 18.5592 75.9998 18.2365 75.7439 17.9821C75.4967 17.7254 75.1865 17.5421 74.8103 17.4321C74.4437 17.3221 74.0235 17.2678 73.5475 17.2678C72.8252 17.2617 72.1068 17.3729 71.4201 17.5971C70.7704 17.8171 70.1441 18.0811 69.5399 18.3927L68.6613 16.5125C69.3382 16.1458 70.0928 15.8356 70.9259 15.5789C71.7753 15.3203 72.6588 15.1908 73.5468 15.1947C74.4803 15.1947 75.2848 15.2915 75.9624 15.4829C76.6488 15.6662 77.2113 15.9632 77.6505 16.3746C78.0905 16.7779 78.433 17.2942 78.6523 17.9256C78.8715 18.557 78.9823 19.3211 78.9823 20.2173V30.5375H77.1856L76.6774 28.4533Z" stroke="#D4D4D4" stroke-width="2.129"/>
<path d="M124.305 30.5389H121.807V15.4704H124.305V30.5389M122.027 10.1933C122.311 9.9462 122.658 9.823 123.07 9.823C123.271 9.823 123.458 9.85453 123.632 9.9198C123.808 9.97067 123.969 10.065 124.099 10.1941C124.236 10.3224 124.341 10.4874 124.414 10.6883C124.496 10.8805 124.537 11.1137 124.537 11.3879C124.537 11.9189 124.39 12.3163 124.097 12.5818C123.813 12.8385 123.47 12.9661 123.067 12.9661C122.657 12.9661 122.297 12.7732 122.014 12.5173C121.739 12.2606 121.61 11.8631 121.61 11.3549C121.612 10.8379 121.75 10.4405 122.024 10.1933H122.027Z" fill="#D4D4D4"/>
<path d="M124.305 30.5389H121.807V15.4704H124.305V30.5389M122.027 10.1933C122.311 9.9462 122.658 9.823 123.07 9.823C123.271 9.823 123.458 9.85453 123.632 9.9198C123.808 9.97067 123.969 10.065 124.099 10.1941C124.236 10.3224 124.341 10.4874 124.414 10.6883C124.496 10.8805 124.537 11.1137 124.537 11.3879C124.537 11.9189 124.39 12.3163 124.097 12.5818C123.813 12.8385 123.47 12.9661 123.067 12.9661C122.657 12.9661 122.297 12.7732 122.014 12.5173C121.739 12.2606 121.61 11.8631 121.61 11.3549C121.612 10.8379 121.75 10.4405 122.024 10.1933H122.027Z" stroke="#D4D4D4" stroke-width="2.129" stroke-linecap="square"/>
<path d="M135.759 30.8132C135.219 30.8132 134.73 30.7545 134.291 30.635C133.853 30.5155 133.454 30.3607 133.097 30.1686C132.75 29.9677 132.439 29.7337 132.164 29.4683C131.904 29.2091 131.665 28.9293 131.45 28.6315H131.285L131.367 29.5233L131.422 30.2566L131.449 30.8469V37.2834H128.952V15.4704H130.983L131.34 17.5017H131.45C131.66 17.1828 131.898 16.8843 132.164 16.61C132.433 16.3235 132.743 16.0783 133.083 15.8825C133.44 15.6721 133.839 15.5071 134.277 15.3883C134.717 15.2599 135.211 15.1961 135.758 15.1961C136.619 15.1961 137.401 15.3611 138.105 15.6904C138.818 16.0271 139.436 16.5365 139.903 17.1725C140.406 17.8222 140.794 18.6391 141.076 19.6013C141.357 20.5634 141.487 21.6964 141.487 22.9775C141.487 24.2682 141.349 25.4019 141.076 26.3802C140.802 27.3497 140.412 28.1644 139.903 28.8222C139.408 29.4807 138.803 29.9794 138.106 30.3182C137.402 30.6482 136.446 30.8125 135.586 30.8125M135.278 17.2678C134.583 17.2678 133.993 17.3727 133.508 17.5831C133.037 17.7891 132.634 18.1217 132.341 18.5438C132.048 18.9735 131.828 19.5089 131.683 20.1571C131.545 20.7973 131.468 21.5519 131.449 22.4217V22.9841C131.449 23.9081 131.508 24.7317 131.628 25.454C131.756 26.1675 131.966 26.7718 132.258 27.2653C132.547 27.7381 132.96 28.1227 133.452 28.3771C133.946 28.6242 134.564 28.7474 135.305 28.7474C136.539 28.7474 137.446 28.2487 138.022 27.2514C138.607 26.2541 138.9 24.8226 138.9 22.9563C138.9 21.0533 138.607 19.6306 138.022 18.6883C137.445 17.7459 136.53 17.2751 135.277 17.2751M149.82 28.7687C149.985 28.7687 150.168 28.754 150.37 28.7408L150.974 28.6719L151.487 28.5751L151.857 28.4783V30.3725C151.739 30.4275 151.587 30.4825 151.404 30.5375C151.221 30.5925 151.02 30.6372 150.801 30.6746C150.574 30.7211 150.345 30.7534 150.114 30.7714C149.882 30.7986 149.648 30.812 149.415 30.8117C148.881 30.8162 148.349 30.7421 147.836 30.5917C147.359 30.4498 146.925 30.1903 146.574 29.8371C146.226 29.48 145.952 29.0011 145.75 28.3961C145.549 27.7831 145.448 27.0145 145.448 26.0905V17.3492H143.321V16.2375L145.448 15.1668L146.519 12.0105H147.96V15.4689H151.747V17.3492H147.96V26.0905C147.96 26.9705 148.101 27.6452 148.385 28.094C148.678 28.534 149.154 28.7665 149.812 28.7665" fill="#D4D4D4"/>
<path d="M135.759 30.8132C135.219 30.8132 134.73 30.7545 134.291 30.635C133.853 30.5155 133.454 30.3607 133.097 30.1686C132.75 29.9677 132.439 29.7337 132.164 29.4683C131.904 29.2091 131.665 28.9293 131.45 28.6315H131.285L131.367 29.5233L131.422 30.2566L131.449 30.8469V37.2834H128.952V15.4704H130.983L131.34 17.5017H131.45C131.66 17.1828 131.898 16.8843 132.164 16.61C132.433 16.3235 132.743 16.0783 133.083 15.8825C133.44 15.6721 133.839 15.5071 134.277 15.3883C134.717 15.2599 135.211 15.1961 135.758 15.1961C136.619 15.1961 137.401 15.3611 138.105 15.6904C138.818 16.0271 139.436 16.5365 139.903 17.1725C140.406 17.8222 140.794 18.6391 141.076 19.6013C141.357 20.5634 141.487 21.6964 141.487 22.9775C141.487 24.2682 141.349 25.4019 141.076 26.3802C140.802 27.3497 140.412 28.1644 139.903 28.8222C139.408 29.4807 138.803 29.9794 138.106 30.3182C137.402 30.6482 136.446 30.8125 135.586 30.8125M135.278 17.2678C134.583 17.2678 133.993 17.3727 133.508 17.5831C133.037 17.7891 132.634 18.1217 132.341 18.5438C132.048 18.9735 131.828 19.5089 131.683 20.1571C131.545 20.7973 131.468 21.5519 131.449 22.4217V22.9841C131.449 23.9081 131.508 24.7317 131.628 25.454C131.756 26.1675 131.966 26.7718 132.258 27.2653C132.547 27.7381 132.96 28.1227 133.452 28.3771C133.946 28.6242 134.564 28.7474 135.305 28.7474C136.539 28.7474 137.446 28.2487 138.022 27.2514C138.607 26.2541 138.9 24.8226 138.9 22.9563C138.9 21.0533 138.607 19.6306 138.022 18.6883C137.445 17.7459 136.53 17.2751 135.277 17.2751M149.82 28.7687C149.985 28.7687 150.168 28.754 150.37 28.7408L150.974 28.6719L151.487 28.5751L151.857 28.4783V30.3725C151.739 30.4275 151.587 30.4825 151.404 30.5375C151.221 30.5925 151.02 30.6372 150.801 30.6746C150.574 30.7211 150.345 30.7534 150.114 30.7714C149.882 30.7986 149.648 30.812 149.415 30.8117C148.881 30.8162 148.349 30.7421 147.836 30.5917C147.359 30.4498 146.925 30.1903 146.574 29.8371C146.226 29.48 145.952 29.0011 145.75 28.3961C145.549 27.7831 145.448 27.0145 145.448 26.0905V17.3492H143.321V16.2375L145.448 15.1668L146.519 12.0105H147.96V15.4689H151.747V17.3492H147.96V26.0905C147.96 26.9705 148.101 27.6452 148.385 28.094C148.678 28.534 149.154 28.7665 149.812 28.7665" stroke="#D4D4D4" stroke-width="2.129"/>
<defs>
<clipPath id="clip0_38_118">
<rect width="159" height="181" fill="white" transform="translate(9 52)"/>
</clipPath>
</defs>
</svg>
