<svg width="412" height="3213" viewBox="0 0 412 3213" fill="none" xmlns="http://www.w3.org/2000/svg">
<path d="M0 3205H307.639C432.451 3205 438.497 3016.74 311.238 3016.74H127.547C-4.03097 3016.74 1.00758 2823.03 131.146 2823.03H294.395C437.202 2823.03 438.469 2622.5 294.395 2622.5H131.146C87.2387 2622.5 33.9741 2609.67 33.9741 2530.36L30.3751 1.00012" stroke="#D4D4D4" stroke-width="16"/>
<path d="M0 3205H307.511C432.27 3205 438.314 3017.5 311.108 3017.5H131.091C-0.431854 3017.5 1.00714 2823.5 131.091 2823.5H295C437.747 2823.5 439.014 2622.5 295 2622.5H127.494C83.6048 2622.5 34.0044 2608.91 34.0044 2529.48L30.3624 1" stroke="black" stroke-width="4" stroke-dasharray="96 96"/>
</svg>
