<svg width="323" height="323" viewBox="0 0 323 323" fill="none" xmlns="http://www.w3.org/2000/svg">
<g clip-path="url(#clip0_95_51)">
<path d="M160.49 0.878174L169.11 17.0685C171.048 20.0563 173.148 22.7009 175.621 25.1637C182.838 32.3808 189.691 39.941 195.849 48.0362C210.454 67.2143 220.306 88.5121 227.341 111.546C231.56 125.617 233.852 140.051 234.023 154.646C234.73 198.282 219.771 235.75 189.611 266.889C184.685 271.815 179.416 276.377 173.763 280.435C170.776 280.435 169.363 278.143 168.131 276.034C165.84 272.168 164.437 267.757 163.73 263.366C162.67 258.087 161.974 252.808 162.317 247.357V244.895C162.075 244.37 159.44 2.11971 160.49 0.878174Z" fill="#599636"/>
<path d="M160.49 0.343227C160.137 -0.363335 159.784 0.171633 159.43 0.514821C159.602 4.04763 158.371 7.19688 156.443 10.2048C154.323 13.1926 151.517 15.4839 148.701 17.9467C133.055 31.4925 120.741 47.8545 110.879 66.1545C97.7576 90.7832 90.9948 117.178 89.077 144.966C88.1988 154.99 92.2464 190.358 95.4058 200.563C104.026 227.654 119.51 250.355 139.566 270.058C144.492 274.802 149.761 279.203 155.211 283.433C156.796 283.433 156.968 282.019 157.331 280.97C158.026 278.723 158.555 276.429 158.916 274.106L162.448 247.721L160.49 0.343227Z" fill="#6CAC48"/>
<path d="M169.111 291.154C169.464 287.117 171.402 283.766 173.512 280.425C171.392 279.546 169.818 277.8 168.586 275.852C167.526 274.096 166.648 271.986 165.962 270.048C163.499 262.66 162.974 254.908 162.267 247.357V242.785C161.389 243.491 161.208 249.467 161.208 250.355C160.694 258.335 159.635 266.27 158.038 274.106C157.513 277.275 157.16 280.435 155.212 283.251C155.212 283.604 155.212 283.957 155.384 284.482C158.553 293.809 159.421 303.307 159.956 312.987V316.52C159.956 320.739 159.784 319.851 163.287 321.264C164.7 321.789 166.275 321.97 167.688 323.02C168.748 323.02 168.919 322.142 168.919 321.435L168.394 315.632V299.441C168.223 296.615 168.748 293.809 169.101 291.164L169.111 291.154Z" fill="#C2BFBF"/>
</g>
<defs>
<clipPath id="clip0_95_51">
<rect width="323" height="323" fill="white"/>
</clipPath>
</defs>
</svg>
