<svg width="189" height="256" viewBox="0 0 189 256" fill="none" xmlns="http://www.w3.org/2000/svg">
<path d="M99.0638 255.415L94.0468 253.64C94.0468 253.64 94.6028 226.38 85.5086 224.394C79.3797 216.885 86.4353 -95.693 108.529 223.408C108.529 223.408 100.917 227.366 99.6198 234.269C98.1372 241.2 99.0638 255.415 99.0638 255.415Z" fill="white"/>
<path d="M99.0638 255.415L94.0468 253.64C94.0468 253.64 94.6028 226.38 85.5086 224.394C79.3797 216.885 86.4353 -95.693 108.529 223.408C108.529 223.408 100.917 227.366 99.6198 234.269C98.1372 241.2 99.0638 255.415 99.0638 255.415Z" fill="#6F6F6F"/>
<path d="M101.856 229.141C101.856 229.141 145.673 198.515 135.466 134.5C125.631 88.0671 102.227 72.8523 99.6326 66.9214C96.8527 62.7656 94.0596 55.4681 94.0596 55.4681L95.9128 184.695C95.9128 184.878 92.1931 224.408 101.856 229.141Z" fill="white"/>
<path d="M101.856 229.141C101.856 229.141 145.673 198.515 135.466 134.5C125.631 88.0671 102.227 72.8523 99.6326 66.9214C96.8527 62.7656 94.0596 55.4681 94.0596 55.4681L95.9128 184.695C95.9128 184.878 92.1931 224.408 101.856 229.141Z" fill="#9D9D9D"/>
<path d="M91.4521 230.916C91.4521 230.916 50.2306 201.079 52.653 148.32C55.0755 95.5617 84.0259 69.6826 89.7842 64.9351C93.5039 60.7792 93.5039 59.2014 93.8746 55.0596C96.4691 60.9905 95.9131 142.586 96.2838 152.265C97.3957 189.428 94.2452 223.802 91.4521 230.916Z" fill="#D4D4D4"/>
<path d="M91.4521 230.916C91.4521 230.916 50.2306 201.079 52.653 148.32C55.0755 95.5617 84.0259 69.6826 89.7842 64.9351C93.5039 60.7792 93.5039 59.2014 93.8746 55.0596C96.4691 60.9905 95.9131 142.586 96.2838 152.265C97.3957 189.428 94.2452 223.802 91.4521 230.916Z" fill="#D4D4D4"/>
<path d="M173.677 2.33941C173.494 2.40427 173.25 2.85825 173.25 3.11767C173.189 4.80853 173.189 9.35302 173.189 12.4753C173.189 12.5402 173.311 12.7347 173.433 12.7347C174.042 12.7996 175.509 12.7996 176.728 12.7996C178.439 12.7996 179.475 12.5402 180.023 12.2807C181.49 11.5025 182.16 9.81163 182.16 7.99106C182.16 3.83108 179.414 2.27456 175.383 2.27456C175.083 2.2097 174.286 2.2097 173.677 2.33941ZM184.054 21.5041C184.054 17.2792 181.124 14.9398 175.814 14.9398C175.57 14.9398 173.859 14.875 173.494 15.0047C173.372 15.0695 173.189 15.1344 173.189 15.2641C173.189 18.3169 173.128 23.1254 173.25 25.0109C173.311 25.854 173.92 26.9611 174.595 27.3503C175.326 27.8043 176.976 27.8691 178.073 27.8691C181.307 27.744 184.054 25.8586 184.054 21.5041ZM165.498 0C165.924 0 167.086 0.129709 170.199 0.129709C173.128 0.129709 175.448 0.0648547 178.317 0.0648547C181.795 0.0648547 186.618 1.36658 186.618 6.95338C186.618 9.68192 184.785 11.8916 182.465 12.9293C182.343 12.9942 182.343 13.059 182.465 13.1239C185.821 14.0318 188.816 16.2415 188.816 20.4664C188.816 24.5615 186.374 27.1603 182.896 28.7817C180.759 29.7545 178.134 30.0834 175.387 30.0834C173.311 30.0834 167.818 29.824 164.766 29.8889C164.462 29.7592 165.071 28.198 165.315 27.9386C166.046 27.8737 166.599 27.8737 167.391 27.6143C168.488 27.29 168.614 26.9658 168.736 25.2101C168.797 23.7138 168.797 18.3864 168.797 14.6202C168.797 9.42251 168.858 5.9157 168.797 4.22484C168.736 2.9231 168.309 2.46912 167.452 2.2097C166.782 2.07999 165.619 1.88542 164.705 1.75571C164.579 1.62137 165.249 0.194565 165.498 0ZM142.296 26.6369C143.272 27.48 145.165 27.8043 146.815 27.8043C149.013 27.8043 151.15 27.3503 153.227 25.3351C155.364 23.2551 156.826 20.1375 156.826 15.0695C156.826 10.261 155.116 6.3002 151.577 3.96079C149.561 2.65906 146.998 2.07536 144.007 2.07536C143.154 2.07536 142.296 2.14021 141.748 2.39963C141.626 2.46449 141.321 2.85362 141.321 3.11304C141.26 3.95615 141.26 10.5853 141.26 14.4163C141.26 18.3818 141.26 23.9685 141.321 24.6171C141.382 25.2101 141.687 26.1829 142.296 26.6369ZM133.138 0C133.93 0 136.864 0.129709 138.266 0.129709C140.769 0.129709 142.601 0 147.424 0C151.455 0 154.811 1.16739 157.253 3.31223C160.183 5.97592 161.71 9.74677 161.71 14.2913C161.71 20.7258 158.964 24.492 156.156 26.6369C153.409 28.8466 149.744 30.0788 144.617 30.0788C141.87 30.0788 137.169 30.014 133.26 29.9491H133.199C133.016 29.56 133.504 28.0637 133.869 27.9988C134.905 27.8691 135.214 27.8042 135.702 27.6097C136.555 27.2854 136.677 26.7666 136.799 25.2054C136.921 22.2823 136.86 18.706 136.86 14.6804C136.86 11.8221 136.921 6.23534 136.799 4.41477C136.677 2.91847 136.067 2.52934 134.844 2.26992C134.235 2.14021 133.438 1.94565 132.341 1.81594C132.224 1.55652 132.955 0.25942 133.138 0Z" fill="#7F7F7F"/>
<path d="M82.5494 25.9466C81.5743 25.8169 80.8387 25.6223 79.9246 25.2332C79.8027 25.1683 79.6199 24.7144 79.6199 24.5198C79.5589 23.0235 79.5589 18.7384 79.5589 15.8802C79.5589 13.5408 79.1933 11.5256 78.2748 10.1637C77.1779 8.53768 75.65 7.56486 73.6346 7.56486C71.863 7.56486 69.4819 8.86659 67.5275 10.6177C67.4665 10.6825 67.1618 10.942 67.2227 10.488C67.2227 10.034 67.2837 9.05653 67.3446 8.40798C67.4056 7.82429 67.0399 7.5 67.0399 7.5C65.7558 8.2134 62.1559 9.06116 60.8109 9.19087C59.8358 9.38544 59.5877 10.3583 60.6281 10.752H60.689C61.7859 11.0763 62.5216 11.4654 63.0701 11.8546C63.4966 12.1788 63.4357 12.6977 63.4357 13.0219C63.4966 16.2045 63.4966 21.1427 63.3748 23.8712C63.3138 24.9089 63.0701 25.3027 62.3388 25.4973L62.3997 25.4324C61.8512 25.5621 61.4247 25.6918 60.689 25.7567C60.4453 26.0161 60.4453 27.3827 60.689 27.707C61.1156 27.707 63.4357 27.5772 65.3902 27.5772C68.015 27.5772 69.421 27.707 70.0913 27.707C70.396 27.3827 70.457 26.0809 70.2741 25.7567C69.4819 25.6918 68.9291 25.627 68.4416 25.4324C67.7103 25.2378 67.5275 24.8487 67.4665 24.001C67.4056 21.7264 67.4056 16.9179 67.4056 13.6705C67.4056 12.7625 67.6493 12.3688 67.8931 12.1093C68.8072 11.2662 70.3351 10.6779 71.6192 10.6779C72.9033 10.6779 73.7565 11.1319 74.3659 11.6507C75.2191 12.429 75.5238 13.5362 75.65 14.3144C75.8328 16.135 75.7719 19.7715 75.7719 22.954C75.7719 24.6449 75.65 25.0989 75.0406 25.2934C74.7359 25.4231 74.0655 25.6177 73.208 25.6826C72.9033 26.0068 73.0252 27.3086 73.208 27.6328C74.3659 27.6328 75.7109 27.5031 77.7263 27.5031C80.2293 27.5031 81.8181 27.6328 82.4884 27.6328C82.6103 27.568 82.6713 26.2709 82.5494 25.9466ZM93.6624 9.63559C91.5251 9.63559 90.1844 11.3913 90.1844 14.1198C90.1844 16.9132 91.3423 20.0958 94.6418 20.0958C95.1903 20.0958 96.2306 19.8364 96.7181 19.2527C97.5104 18.4744 98.0022 16.9132 98.0022 15.2872C98.0545 11.7804 96.4091 9.63559 93.6624 9.63559ZM93.3577 28.5454C92.5654 28.5454 92.0126 28.8049 91.647 28.9994C89.9363 30.1668 89.205 31.274 89.205 32.5711C89.205 33.8033 89.6316 34.7808 90.611 35.6239C91.7689 36.6616 93.3577 37.1851 95.434 37.1851C99.5257 37.1851 101.354 34.8456 101.354 32.5062C101.354 30.8802 100.562 29.8425 99.0339 29.194C97.8717 28.8049 95.8606 28.5454 93.3577 28.5454ZM93.6624 39.6542C91.2204 39.6542 89.4487 39.0705 87.9252 37.8336C86.4583 36.6662 85.7879 34.8456 85.7879 33.6088C85.7879 33.2845 85.8489 32.307 86.5802 31.4639C87.0068 30.9451 87.9862 29.9676 90.3063 28.2814C90.3672 28.2165 90.4282 28.2165 90.4282 28.0868C90.4282 27.9571 90.3672 27.8923 90.2453 27.8923C88.3518 27.114 87.8033 25.8771 87.6205 25.2286V25.1637C87.5596 24.9043 87.4986 24.6449 87.8643 24.3855C88.169 24.1909 88.5346 23.9315 88.9612 23.6072C89.6316 23.1532 90.3672 22.6992 90.7938 22.3055C90.8547 22.2406 90.8547 22.1109 90.8547 22.0461C90.8547 21.9812 90.7938 21.8515 90.6719 21.8515C87.8643 20.8787 86.4583 18.669 86.4583 15.2872C86.4583 13.0775 87.3724 11.1273 89.0222 9.89501C90.1191 8.98704 92.992 7.81502 94.8202 7.81502H94.9421C96.8357 7.87988 97.8716 8.269 99.3386 8.8527C100.131 9.17697 100.927 9.30669 101.963 9.30669C103.552 9.30669 104.223 8.78784 104.771 8.20415C104.832 8.269 104.893 8.52841 104.954 9.04725C105.015 9.63095 104.832 10.4138 104.405 10.9975C104.101 11.4515 103.369 11.8407 102.634 11.8407H102.451C101.72 11.7758 101.415 11.6461 101.415 11.6461L101.232 11.7109C101.171 11.7758 101.232 11.9055 101.293 12.0352L101.354 12.1001C101.415 12.4892 101.598 13.6612 101.598 13.9206C101.598 17.4274 100.253 18.9886 98.8511 20.0911C97.506 21.1288 95.9215 21.8469 94.1499 22.0414C94.089 22.0414 93.9671 22.0414 93.6014 22.1063C93.4186 22.1063 93.1139 22.1711 93.053 22.1711H93.1139C92.8092 22.236 92.017 22.69 92.017 23.4034C92.017 24.0519 92.3826 24.8348 94.0933 24.9645C94.459 25.0294 94.8246 25.0294 95.1902 25.0294C97.5104 25.2239 100.318 25.4185 101.663 25.8725C103.496 26.5859 104.653 28.3416 104.653 30.4216C104.653 33.6041 102.516 36.5272 98.9773 38.3478C97.2622 39.2002 95.5515 39.6542 93.6624 39.6542ZM116.554 9.83478C115.701 9.83478 114.966 10.0293 114.356 10.4833C112.767 11.521 111.975 13.5362 111.975 16.589C111.975 22.1758 114.6 26.1412 118.387 26.1412C119.484 26.1412 120.402 25.8169 121.134 25.1035C122.292 24.0658 122.905 22.0507 122.905 19.1276C123.027 13.5361 120.402 9.83478 116.554 9.83478ZM117.286 28.1563C110.447 28.1563 108.005 22.8289 108.005 17.8258C108.005 14.319 109.35 11.5905 111.975 9.70507C113.869 8.47283 116.128 7.7548 118.143 7.7548C123.393 7.7548 127.058 11.7202 127.058 17.5016C127.058 21.4021 125.591 24.4549 122.844 26.3357C121.499 27.2437 119.179 28.1563 117.286 28.1563ZM45.6758 9.83478C44.8226 9.83478 44.087 10.0293 43.4776 10.4833C41.8888 11.521 41.0965 13.5362 41.0965 16.589C41.0965 22.1758 43.7213 26.1412 47.5084 26.1412C48.6053 26.1412 49.5238 25.8169 50.2551 25.1035C51.4129 24.0658 52.0267 22.0507 52.0267 19.1276C52.0833 13.5361 49.5194 9.83478 45.6758 9.83478ZM46.3461 28.1563C39.5077 28.1563 37.0657 22.8289 37.0657 17.8258C37.0657 14.319 38.4108 11.5905 41.0356 9.70507C42.9291 8.47283 45.1883 7.7548 47.2037 7.7548C52.4533 7.7548 56.1185 11.7202 56.1185 17.5016C56.1185 21.4021 54.6515 24.4549 51.9048 26.3357C50.6207 27.2437 48.3006 28.1563 46.3461 28.1563ZM0.435917 27.6977C0.374976 27.568 0.253095 27.1788 0.314036 26.7249C0.314036 26.4006 0.374976 26.1412 0.435917 26.0763C1.28909 25.9466 1.72003 25.8169 2.20755 25.6872C2.99979 25.4926 3.30449 24.9738 3.36543 23.9315C3.48731 21.3326 3.48731 16.4593 3.42637 13.0822V13.0173C3.42637 12.6282 3.42637 12.1742 2.99979 11.8499C2.32944 11.3959 1.59379 11.0068 0.557798 10.7474C0.192153 10.6177 -0.0516081 10.4231 0.00933278 10.1637C0.00933278 9.90427 0.253096 9.57999 0.801564 9.51514C2.14662 9.38543 5.56366 8.47746 6.96965 7.82428C7.03059 7.88914 7.15247 8.14856 7.15247 8.53769L7.09153 8.99166C7.03059 9.44565 7.03059 10.0293 7.03059 10.5528C7.03059 10.7474 7.21341 10.8771 7.33529 10.8771C7.39623 10.8771 7.51812 10.8122 7.57906 10.8122C10.1429 8.6674 12.463 7.88913 13.6862 7.88913C15.6407 7.88913 17.1642 8.86197 18.3264 10.942C18.3874 11.0717 18.5092 11.1365 18.6311 11.1365C18.6921 11.1365 18.8139 11.0717 18.8749 11.0068C21.2559 9.05652 23.637 7.95399 25.1648 7.95399C28.8909 7.95399 31.0848 10.8771 31.0848 15.945C31.0848 17.3765 31.0848 19.1924 31.0239 20.8833C31.0239 22.3796 30.9629 23.7415 30.9629 24.7144C30.9629 24.9089 31.2676 25.6223 31.6942 25.7521C32.2427 26.0763 33.0393 26.206 34.0143 26.3357H34.0753C34.1362 26.66 34.0143 27.7672 33.8315 27.9617C33.5877 27.9617 33.2221 27.9617 32.8565 27.8969C32.0642 27.832 31.0239 27.832 29.8051 27.832C27.3021 27.832 26.018 27.8969 24.7992 27.9617C24.7383 27.6375 24.6773 26.5952 24.7992 26.3357C25.5305 26.206 25.8961 26.0763 26.3271 25.9466C27.1193 25.6872 27.3021 25.2981 27.3631 24.1909C27.3631 23.3478 27.5459 16.4593 27.3021 14.7684C27.0584 13.0775 25.8352 11.067 23.2104 11.067C22.2353 11.067 20.6465 11.521 19.1186 12.7579C19.0577 12.8227 18.9358 13.0822 18.9358 13.2119V13.2767C19.1186 14.1847 19.1186 15.227 19.1186 16.7835V19.5769C19.1186 21.5272 19.0577 23.2783 19.1186 24.6449C19.1186 25.5528 19.6671 25.8123 20.0937 25.9466C20.3375 26.0115 20.5203 26.0115 20.7031 26.0763C21.0687 26.1412 21.4344 26.2709 21.9872 26.4006C22.0482 26.5952 22.0482 27.114 21.9263 27.568C21.8653 27.8274 21.8044 27.9571 21.7435 28.022C20.3984 27.9571 18.9968 27.9571 16.9204 27.9571C16.311 27.9571 15.2707 28.022 14.4175 28.022C13.6862 28.022 13.0115 28.0868 12.5849 28.0868C12.524 28.022 12.463 27.6977 12.463 27.2437C12.463 26.8546 12.524 26.5303 12.6459 26.4654C12.8287 26.4006 13.0115 26.4006 13.1943 26.4006C13.6818 26.3357 14.0475 26.206 14.4784 26.1412C15.1488 25.9466 15.3925 25.5575 15.4535 24.58C15.5754 22.4352 15.6972 16.3295 15.3925 14.7684C14.905 12.2993 13.56 11.067 11.4227 11.067C10.1995 11.067 8.61505 11.7156 7.33094 12.7579C7.14812 12.9525 6.96529 13.3416 6.96529 13.7307V16.2647C6.96529 19.3175 6.96529 23.2181 7.02624 24.8394C7.08718 25.3583 7.20906 25.942 8.12317 26.1412C8.30599 26.206 8.67164 26.2709 9.03728 26.3357L9.76858 26.4654C9.82952 26.7249 9.82952 27.7672 9.64669 28.0915C9.22011 28.0915 8.79352 28.0266 8.17976 28.0266C7.32659 27.9617 6.2253 27.9617 5.06742 27.9617C3.66143 27.9617 2.62543 28.0266 1.8332 28.0266C1.35003 27.6977 0.923444 27.6977 0.435917 27.6977Z" fill="#9F9F9F"/>
</svg>
