<svg width="295" height="181" viewBox="0 0 295 181" fill="none" xmlns="http://www.w3.org/2000/svg">
<g clip-path="url(#clip0_38_140)">
<path d="M145.835 180.478C144.837 180.478 143.905 180.211 143.039 179.745L134.184 174.482C132.852 173.749 133.518 173.483 133.917 173.35C135.715 172.75 136.048 172.616 137.912 171.551C138.112 171.417 138.379 171.484 138.578 171.617L145.37 175.681C145.636 175.814 145.969 175.814 146.168 175.681L172.735 160.292C173.001 160.158 173.135 159.892 173.135 159.559V128.847C173.135 128.513 173.001 128.247 172.735 128.113L146.168 112.791C145.902 112.657 145.569 112.657 145.37 112.791L118.803 128.113C118.537 128.247 118.403 128.58 118.403 128.846V159.558C118.403 159.825 118.537 160.158 118.803 160.292L126.061 164.489C129.989 166.487 132.452 164.155 132.452 161.824V131.511C132.452 131.111 132.785 130.711 133.251 130.711H136.647C137.047 130.711 137.446 131.045 137.446 131.511V161.824C137.446 167.087 134.583 170.152 129.589 170.152C128.058 170.152 126.86 170.152 123.464 168.486L116.473 164.489C114.741 163.49 113.676 161.624 113.676 159.625V128.913C113.676 126.914 114.741 125.049 116.473 124.05L143.039 108.66C144.704 107.727 146.968 107.727 148.632 108.66L175.198 124.05C176.929 125.049 177.995 126.914 177.995 128.913V159.625C177.995 161.624 176.929 163.49 175.198 164.489L148.632 179.878C147.766 180.278 146.767 180.478 145.835 180.478ZM154.025 159.359C142.373 159.359 139.976 154.029 139.976 149.499C139.976 149.099 140.309 148.7 140.775 148.7H144.238C144.637 148.7 144.97 148.966 144.97 149.366C145.503 152.897 147.034 154.629 154.092 154.629C159.684 154.629 162.082 153.363 162.082 150.365C162.082 148.633 161.416 147.367 152.694 146.501C145.436 145.768 140.908 144.169 140.908 138.373C140.908 132.977 145.436 129.779 153.026 129.779C161.549 129.779 165.744 132.71 166.277 139.105C166.277 139.306 166.21 139.505 166.077 139.705C165.943 139.839 165.744 139.972 165.544 139.972H162.082C161.749 139.972 161.416 139.705 161.349 139.372C160.55 135.708 158.486 134.509 153.026 134.509C146.901 134.509 146.168 136.641 146.168 138.24C146.168 140.172 147.034 140.771 155.29 141.837C163.48 142.904 167.342 144.436 167.342 150.165C167.275 156.028 162.481 159.359 154.025 159.359Z" fill="#AEAEAE"/>
<path d="M63.4064 60.3595C63.4064 59.1605 62.7404 58.0272 61.6752 57.4277L33.4442 41.1723C32.9776 40.9054 32.4453 40.7723 31.913 40.7054H31.6462C31.1139 40.7054 30.581 40.9054 30.115 41.1723L1.884 57.4277C0.818222 58.0272 0.152832 59.1599 0.152832 60.3595L0.219659 104.063C0.219659 104.662 0.552642 105.262 1.08495 105.529C1.61784 105.862 2.28323 105.862 2.74987 105.529L19.5287 95.9352C20.5939 95.3357 21.2598 94.203 21.2598 93.004V72.551C21.2598 71.3521 21.9252 70.2194 22.991 69.6199L30.115 65.4892C30.6479 65.156 31.247 65.0223 31.8462 65.0223C32.4453 65.0223 33.0444 65.156 33.5111 65.4892L40.6351 69.6199C41.7008 70.2194 42.3662 71.3515 42.3662 72.551V93.004C42.3662 94.203 43.0322 95.3357 44.0974 95.9352L60.8762 105.529C61.4091 105.862 62.0745 105.862 62.6073 105.529C63.1402 105.262 63.4732 104.662 63.4732 104.063L63.4064 60.3595ZM199.102 0.200044C198.569 -0.0668442 197.903 -0.0668442 197.437 0.200044C196.904 0.533223 196.571 1.06585 196.571 1.66534V44.9699C196.571 45.3693 196.372 45.7688 195.972 46.0357C195.573 46.2351 195.173 46.2351 194.774 46.0357L187.716 41.9719C187.199 41.6771 186.614 41.522 186.018 41.522C185.423 41.522 184.838 41.6771 184.32 41.9719L156.089 58.2941C155.024 58.8936 154.358 60.0263 154.358 61.2253V93.803C154.358 95.002 155.024 96.1352 156.089 96.7347L184.32 113.057C184.838 113.352 185.423 113.507 186.018 113.507C186.614 113.507 187.199 113.352 187.716 113.057L215.947 96.7347C217.012 96.1352 217.678 95.0025 217.678 93.803V12.5916C217.678 11.3258 217.012 10.1937 215.947 9.5936L199.102 0.200044ZM196.505 83.0773C196.505 83.4105 196.372 83.6768 196.105 83.8099L186.451 89.406C186.316 89.4718 186.168 89.506 186.018 89.506C185.868 89.506 185.72 89.4718 185.585 89.406L175.931 83.8099C175.664 83.6768 175.531 83.3436 175.531 83.0773V71.8847C175.531 71.5515 175.664 71.2852 175.931 71.152L185.585 65.5555C185.72 65.4896 185.868 65.4554 186.018 65.4554C186.168 65.4554 186.316 65.4896 186.451 65.5555L196.105 71.152C196.372 71.2846 196.505 71.6184 196.505 71.8847V83.0773ZM293.05 71.6184C294.115 71.0189 294.715 69.8862 294.715 68.6866V60.759C294.715 59.56 294.049 58.4273 293.05 57.8278L265.019 41.5724C264.501 41.2777 263.916 41.1227 263.321 41.1227C262.725 41.1227 262.14 41.2777 261.623 41.5724L233.392 57.8941C232.326 58.4936 231.661 59.6263 231.661 60.8258V93.4035C231.661 94.6025 232.326 95.7352 233.392 96.3347L261.423 112.324C262.489 112.923 263.753 112.923 264.752 112.324L281.73 102.865C282.263 102.598 282.596 101.998 282.596 101.399C282.596 100.799 282.263 100.2 281.73 99.9328L253.366 83.6105C252.834 83.2779 252.501 82.7447 252.501 82.1452V71.9521C252.501 71.3526 252.834 70.7532 253.366 70.4863L262.222 65.4229C262.481 65.2596 262.781 65.173 263.088 65.173C263.394 65.173 263.694 65.2596 263.953 65.4229L272.808 70.4863C273.341 70.8194 273.674 71.3521 273.674 71.9521V79.9467C273.674 80.5462 274.007 81.1457 274.54 81.412C275.073 81.7451 275.738 81.7451 276.271 81.412L293.05 71.6184Z" fill="#A1A1A1"/>
<path d="M262.888 70.0862C262.987 70.0211 263.102 69.9865 263.221 69.9865C263.339 69.9865 263.455 70.0211 263.553 70.0862L268.947 73.2174C269.147 73.35 269.28 73.55 269.28 73.8169V80.0793C269.28 80.3456 269.147 80.5456 268.947 80.6788L263.553 83.8099C263.455 83.875 263.339 83.9097 263.221 83.9097C263.102 83.9097 262.987 83.875 262.888 83.8099L257.495 80.6788C257.295 80.5456 257.162 80.3456 257.162 80.0793V73.8169C257.162 73.55 257.295 73.35 257.495 73.2174L262.888 70.0862Z" fill="#747474"/>
<path d="M110.613 41.7055C110.096 41.4108 109.511 41.2559 108.916 41.2559C108.32 41.2559 107.735 41.4108 107.218 41.7055L79.1869 57.8935C78.1211 58.493 77.522 59.6256 77.522 60.8246V93.2697C77.522 94.4687 78.1879 95.6014 79.1869 96.2009L107.218 112.39C107.735 112.685 108.32 112.84 108.916 112.84C109.511 112.84 110.096 112.685 110.613 112.39L138.645 96.2009C139.71 95.6014 140.31 94.4687 140.31 93.2697V60.8252C140.31 59.6262 139.644 58.4935 138.645 57.894L110.613 41.7055Z" fill="url(#paint0_linear_38_140)"/>
<mask id="mask0_38_140" style="mask-type:luminance" maskUnits="userSpaceOnUse" x="77" y="41" width="64" height="72">
<path d="M110.613 41.7055C110.096 41.4108 109.511 41.2559 108.916 41.2559C108.32 41.2559 107.735 41.4108 107.218 41.7055L79.1869 57.8935C78.1211 58.493 77.522 59.6256 77.522 60.8246V93.2697C77.522 94.4687 78.1879 95.6014 79.1869 96.2009L107.218 112.39C107.735 112.685 108.32 112.84 108.916 112.84C109.511 112.84 110.096 112.685 110.613 112.39L138.645 96.2009C139.71 95.6014 140.31 94.4687 140.31 93.2697V60.8252C140.31 59.6262 139.644 58.4935 138.645 57.894L110.613 41.7055Z" fill="white"/>
</mask>
<g mask="url(#mask0_38_140)">
<path d="M138.711 57.894L110.547 41.7055C110.27 41.5657 109.98 41.454 109.681 41.3723L78.1211 95.4694C78.3825 95.7888 78.6983 96.0594 79.0538 96.2689L107.218 112.458C108.017 112.924 108.949 113.058 109.814 112.791L139.444 58.561C139.244 58.2947 138.978 58.0935 138.711 57.894Z" fill="url(#paint1_linear_38_140)"/>
</g>
<mask id="mask1_38_140" style="mask-type:luminance" maskUnits="userSpaceOnUse" x="77" y="41" width="64" height="72">
<path d="M110.613 41.7055C110.096 41.4108 109.511 41.2559 108.916 41.2559C108.32 41.2559 107.735 41.4108 107.218 41.7055L79.1869 57.8935C78.1211 58.493 77.522 59.6256 77.522 60.8246V93.2697C77.522 94.4687 78.1879 95.6014 79.1869 96.2009L107.218 112.39C107.735 112.685 108.32 112.84 108.916 112.84C109.511 112.84 110.096 112.685 110.613 112.39L138.645 96.2009C139.71 95.6014 140.31 94.4687 140.31 93.2697V60.8252C140.31 59.6262 139.644 58.4935 138.645 57.894L110.613 41.7055Z" fill="white"/>
</mask>
<g mask="url(#mask1_38_140)">
<path fill-rule="evenodd" clip-rule="evenodd" d="M138.778 96.2015C139.577 95.7352 140.177 94.9357 140.443 94.0699L109.548 41.3055C108.749 41.1724 107.883 41.2386 107.151 41.705L79.1865 57.8278L109.348 112.857C109.787 112.785 110.213 112.651 110.613 112.458L138.778 96.2021L138.778 96.2015Z" fill="url(#paint2_linear_38_140)"/>
<path fill-rule="evenodd" clip-rule="evenodd" d="M138.778 96.2015L110.68 112.391C110.283 112.593 109.856 112.728 109.415 112.79L109.948 113.79L141.108 95.7358V95.3357L140.309 94.003C140.176 94.9357 139.577 95.7352 138.778 96.2015Z" fill="url(#paint3_linear_38_140)"/>
<path fill-rule="evenodd" clip-rule="evenodd" d="M138.778 96.2015L110.68 112.391C110.283 112.593 109.856 112.728 109.415 112.79L109.948 113.79L141.108 95.7358V95.3357L140.309 94.003C140.176 94.9357 139.577 95.7352 138.778 96.2015Z" fill="url(#paint4_linear_38_140)"/>
</g>
</g>
<defs>
<linearGradient id="paint0_linear_38_140" x1="4358.92" y1="1293.04" x2="1283.87" y2="6122.01" gradientUnits="userSpaceOnUse">
<stop stop-color="#D4D4D4"/>
<stop offset="0.3288" stop-color="#878787"/>
<stop offset="0.6352" stop-color="#C6C6C6"/>
<stop offset="0.9319" stop-color="#C7C7C7"/>
<stop offset="1" stop-color="#E6E6E6"/>
</linearGradient>
<linearGradient id="paint1_linear_38_140" x1="2732" y1="3988.96" x2="10428.9" y2="-190.363" gradientUnits="userSpaceOnUse">
<stop offset="0.1376" stop-color="#D4D4D4"/>
<stop offset="0.4032" stop-color="#54A044"/>
<stop offset="0.7136" stop-color="#66B848"/>
<stop offset="0.9081" stop-color="#C3C3C3"/>
</linearGradient>
<linearGradient id="paint2_linear_38_140" x1="-189.67" y1="3621.64" x2="6296.69" y2="3621.64" gradientUnits="userSpaceOnUse">
<stop offset="0.09192" stop-color="#B0B0B0"/>
<stop offset="0.2864" stop-color="#66B848"/>
<stop offset="0.5968" stop-color="#54A044"/>
<stop offset="0.8624" stop-color="#41873F"/>
</linearGradient>
<linearGradient id="paint3_linear_38_140" x1="-3182.28" y1="1088.78" x2="3304.01" y2="1088.78" gradientUnits="userSpaceOnUse">
<stop offset="0.09192" stop-color="#BCBCBC"/>
<stop offset="0.2864" stop-color="#66B848"/>
<stop offset="0.5968" stop-color="#54A044"/>
<stop offset="0.8624" stop-color="#41873F"/>
</linearGradient>
<linearGradient id="paint4_linear_38_140" x1="4248.97" y1="-4082.34" x2="2603.89" y2="4532.83" gradientUnits="userSpaceOnUse">
<stop stop-color="#6F6F6F"/>
<stop offset="0.3288" stop-color="#E4E4E4"/>
<stop offset="0.6352" stop-color="#419637"/>
<stop offset="0.9319" stop-color="#3FA92D"/>
<stop offset="1" stop-color="#3FAE2A"/>
</linearGradient>
<clipPath id="clip0_38_140">
<rect width="295" height="181" fill="white"/>
</clipPath>
</defs>
</svg>
