<svg width="403" height="247" viewBox="0 0 403 247" fill="none" xmlns="http://www.w3.org/2000/svg">
<path d="M199.156 246.976C197.791 246.976 196.517 246.611 195.333 245.973L183.228 238.771C181.407 237.768 182.318 237.403 182.864 237.221C185.321 236.401 185.776 236.218 188.325 234.76C188.598 234.577 188.963 234.669 189.235 234.851L198.52 240.412C198.884 240.594 199.339 240.594 199.611 240.412L235.93 219.352C236.293 219.17 236.476 218.805 236.476 218.349V176.321C236.476 175.864 236.293 175.501 235.93 175.318L199.611 154.349C199.248 154.166 198.792 154.166 198.52 154.349L162.202 175.318C161.838 175.5 161.655 175.956 161.655 176.32V218.349C161.655 218.714 161.838 219.169 162.202 219.352L172.123 225.095C177.494 227.83 180.861 224.639 180.861 221.449V179.967C180.861 179.42 181.317 178.873 181.954 178.873H186.596C187.142 178.873 187.688 179.329 187.688 179.967V221.449C187.688 228.651 183.774 232.845 176.947 232.845C174.854 232.845 173.216 232.845 168.573 230.565L159.016 225.095C156.65 223.728 155.193 221.175 155.193 218.44V176.412C155.193 173.677 156.65 171.123 159.016 169.756L195.333 148.696C197.609 147.42 200.705 147.42 202.98 148.696L239.297 169.756C241.664 171.123 243.121 173.677 243.121 176.412V218.44C243.121 221.175 241.664 223.728 239.297 225.095L202.98 246.155C201.796 246.703 200.431 246.976 199.156 246.976ZM210.352 218.076C194.424 218.076 191.147 210.782 191.147 204.583C191.147 204.035 191.602 203.489 192.239 203.489H196.972C197.518 203.489 197.973 203.853 197.973 204.401C198.702 209.232 200.795 211.603 210.443 211.603C218.089 211.603 221.367 209.87 221.367 205.768C221.367 203.397 220.456 201.666 208.532 200.48C198.61 199.477 192.421 197.289 192.421 189.358C192.421 181.973 198.611 177.596 208.987 177.596C220.638 177.596 226.373 181.608 227.101 190.36C227.101 190.634 227.01 190.907 226.828 191.181C226.645 191.363 226.373 191.545 226.099 191.545H221.366C220.911 191.545 220.456 191.181 220.365 190.725C219.273 185.711 216.451 184.07 208.987 184.07C200.613 184.07 199.611 186.987 199.611 189.175C199.611 191.819 200.795 192.639 212.082 194.098C223.277 195.557 228.557 197.654 228.557 205.494C228.466 213.517 221.913 218.076 210.352 218.076Z" fill="#539E43"/>
<path d="M86.4711 82.5993C86.4711 80.9586 85.5607 79.4078 84.1045 78.5874L45.5112 56.3426C44.8733 55.9774 44.1456 55.7952 43.4179 55.7037H43.0532C42.3255 55.7037 41.5971 55.9774 40.9599 56.3426L2.3666 78.5874C0.909626 79.4078 0 80.9578 0 82.5993L0.0913563 142.405C0.0913563 143.226 0.546563 144.046 1.27426 144.411C2.00275 144.867 2.91238 144.867 3.5503 144.411L26.4878 131.283C27.944 130.463 28.8544 128.913 28.8544 127.272V99.2829C28.8544 97.6422 29.7641 96.0921 31.221 95.2718L40.9599 89.6191C41.6884 89.1631 42.5075 88.9801 43.3265 88.9801C44.1456 88.9801 44.9646 89.1631 45.6026 89.6191L55.3415 95.2718C56.7984 96.0921 57.7081 97.6414 57.7081 99.2829V127.272C57.7081 128.913 58.6185 130.463 60.0747 131.283L83.0122 144.411C83.7407 144.867 84.6503 144.867 85.3788 144.411C86.1073 144.046 86.5625 143.226 86.5625 142.405L86.4711 82.5993ZM271.974 0.273918C271.246 -0.0913062 270.336 -0.0913062 269.698 0.273918C268.97 0.729858 268.515 1.45873 268.515 2.2791V61.5394C268.515 62.086 268.243 62.6327 267.696 62.9979C267.15 63.2708 266.604 63.2708 266.058 62.9979L256.41 57.4367C255.702 57.0333 254.902 56.8212 254.088 56.8212C253.274 56.8212 252.474 57.0333 251.767 57.4367L213.174 79.773C211.718 80.5934 210.807 82.1434 210.807 83.7841V128.365C210.807 130.006 211.718 131.557 213.174 132.377L251.767 154.713C252.474 155.117 253.274 155.329 254.088 155.329C254.902 155.329 255.702 155.117 256.41 154.713L295.003 132.377C296.459 131.557 297.37 130.007 297.37 128.365V17.2312C297.37 15.499 296.459 13.9497 295.003 13.1286L271.974 0.273918ZM268.425 113.688C268.425 114.144 268.243 114.508 267.878 114.69L254.68 122.348C254.496 122.438 254.293 122.485 254.088 122.485C253.883 122.485 253.681 122.438 253.497 122.348L240.299 114.69C239.934 114.508 239.752 114.052 239.752 113.688V98.3711C239.752 97.9151 239.934 97.5507 240.299 97.3685L253.497 89.7098C253.681 89.6197 253.883 89.5729 254.088 89.5729C254.293 89.5729 254.496 89.6197 254.68 89.7098L267.878 97.3685C268.243 97.5499 268.425 98.0066 268.425 98.3711V113.688ZM400.406 98.0066C401.863 97.1862 402.682 95.6362 402.682 93.9947V83.146C402.682 81.5052 401.772 79.9552 400.406 79.1348L362.086 56.8901C361.379 56.4868 360.579 56.2747 359.765 56.2747C358.951 56.2747 358.152 56.4868 357.444 56.8901L318.851 79.2255C317.394 80.0459 316.484 81.596 316.484 83.2375V127.819C316.484 129.459 317.394 131.009 318.851 131.83L357.171 153.71C358.628 154.53 360.357 154.53 361.722 153.71L384.932 140.765C385.661 140.4 386.116 139.58 386.116 138.76C386.116 137.939 385.661 137.119 384.932 136.754L346.157 114.417C345.429 113.962 344.974 113.232 344.974 112.412V98.4633C344.974 97.643 345.429 96.8226 346.157 96.4574L358.263 89.5284C358.618 89.305 359.028 89.1865 359.447 89.1865C359.865 89.1865 360.276 89.305 360.63 89.5284L372.735 96.4574C373.464 96.9133 373.919 97.6422 373.919 98.4633V109.404C373.919 110.224 374.374 111.044 375.102 111.409C375.831 111.865 376.74 111.865 377.469 111.409L400.406 98.0066Z" fill="#333333"/>
<path d="M359.174 95.9098C359.309 95.8208 359.467 95.7733 359.629 95.7733C359.79 95.7733 359.949 95.8208 360.084 95.9098L367.457 100.195C367.73 100.376 367.912 100.65 367.912 101.015V109.585C367.912 109.949 367.73 110.223 367.457 110.405L360.084 114.69C359.949 114.779 359.79 114.827 359.629 114.827C359.467 114.827 359.309 114.779 359.174 114.69L351.801 110.405C351.528 110.223 351.346 109.949 351.346 109.585V101.015C351.346 100.65 351.528 100.376 351.801 100.195L359.174 95.9098Z" fill="#539E43"/>
<path d="M151.005 57.0722C150.298 56.669 149.498 56.4569 148.685 56.4569C147.871 56.4569 147.071 56.669 146.364 57.0722L108.044 79.2247C106.587 80.0451 105.768 81.5951 105.768 83.2359V127.636C105.768 129.276 106.678 130.826 108.044 131.647L146.364 153.801C147.071 154.204 147.871 154.416 148.685 154.416C149.498 154.416 150.298 154.204 151.005 153.801L189.326 131.647C190.783 130.826 191.602 129.276 191.602 127.636V83.2367C191.602 81.5959 190.691 80.0459 189.326 79.2255L151.005 57.0722Z" fill="url(#paint0_linear_95_29)"/>
<mask id="mask0_95_29" style="mask-type:luminance" maskUnits="userSpaceOnUse" x="105" y="56" width="87" height="99">
<path d="M151.005 57.0722C150.298 56.669 149.498 56.4569 148.685 56.4569C147.871 56.4569 147.071 56.669 146.364 57.0722L108.044 79.2247C106.587 80.0451 105.768 81.5951 105.768 83.2359V127.636C105.768 129.276 106.678 130.826 108.044 131.647L146.364 153.801C147.071 154.204 147.871 154.416 148.685 154.416C149.498 154.416 150.298 154.204 151.005 153.801L189.326 131.647C190.783 130.826 191.602 129.276 191.602 127.636V83.2367C191.602 81.5959 190.691 80.0459 189.326 79.2255L151.005 57.0722Z" fill="white"/>
</mask>
<g mask="url(#mask0_95_29)">
<path d="M189.416 79.2256L150.914 57.0723C150.536 56.8809 150.139 56.7282 149.731 56.6163L106.586 130.646C106.943 131.083 107.375 131.453 107.861 131.74L146.363 153.894C147.455 154.532 148.73 154.714 149.912 154.349L190.418 80.1382C190.145 79.7738 189.78 79.4985 189.416 79.2256Z" fill="url(#paint1_linear_95_29)"/>
</g>
<mask id="mask1_95_29" style="mask-type:luminance" maskUnits="userSpaceOnUse" x="105" y="56" width="87" height="99">
<path d="M151.005 57.0722C150.298 56.669 149.498 56.4569 148.685 56.4569C147.871 56.4569 147.071 56.669 146.364 57.0722L108.044 79.2247C106.587 80.0451 105.768 81.5951 105.768 83.2359V127.636C105.768 129.276 106.678 130.826 108.044 131.647L146.364 153.801C147.071 154.204 147.871 154.416 148.685 154.416C149.498 154.416 150.298 154.204 151.005 153.801L189.326 131.647C190.783 130.826 191.602 129.276 191.602 127.636V83.2367C191.602 81.5959 190.691 80.0459 189.326 79.2255L151.005 57.0722Z" fill="white"/>
</mask>
<g mask="url(#mask1_95_29)">
<path fill-rule="evenodd" clip-rule="evenodd" d="M189.507 131.648C190.6 131.009 191.419 129.915 191.783 128.73L149.548 56.5249C148.455 56.3427 147.272 56.4334 146.271 57.0715L108.042 79.1349L149.274 154.44C149.874 154.341 150.457 154.157 151.004 153.893L189.507 131.648L189.507 131.648Z" fill="url(#paint2_linear_95_29)"/>
<path fill-rule="evenodd" clip-rule="evenodd" d="M189.508 131.647L151.097 153.802C150.554 154.079 149.97 154.263 149.367 154.348L150.096 155.716L192.694 131.01V130.463L191.601 128.639C191.419 129.915 190.6 131.009 189.508 131.647Z" fill="url(#paint3_linear_95_29)"/>
<path fill-rule="evenodd" clip-rule="evenodd" d="M189.508 131.647L151.097 153.802C150.554 154.079 149.97 154.263 149.367 154.348L150.096 155.716L192.694 131.01V130.463L191.601 128.639C191.419 129.915 190.6 131.009 189.508 131.647Z" fill="url(#paint4_linear_95_29)"/>
</g>
<defs>
<linearGradient id="paint0_linear_95_29" x1="5958.67" y1="1769.47" x2="1748.8" y2="8373.79" gradientUnits="userSpaceOnUse">
<stop stop-color="#41873F"/>
<stop offset="0.3288" stop-color="#418B3D"/>
<stop offset="0.6352" stop-color="#419637"/>
<stop offset="0.9319" stop-color="#3FA92D"/>
<stop offset="1" stop-color="#3FAE2A"/>
</linearGradient>
<linearGradient id="paint1_linear_95_29" x1="3734.59" y1="5458.71" x2="14261.6" y2="-251.477" gradientUnits="userSpaceOnUse">
<stop offset="0.1376" stop-color="#41873F"/>
<stop offset="0.4032" stop-color="#54A044"/>
<stop offset="0.7136" stop-color="#66B848"/>
<stop offset="0.9081" stop-color="#6CC04A"/>
</linearGradient>
<linearGradient id="paint2_linear_95_29" x1="-259.499" y1="4956.04" x2="8607.72" y2="4956.04" gradientUnits="userSpaceOnUse">
<stop offset="0.09192" stop-color="#6CC04A"/>
<stop offset="0.2864" stop-color="#66B848"/>
<stop offset="0.5968" stop-color="#54A044"/>
<stop offset="0.8624" stop-color="#41873F"/>
</linearGradient>
<linearGradient id="paint3_linear_95_29" x1="-4350.57" y1="1489.94" x2="4516.55" y2="1489.94" gradientUnits="userSpaceOnUse">
<stop offset="0.09192" stop-color="#6CC04A"/>
<stop offset="0.2864" stop-color="#66B848"/>
<stop offset="0.5968" stop-color="#54A044"/>
<stop offset="0.8624" stop-color="#41873F"/>
</linearGradient>
<linearGradient id="paint4_linear_95_29" x1="5808.38" y1="-5586.5" x2="3555.01" y2="6202.12" gradientUnits="userSpaceOnUse">
<stop stop-color="#41873F"/>
<stop offset="0.3288" stop-color="#418B3D"/>
<stop offset="0.6352" stop-color="#419637"/>
<stop offset="0.9319" stop-color="#3FA92D"/>
<stop offset="1" stop-color="#3FAE2A"/>
</linearGradient>
</defs>
</svg>
