<svg width="310" height="354" viewBox="0 0 310 354" fill="none" xmlns="http://www.w3.org/2000/svg">
<path d="M310 177.032C310 156.451 284.283 136.947 244.853 124.852C253.952 84.5778 249.908 52.5356 232.089 42.277C227.982 39.8706 223.18 38.7308 217.935 38.7308V52.8522C220.842 52.8522 223.18 53.4221 225.139 54.4986C233.732 59.4379 237.46 78.2453 234.554 102.435C233.859 108.388 232.721 114.657 231.331 121.053C218.946 118.013 205.424 115.67 191.207 114.15C182.676 102.435 173.83 91.7968 164.921 82.4881C185.52 63.3007 204.855 52.7889 217.998 52.7889V38.6675C200.622 38.6675 177.874 51.0791 154.874 72.6095C131.873 51.2058 109.126 38.9208 91.7489 38.9208V53.0422C104.829 53.0422 124.227 63.4907 144.827 82.5514C135.98 91.8601 127.134 102.435 118.73 114.15C104.45 115.67 90.9274 118.013 78.5426 121.116C77.0893 114.784 76.0151 108.641 75.2568 102.752C72.287 78.562 75.9519 59.7546 84.4823 54.7519C86.3779 53.6121 88.8422 53.1055 91.7489 53.1055V38.9841C86.4411 38.9841 81.6388 40.1239 77.4684 42.5303C59.7126 52.7889 55.7318 84.7678 64.894 124.916C25.5911 137.074 0 156.515 0 177.032C0 197.612 25.7175 217.116 65.1468 229.211C56.0477 269.486 60.0917 301.528 77.9107 311.786C82.0179 314.193 86.8202 315.333 92.128 315.333C109.505 315.333 132.252 302.921 155.253 281.391C178.253 302.794 201.001 315.079 218.378 315.079C223.685 315.079 228.488 313.939 232.658 311.533C250.414 301.274 254.395 269.296 245.232 229.148C284.409 217.053 310 197.549 310 177.032ZM227.729 134.794C225.391 142.963 222.485 151.385 219.199 159.807C216.608 154.741 213.891 149.675 210.921 144.609C208.015 139.544 204.919 134.604 201.822 129.792C210.795 131.121 219.452 132.768 227.729 134.794ZM198.789 202.235C193.861 210.784 188.806 218.889 183.561 226.425C174.146 227.248 164.605 227.691 155 227.691C145.459 227.691 135.917 227.248 126.565 226.488C121.321 218.953 116.203 210.91 111.274 202.425C106.472 194.129 102.112 185.707 98.1309 177.222C102.049 168.736 106.472 160.251 111.211 151.955C116.139 143.406 121.194 135.301 126.439 127.765C135.854 126.942 145.395 126.499 155 126.499C164.541 126.499 174.083 126.942 183.435 127.702C188.679 135.237 193.797 143.28 198.726 151.765C203.528 160.061 207.888 168.483 211.869 176.968C207.888 185.454 203.528 193.939 198.789 202.235ZM219.199 194.003C222.611 202.488 225.518 210.974 227.919 219.206C219.641 221.232 210.921 222.942 201.885 224.272C204.982 219.396 208.078 214.393 210.985 209.264C213.891 204.198 216.608 199.069 219.199 194.003ZM155.126 261.57C149.25 255.491 143.373 248.715 137.56 241.306C143.247 241.559 149.06 241.749 154.937 241.749C160.876 241.749 166.753 241.623 172.503 241.306C166.816 248.715 160.94 255.491 155.126 261.57ZM108.115 224.272C99.1419 222.942 90.4851 221.296 82.2075 219.269C84.5455 211.1 87.4521 202.678 90.7379 194.256C93.3286 199.322 96.0457 204.388 99.0155 209.454C101.985 214.52 105.018 219.459 108.115 224.272ZM154.81 92.4934C160.687 98.5725 166.563 105.348 172.377 112.757C166.69 112.504 160.876 112.314 155 112.314C149.06 112.314 143.184 112.441 137.434 112.757C143.121 105.348 148.997 98.5725 154.81 92.4934ZM108.051 129.792C104.955 134.668 101.859 139.67 98.9523 144.799C96.0457 149.865 93.3286 154.931 90.7379 159.997C87.3257 151.512 84.4191 143.026 82.0179 134.794C90.2956 132.831 99.0155 131.121 108.051 129.792ZM50.8663 209.074C28.4978 199.512 14.0277 186.974 14.0277 177.032C14.0277 167.09 28.4978 154.488 50.8663 144.989C56.3005 142.646 62.2401 140.557 68.3693 138.594C71.9711 151.005 76.7102 163.924 82.5866 177.158C76.7733 190.33 72.0974 203.185 68.5589 215.533C62.3033 213.57 56.3637 211.417 50.8663 209.074ZM84.8614 299.565C76.2678 294.625 72.5398 275.818 75.4464 251.628C76.1415 245.676 77.2789 239.406 78.669 233.011C91.0538 236.05 104.576 238.393 118.793 239.913C127.324 251.628 136.17 262.267 145.08 271.575C124.48 290.763 105.145 301.275 92.0016 301.275C89.1582 301.211 86.757 300.641 84.8614 299.565ZM234.743 251.311C237.713 275.501 234.048 294.309 225.518 299.311C223.622 300.451 221.158 300.958 218.251 300.958C205.171 300.958 185.773 290.509 165.173 271.449C174.02 262.14 182.866 251.565 191.27 239.85C205.55 238.33 219.073 235.987 231.457 232.884C232.911 239.28 234.048 245.422 234.743 251.311ZM259.071 209.074C253.636 211.417 247.697 213.507 241.567 215.47C237.966 203.058 233.227 190.14 227.35 176.905C233.163 163.734 237.839 150.879 241.378 138.53C247.634 140.493 253.573 142.646 259.134 144.989C281.502 154.551 295.972 167.09 295.972 177.032C295.909 186.974 281.439 199.575 259.071 209.074Z" fill="#61DAFB"/>
<path d="M154.937 205.971C170.885 205.971 183.814 193.014 183.814 177.032C183.814 161.049 170.885 148.092 154.937 148.092C138.989 148.092 126.06 161.049 126.06 177.032C126.06 193.014 138.989 205.971 154.937 205.971Z" fill="#61DAFB"/>
</svg>
