<svg width="215" height="255" viewBox="0 0 215 255" fill="none" xmlns="http://www.w3.org/2000/svg">
<path d="M107.501 166.521C118.104 166.521 126.7 157.926 126.7 147.322C126.7 136.719 118.104 128.123 107.501 128.123C96.8974 128.123 88.3018 136.719 88.3018 147.322C88.3018 157.926 96.8974 166.521 107.501 166.521Z" fill="#D4D4D4"/>
<path fill-rule="evenodd" clip-rule="evenodd" d="M107.501 108.287C133.278 108.287 157.225 111.986 175.28 118.202C197.034 125.691 210.41 137.043 210.41 147.322C210.41 158.034 196.234 170.094 172.873 177.834C155.212 183.686 131.97 186.74 107.501 186.74C82.4137 186.74 58.6572 183.873 40.7966 177.77C18.1997 170.046 4.58936 157.83 4.58936 147.322C4.58936 137.126 17.3601 125.862 38.8085 118.384C56.9312 112.066 81.4688 108.287 107.498 108.287H107.501Z" stroke="#D4D4D4" stroke-width="6"/>
<path fill-rule="evenodd" clip-rule="evenodd" d="M73.5197 127.917C86.3976 105.587 101.564 86.6911 115.969 74.1554C133.324 59.0518 149.84 53.1368 158.745 58.2715C168.024 63.6227 171.39 81.9277 166.424 106.031C162.674 124.254 153.706 145.913 141.481 167.11C128.948 188.843 114.597 207.99 100.388 220.409C82.4091 236.126 65.0268 241.814 55.9243 236.564C47.0916 231.474 43.7139 214.781 47.9511 192.464C51.5313 173.609 60.5159 150.465 73.5155 127.917L73.5197 127.917Z" stroke="#D4D4D4" stroke-width="6"/>
<path fill-rule="evenodd" clip-rule="evenodd" d="M73.5518 167.167C60.6376 144.862 51.8451 122.281 48.175 103.541C43.7571 80.9617 46.8807 63.6981 55.7769 58.5485C65.0474 53.1815 82.587 59.4073 100.989 75.7471C114.903 88.1006 129.189 106.683 141.449 127.86C154.019 149.572 163.439 171.569 167.104 190.081C171.741 213.507 167.988 231.406 158.894 236.671C150.07 241.779 133.923 236.37 116.705 221.554C102.157 209.036 86.5934 189.693 73.5518 167.166V167.167Z" stroke="#D4D4D4" stroke-width="6"/>
<path d="M49.7344 7.25H58.6875C60.4375 7.25 61.9583 7.51042 63.25 8.03125C64.5417 8.55208 65.5365 9.32292 66.2344 10.3438C66.9427 11.3646 67.2969 12.625 67.2969 14.125C67.2969 15.4271 67.0938 16.5156 66.6875 17.3906C66.2812 18.2656 65.7135 18.9896 64.9844 19.5625C64.2656 20.125 63.4271 20.5885 62.4688 20.9531L60.6719 21.9688H53.1562L53.125 17.7344H58.6875C59.3854 17.7344 59.9635 17.6094 60.4219 17.3594C60.8802 17.1094 61.224 16.7552 61.4531 16.2969C61.6927 15.8281 61.8125 15.2708 61.8125 14.625C61.8125 13.9688 61.6927 13.4062 61.4531 12.9375C61.2135 12.4688 60.8594 12.1094 60.3906 11.8594C59.9323 11.6094 59.3646 11.4844 58.6875 11.4844H55.2188V30H49.7344V7.25ZM62.1875 30L57.1562 19.9375L62.9688 19.9062L68.0625 29.7656V30H62.1875ZM78.5469 30.3125C77.1719 30.3125 75.9427 30.099 74.8594 29.6719C73.776 29.2344 72.8594 28.6354 72.1094 27.875C71.3698 27.1146 70.8021 26.2396 70.4062 25.25C70.0208 24.2604 69.8281 23.2135 69.8281 22.1094V21.5156C69.8281 20.276 70 19.1302 70.3438 18.0781C70.6875 17.0156 71.1979 16.0885 71.875 15.2969C72.5521 14.5052 73.401 13.8906 74.4219 13.4531C75.4427 13.0052 76.6302 12.7812 77.9844 12.7812C79.1823 12.7812 80.2552 12.974 81.2031 13.3594C82.151 13.7448 82.9531 14.2969 83.6094 15.0156C84.276 15.7344 84.7812 16.6042 85.125 17.625C85.4792 18.6458 85.6562 19.7917 85.6562 21.0625V23.2031H71.8438V19.9062H80.5156V19.5C80.526 18.9375 80.4271 18.4583 80.2188 18.0625C80.0208 17.6667 79.7292 17.3646 79.3438 17.1562C78.9583 16.9479 78.4896 16.8438 77.9375 16.8438C77.3646 16.8438 76.8906 16.9688 76.5156 17.2188C76.151 17.4688 75.8646 17.8125 75.6562 18.25C75.4583 18.6771 75.3177 19.1719 75.2344 19.7344C75.151 20.2969 75.1094 20.8906 75.1094 21.5156V22.1094C75.1094 22.7344 75.1927 23.3021 75.3594 23.8125C75.5365 24.3229 75.7865 24.7604 76.1094 25.125C76.4427 25.4792 76.8385 25.7552 77.2969 25.9531C77.7656 26.151 78.2969 26.25 78.8906 26.25C79.6094 26.25 80.3177 26.1146 81.0156 25.8438C81.7135 25.5729 82.3125 25.125 82.8125 24.5L85.2031 27.3438C84.8594 27.8333 84.3698 28.3073 83.7344 28.7656C83.1094 29.224 82.3594 29.599 81.4844 29.8906C80.6094 30.1719 79.6302 30.3125 78.5469 30.3125ZM96.5781 25.75V18.7812C96.5781 18.3021 96.5104 17.8906 96.375 17.5469C96.2396 17.2031 96.026 16.9375 95.7344 16.75C95.4427 16.5521 95.0521 16.4531 94.5625 16.4531C94.1667 16.4531 93.8281 16.5208 93.5469 16.6562C93.2656 16.7917 93.0521 16.9948 92.9062 17.2656C92.7604 17.5365 92.6875 17.8802 92.6875 18.2969H87.4219C87.4219 17.5156 87.5938 16.7917 87.9375 16.125C88.2917 15.4479 88.7917 14.8594 89.4375 14.3594C90.0938 13.8594 90.875 13.474 91.7812 13.2031C92.6979 12.9219 93.7188 12.7812 94.8438 12.7812C96.1875 12.7812 97.3854 13.0052 98.4375 13.4531C99.5 13.901 100.339 14.5729 100.953 15.4688C101.568 16.3542 101.875 17.4688 101.875 18.8125V25.7344C101.875 26.8385 101.938 27.6771 102.062 28.25C102.188 28.8125 102.365 29.3073 102.594 29.7344V30H97.3125C97.0625 29.4792 96.875 28.8438 96.75 28.0938C96.6354 27.3333 96.5781 26.5521 96.5781 25.75ZM97.2188 19.6719L97.25 22.4844H94.9219C94.4323 22.4844 94.0156 22.5521 93.6719 22.6875C93.3385 22.8229 93.0677 23.0104 92.8594 23.25C92.6615 23.4792 92.5156 23.7396 92.4219 24.0312C92.3385 24.3229 92.2969 24.6302 92.2969 24.9531C92.2969 25.2656 92.3698 25.5469 92.5156 25.7969C92.6719 26.0365 92.8802 26.224 93.1406 26.3594C93.401 26.4948 93.6927 26.5625 94.0156 26.5625C94.599 26.5625 95.0938 26.4531 95.5 26.2344C95.9167 26.0052 96.2344 25.7292 96.4531 25.4062C96.6719 25.0833 96.7812 24.7812 96.7812 24.5L97.9375 26.6562C97.7292 27.0729 97.4896 27.4948 97.2188 27.9219C96.9583 28.349 96.6302 28.7448 96.2344 29.1094C95.849 29.4635 95.375 29.7552 94.8125 29.9844C94.25 30.2031 93.5677 30.3125 92.7656 30.3125C91.724 30.3125 90.7656 30.099 89.8906 29.6719C89.026 29.2448 88.3333 28.651 87.8125 27.8906C87.2917 27.1198 87.0312 26.2344 87.0312 25.2344C87.0312 24.3594 87.1875 23.5781 87.5 22.8906C87.8229 22.2031 88.3073 21.6198 88.9531 21.1406C89.599 20.6615 90.4219 20.2969 91.4219 20.0469C92.4219 19.7969 93.599 19.6719 94.9531 19.6719H97.2188ZM111.938 26.25C112.427 26.25 112.844 26.1615 113.188 25.9844C113.542 25.7969 113.807 25.5365 113.984 25.2031C114.172 24.8594 114.26 24.4479 114.25 23.9688H119.203C119.214 25.2396 118.901 26.3542 118.266 27.3125C117.641 28.2604 116.786 29 115.703 29.5312C114.63 30.0521 113.417 30.3125 112.062 30.3125C110.74 30.3125 109.583 30.099 108.594 29.6719C107.604 29.2344 106.776 28.6302 106.109 27.8594C105.453 27.0781 104.958 26.1667 104.625 25.125C104.302 24.0833 104.141 22.9531 104.141 21.7344V21.375C104.141 20.1562 104.302 19.026 104.625 17.9844C104.958 16.9323 105.453 16.0208 106.109 15.25C106.776 14.4688 107.599 13.8646 108.578 13.4375C109.568 13 110.719 12.7812 112.031 12.7812C113.438 12.7812 114.677 13.0469 115.75 13.5781C116.833 14.1094 117.682 14.8802 118.297 15.8906C118.911 16.901 119.214 18.125 119.203 19.5625H114.25C114.26 19.0521 114.182 18.5938 114.016 18.1875C113.849 17.7812 113.589 17.4583 113.234 17.2188C112.891 16.9688 112.448 16.8438 111.906 16.8438C111.365 16.8438 110.927 16.9635 110.594 17.2031C110.26 17.4427 110.005 17.776 109.828 18.2031C109.661 18.6198 109.547 19.099 109.484 19.6406C109.432 20.1823 109.406 20.7604 109.406 21.375V21.7344C109.406 22.3594 109.432 22.9479 109.484 23.5C109.547 24.0417 109.667 24.5208 109.844 24.9375C110.021 25.3438 110.276 25.6667 110.609 25.9062C110.943 26.1354 111.385 26.25 111.938 26.25ZM130.359 13.0938V16.75H120.172V13.0938H130.359ZM122.312 8.89062H127.578V24.4844C127.578 24.9323 127.63 25.2812 127.734 25.5312C127.839 25.7708 128.016 25.9427 128.266 26.0469C128.526 26.1406 128.87 26.1875 129.297 26.1875C129.599 26.1875 129.849 26.1823 130.047 26.1719C130.245 26.151 130.432 26.125 130.609 26.0938V29.8594C130.161 30.0052 129.693 30.1146 129.203 30.1875C128.714 30.2708 128.193 30.3125 127.641 30.3125C126.516 30.3125 125.552 30.1354 124.75 29.7812C123.958 29.4271 123.354 28.8698 122.938 28.1094C122.521 27.349 122.312 26.3594 122.312 25.1406V8.89062ZM141.75 22.8594V7.25H147.219V22.8594C147.219 24.3802 146.87 25.6979 146.172 26.8125C145.484 27.9271 144.547 28.7917 143.359 29.4062C142.182 30.0104 140.859 30.3125 139.391 30.3125C137.87 30.3125 136.516 30.0573 135.328 29.5469C134.151 29.0365 133.224 28.25 132.547 27.1875C131.88 26.125 131.547 24.7708 131.547 23.125H137.047C137.047 23.8958 137.135 24.5 137.312 24.9375C137.49 25.3646 137.75 25.6667 138.094 25.8438C138.448 26.0104 138.88 26.0938 139.391 26.0938C139.891 26.0938 140.312 25.9688 140.656 25.7188C141.01 25.4583 141.281 25.0885 141.469 24.6094C141.656 24.1198 141.75 23.5365 141.75 22.8594ZM159.312 25.25C159.312 24.9583 159.214 24.7083 159.016 24.5C158.828 24.2812 158.495 24.0833 158.016 23.9062C157.536 23.7188 156.865 23.5312 156 23.3438C155.177 23.1667 154.401 22.9323 153.672 22.6406C152.953 22.349 152.323 21.9948 151.781 21.5781C151.24 21.1615 150.812 20.6667 150.5 20.0938C150.198 19.5208 150.047 18.8646 150.047 18.125C150.047 17.4062 150.198 16.7292 150.5 16.0938C150.812 15.4479 151.266 14.8802 151.859 14.3906C152.464 13.8906 153.198 13.5 154.062 13.2188C154.927 12.9271 155.911 12.7812 157.016 12.7812C158.536 12.7812 159.849 13.0156 160.953 13.4844C162.057 13.9427 162.906 14.5885 163.5 15.4219C164.104 16.2448 164.406 17.1979 164.406 18.2812H159.141C159.141 17.8542 159.068 17.4896 158.922 17.1875C158.786 16.8854 158.562 16.6562 158.25 16.5C157.938 16.3333 157.521 16.25 157 16.25C156.635 16.25 156.302 16.3177 156 16.4531C155.708 16.5885 155.474 16.776 155.297 17.0156C155.12 17.2552 155.031 17.5365 155.031 17.8594C155.031 18.0885 155.083 18.2969 155.188 18.4844C155.302 18.6615 155.474 18.8281 155.703 18.9844C155.932 19.1302 156.224 19.2656 156.578 19.3906C156.932 19.5052 157.359 19.6094 157.859 19.7031C158.995 19.9115 160.057 20.2083 161.047 20.5938C162.036 20.9792 162.839 21.526 163.453 22.2344C164.078 22.9427 164.391 23.8958 164.391 25.0938C164.391 25.8438 164.219 26.5365 163.875 27.1719C163.531 27.7969 163.036 28.349 162.391 28.8281C161.745 29.2969 160.969 29.6615 160.062 29.9219C159.156 30.1823 158.135 30.3125 157 30.3125C155.385 30.3125 154.021 30.026 152.906 29.4531C151.792 28.8698 150.948 28.1406 150.375 27.2656C149.812 26.3802 149.531 25.4844 149.531 24.5781H154.438C154.458 25.099 154.583 25.526 154.812 25.8594C155.052 26.1927 155.37 26.4375 155.766 26.5938C156.161 26.75 156.62 26.8281 157.141 26.8281C157.62 26.8281 158.016 26.7604 158.328 26.625C158.651 26.4896 158.896 26.3073 159.062 26.0781C159.229 25.8385 159.312 25.5625 159.312 25.25Z" fill="#D4D4D4"/>
</svg>
