<svg width="211" height="255" viewBox="0 0 211 255" fill="none" xmlns="http://www.w3.org/2000/svg">
<g clip-path="url(#clip0_35_102)">
<path d="M146.17 189.257C153.97 188.45 159.859 181.745 159.571 173.718C159.283 165.687 152.582 159.217 144.551 159.217H144.032C135.713 159.505 129.3 166.437 129.531 174.756C129.819 178.8 131.438 182.268 133.806 184.694C124.68 202.658 110.755 215.833 89.7838 226.809C75.571 234.321 60.7816 237.035 46.0498 235.128C33.9745 233.51 24.5597 228.139 18.6662 219.301C10.0586 206.13 9.25135 191.917 16.5287 177.705C21.6109 167.479 29.6995 159.971 34.7858 156.215C33.6862 152.747 32.1294 146.8 31.3181 142.525C-7.56023 170.716 -3.57355 208.787 8.26703 226.813C17.1053 240.215 35.0741 248.534 54.9457 248.534C60.3203 248.534 65.6908 248.015 71.0654 246.627C105.385 239.98 131.438 219.585 146.17 189.257ZM193.425 155.98C173.03 132.122 142.99 118.947 108.618 118.947H104.343C101.917 114.095 96.8305 110.916 91.1717 110.916H90.6528C82.3335 111.204 75.9211 118.135 76.1517 126.454C76.44 134.485 83.1407 140.956 91.1717 140.956H91.6907C97.5842 140.667 102.666 136.911 104.862 131.829H109.713C130.108 131.829 149.403 137.723 166.848 149.275C180.25 158.113 189.9 169.67 195.27 183.648C199.833 194.912 199.545 205.949 194.751 215.306C187.239 229.519 174.645 237.315 158.01 237.315C147.265 237.315 137.097 234.078 131.726 231.652C128.782 234.309 123.407 238.641 119.651 241.302C131.203 246.677 142.99 249.621 154.254 249.621C180.019 249.621 199.084 235.408 206.308 221.2C214.05 205.665 213.531 178.8 193.425 155.98ZM57.0873 193.82C57.3756 201.851 64.0763 208.321 72.1074 208.321H72.6263C80.9456 208.033 87.358 201.102 87.1274 192.782C86.8391 184.751 80.1384 178.281 72.1074 178.281H71.5884C71.0695 178.281 70.2582 178.281 69.6816 178.57C58.7059 160.312 54.1426 140.441 55.6994 119.008C56.799 102.889 62.1118 88.9682 71.5266 77.4118C79.327 67.474 94.3471 62.6801 104.516 62.3918C132.937 61.8728 145.012 97.2834 145.824 111.496C149.291 112.303 155.239 114.153 159.225 115.541C155.992 72.0949 129.185 49.5092 103.42 49.5092C79.2735 49.5092 56.972 66.955 48.1338 92.7201C35.7701 127.093 43.8588 160.082 58.8788 186.077C57.6062 187.927 56.799 190.876 57.0873 193.82Z" fill="#D4D4D4"/>
</g>
<path d="M38.7344 7.25H47.6875C49.4375 7.25 50.9583 7.51042 52.25 8.03125C53.5417 8.55208 54.5365 9.32292 55.2344 10.3438C55.9427 11.3646 56.2969 12.625 56.2969 14.125C56.2969 15.4271 56.0938 16.5156 55.6875 17.3906C55.2812 18.2656 54.7135 18.9896 53.9844 19.5625C53.2656 20.125 52.4271 20.5885 51.4688 20.9531L49.6719 21.9688H42.1562L42.125 17.7344H47.6875C48.3854 17.7344 48.9635 17.6094 49.4219 17.3594C49.8802 17.1094 50.224 16.7552 50.4531 16.2969C50.6927 15.8281 50.8125 15.2708 50.8125 14.625C50.8125 13.9688 50.6927 13.4062 50.4531 12.9375C50.2135 12.4688 49.8594 12.1094 49.3906 11.8594C48.9323 11.6094 48.3646 11.4844 47.6875 11.4844H44.2188V30H38.7344V7.25ZM51.1875 30L46.1562 19.9375L51.9688 19.9062L57.0625 29.7656V30H51.1875ZM67.5469 30.3125C66.1719 30.3125 64.9427 30.099 63.8594 29.6719C62.776 29.2344 61.8594 28.6354 61.1094 27.875C60.3698 27.1146 59.8021 26.2396 59.4062 25.25C59.0208 24.2604 58.8281 23.2135 58.8281 22.1094V21.5156C58.8281 20.276 59 19.1302 59.3438 18.0781C59.6875 17.0156 60.1979 16.0885 60.875 15.2969C61.5521 14.5052 62.401 13.8906 63.4219 13.4531C64.4427 13.0052 65.6302 12.7812 66.9844 12.7812C68.1823 12.7812 69.2552 12.974 70.2031 13.3594C71.151 13.7448 71.9531 14.2969 72.6094 15.0156C73.276 15.7344 73.7812 16.6042 74.125 17.625C74.4792 18.6458 74.6562 19.7917 74.6562 21.0625V23.2031H60.8438V19.9062H69.5156V19.5C69.526 18.9375 69.4271 18.4583 69.2188 18.0625C69.0208 17.6667 68.7292 17.3646 68.3438 17.1562C67.9583 16.9479 67.4896 16.8438 66.9375 16.8438C66.3646 16.8438 65.8906 16.9688 65.5156 17.2188C65.151 17.4688 64.8646 17.8125 64.6562 18.25C64.4583 18.6771 64.3177 19.1719 64.2344 19.7344C64.151 20.2969 64.1094 20.8906 64.1094 21.5156V22.1094C64.1094 22.7344 64.1927 23.3021 64.3594 23.8125C64.5365 24.3229 64.7865 24.7604 65.1094 25.125C65.4427 25.4792 65.8385 25.7552 66.2969 25.9531C66.7656 26.151 67.2969 26.25 67.8906 26.25C68.6094 26.25 69.3177 26.1146 70.0156 25.8438C70.7135 25.5729 71.3125 25.125 71.8125 24.5L74.2031 27.3438C73.8594 27.8333 73.3698 28.3073 72.7344 28.7656C72.1094 29.224 71.3594 29.599 70.4844 29.8906C69.6094 30.1719 68.6302 30.3125 67.5469 30.3125ZM86.5156 26.125V6H91.8125V30H87.0625L86.5156 26.125ZM76.1406 21.75V21.4219C76.1406 20.1406 76.2812 18.974 76.5625 17.9219C76.8438 16.8594 77.2604 15.9479 77.8125 15.1875C78.3646 14.4167 79.0521 13.8229 79.875 13.4062C80.6979 12.9896 81.6458 12.7812 82.7188 12.7812C83.6771 12.7812 84.5156 13.0052 85.2344 13.4531C85.9531 13.8906 86.5677 14.5052 87.0781 15.2969C87.5885 16.0885 88.0052 17.0156 88.3281 18.0781C88.651 19.1302 88.8958 20.2656 89.0625 21.4844V21.875C88.8958 23.0208 88.651 24.1042 88.3281 25.125C88.0052 26.1354 87.5885 27.0312 87.0781 27.8125C86.5677 28.5938 85.9479 29.2083 85.2188 29.6562C84.5 30.0938 83.6562 30.3125 82.6875 30.3125C81.6146 30.3125 80.6667 30.099 79.8438 29.6719C79.0312 29.2448 78.349 28.6458 77.7969 27.875C77.2552 27.1042 76.8438 26.1979 76.5625 25.1562C76.2812 24.1146 76.1406 22.9792 76.1406 21.75ZM81.4062 21.4219V21.75C81.4062 22.3854 81.4479 22.974 81.5312 23.5156C81.6146 24.0573 81.7552 24.5365 81.9531 24.9531C82.1615 25.3594 82.4323 25.6771 82.7656 25.9062C83.1094 26.1354 83.5312 26.25 84.0312 26.25C84.7083 26.25 85.2656 26.0885 85.7031 25.7656C86.151 25.4427 86.4792 24.9844 86.6875 24.3906C86.9062 23.7969 87 23.099 86.9688 22.2969V21.0625C86.9896 20.375 86.9427 19.7708 86.8281 19.25C86.7135 18.7188 86.5312 18.276 86.2812 17.9219C86.0417 17.5677 85.7344 17.3021 85.3594 17.125C84.9948 16.9375 84.5625 16.8438 84.0625 16.8438C83.5729 16.8438 83.1562 16.9583 82.8125 17.1875C82.4792 17.4167 82.2083 17.7396 82 18.1562C81.7917 18.5625 81.6406 19.0469 81.5469 19.6094C81.4531 20.1615 81.4062 20.7656 81.4062 21.4219ZM104.672 25.8906V13.0938H109.953V30H105.016L104.672 25.8906ZM105.172 22.4531L106.547 22.4219C106.547 23.5573 106.411 24.6094 106.141 25.5781C105.87 26.5365 105.469 27.3698 104.938 28.0781C104.417 28.7865 103.771 29.3385 103 29.7344C102.24 30.1198 101.359 30.3125 100.359 30.3125C99.526 30.3125 98.7604 30.1979 98.0625 29.9688C97.375 29.7292 96.7812 29.3594 96.2812 28.8594C95.7812 28.349 95.3906 27.6979 95.1094 26.9062C94.8385 26.1042 94.7031 25.1458 94.7031 24.0312V13.0938H99.9688V24.0625C99.9688 24.4375 100.016 24.7604 100.109 25.0312C100.203 25.3021 100.339 25.5312 100.516 25.7188C100.693 25.8958 100.911 26.0312 101.172 26.125C101.443 26.2083 101.75 26.25 102.094 26.25C102.885 26.25 103.505 26.0833 103.953 25.75C104.401 25.4167 104.714 24.9635 104.891 24.3906C105.078 23.8177 105.172 23.1719 105.172 22.4531ZM117.328 13.0938L119.703 17.75L122.156 13.0938H127.625L123.188 21.3281L127.859 30H122.344L119.703 25L117.078 30H111.562L116.234 21.3281L111.812 13.0938H117.328ZM138.656 22.8594V7.25H144.125V22.8594C144.125 24.3802 143.776 25.6979 143.078 26.8125C142.391 27.9271 141.453 28.7917 140.266 29.4062C139.089 30.0104 137.766 30.3125 136.297 30.3125C134.776 30.3125 133.422 30.0573 132.234 29.5469C131.057 29.0365 130.13 28.25 129.453 27.1875C128.786 26.125 128.453 24.7708 128.453 23.125H133.953C133.953 23.8958 134.042 24.5 134.219 24.9375C134.396 25.3646 134.656 25.6667 135 25.8438C135.354 26.0104 135.786 26.0938 136.297 26.0938C136.797 26.0938 137.219 25.9688 137.562 25.7188C137.917 25.4583 138.188 25.0885 138.375 24.6094C138.562 24.1198 138.656 23.5365 138.656 22.8594ZM156.219 25.25C156.219 24.9583 156.12 24.7083 155.922 24.5C155.734 24.2812 155.401 24.0833 154.922 23.9062C154.443 23.7188 153.771 23.5312 152.906 23.3438C152.083 23.1667 151.307 22.9323 150.578 22.6406C149.859 22.349 149.229 21.9948 148.688 21.5781C148.146 21.1615 147.719 20.6667 147.406 20.0938C147.104 19.5208 146.953 18.8646 146.953 18.125C146.953 17.4062 147.104 16.7292 147.406 16.0938C147.719 15.4479 148.172 14.8802 148.766 14.3906C149.37 13.8906 150.104 13.5 150.969 13.2188C151.833 12.9271 152.818 12.7812 153.922 12.7812C155.443 12.7812 156.755 13.0156 157.859 13.4844C158.964 13.9427 159.812 14.5885 160.406 15.4219C161.01 16.2448 161.312 17.1979 161.312 18.2812H156.047C156.047 17.8542 155.974 17.4896 155.828 17.1875C155.693 16.8854 155.469 16.6562 155.156 16.5C154.844 16.3333 154.427 16.25 153.906 16.25C153.542 16.25 153.208 16.3177 152.906 16.4531C152.615 16.5885 152.38 16.776 152.203 17.0156C152.026 17.2552 151.938 17.5365 151.938 17.8594C151.938 18.0885 151.99 18.2969 152.094 18.4844C152.208 18.6615 152.38 18.8281 152.609 18.9844C152.839 19.1302 153.13 19.2656 153.484 19.3906C153.839 19.5052 154.266 19.6094 154.766 19.7031C155.901 19.9115 156.964 20.2083 157.953 20.5938C158.943 20.9792 159.745 21.526 160.359 22.2344C160.984 22.9427 161.297 23.8958 161.297 25.0938C161.297 25.8438 161.125 26.5365 160.781 27.1719C160.438 27.7969 159.943 28.349 159.297 28.8281C158.651 29.2969 157.875 29.6615 156.969 29.9219C156.062 30.1823 155.042 30.3125 153.906 30.3125C152.292 30.3125 150.927 30.026 149.812 29.4531C148.698 28.8698 147.854 28.1406 147.281 27.2656C146.719 26.3802 146.438 25.4844 146.438 24.5781H151.344C151.365 25.099 151.49 25.526 151.719 25.8594C151.958 26.1927 152.276 26.4375 152.672 26.5938C153.068 26.75 153.526 26.8281 154.047 26.8281C154.526 26.8281 154.922 26.7604 155.234 26.625C155.557 26.4896 155.802 26.3073 155.969 26.0781C156.135 25.8385 156.219 25.5625 156.219 25.25Z" fill="#D4D4D4"/>
<defs>
<clipPath id="clip0_35_102">
<rect width="210.865" height="210.865" fill="white" transform="translate(0.0673828 44.1346)"/>
</clipPath>
</defs>
</svg>
