<svg width="318" height="318" viewBox="0 0 318 318" fill="none" xmlns="http://www.w3.org/2000/svg">
<g clip-path="url(#clip0_95_19)">
<path d="M220.333 218.855C232.097 217.637 240.979 207.526 240.544 195.421C240.109 183.31 230.004 173.552 217.893 173.552H217.11C204.564 173.987 194.893 184.44 195.241 196.986C195.676 203.085 198.117 208.315 201.688 211.973C187.925 239.065 166.926 258.934 135.299 275.486C113.866 286.815 91.562 290.908 69.3455 288.032C51.135 285.591 36.9368 277.492 28.049 264.164C15.0681 244.301 13.8508 222.867 24.8255 201.433C32.4898 186.011 44.6881 174.689 52.3586 169.024C50.7003 163.795 48.3525 154.826 47.129 148.379C-11.5023 190.893 -5.49007 248.307 12.3664 275.492C25.695 295.703 52.7934 308.249 82.7611 308.249C90.8664 308.249 98.9655 307.466 107.071 305.373C158.826 295.349 198.117 264.592 220.333 218.855ZM291.598 168.67C260.841 132.69 215.539 112.822 163.702 112.822H157.255C153.597 105.505 145.926 100.71 137.393 100.71H136.61C124.064 101.145 114.393 111.598 114.741 124.144C115.176 136.256 125.281 146.013 137.393 146.013H138.175C147.063 145.578 154.727 139.914 158.038 132.249H165.354C196.111 132.249 225.209 141.137 251.519 158.559C271.729 171.888 286.281 189.316 294.38 210.396C301.262 227.382 300.827 244.028 293.598 258.139C282.269 279.573 263.276 291.33 238.19 291.33C221.986 291.33 206.651 286.448 198.552 282.79C194.111 286.796 186.006 293.33 180.341 297.342C197.763 305.448 215.539 309.889 232.525 309.889C271.381 309.889 300.132 288.455 311.026 267.027C322.702 243.599 321.919 203.085 291.598 168.67ZM85.9908 225.737C86.4256 237.848 96.5308 247.605 108.642 247.605H109.425C121.971 247.17 131.641 236.717 131.293 224.171C130.859 212.06 120.753 202.303 108.642 202.303H107.86C107.077 202.303 105.853 202.303 104.984 202.737C88.4317 175.204 81.55 145.237 83.8977 112.915C85.5561 88.6052 93.5682 67.6123 107.766 50.1844C119.53 35.1974 142.181 27.9679 157.516 27.5331C200.378 26.7505 218.588 80.1522 219.812 101.586C225.041 102.803 234.01 105.592 240.022 107.685C235.146 42.1661 194.719 8.10529 155.864 8.10529C119.449 8.10529 85.8169 34.4148 72.4883 73.2704C53.843 125.107 66.0413 174.857 88.6926 214.06C86.7734 216.849 85.5561 221.296 85.9908 225.737Z" fill="#764ABC"/>
</g>
<defs>
<clipPath id="clip0_95_19">
<rect width="318" height="318" fill="white"/>
</clipPath>
</defs>
</svg>
