<svg width="469" height="469" viewBox="0 0 469 469" fill="none" xmlns="http://www.w3.org/2000/svg">
<g clip-path="url(#clip0_95_64)">
<path d="M403.736 260.588C387.335 260.683 373.141 264.619 361.232 270.481C356.836 261.775 352.439 254.176 351.706 248.497C350.878 241.901 349.874 237.871 350.878 229.993C351.882 222.115 356.469 210.94 356.469 210.024C356.381 209.196 355.458 205.165 346.027 205.078C336.595 204.99 328.439 206.91 327.523 209.386C325.887 213.963 324.569 218.647 323.58 223.405C321.932 232.016 304.711 262.523 294.906 278.557C291.696 272.328 288.948 266.832 288.398 262.435C287.57 255.839 286.566 251.809 287.57 243.931C288.574 236.054 293.161 224.878 293.161 223.962C293.074 223.134 292.15 219.104 282.719 219.016C273.288 218.928 265.131 220.848 264.215 223.325C263.299 225.801 262.288 231.664 260.273 237.343C258.346 243.023 235.445 293.96 229.495 307.239C226.468 314.017 223.815 319.426 221.888 323.09C219.961 326.754 221.8 323.368 221.617 323.735L219.052 328.593V328.681C217.77 330.975 216.392 333.173 215.754 333.173C215.3 333.173 214.377 327.032 215.938 318.605C219.331 300.922 227.575 273.346 227.479 272.342C227.479 271.888 229.04 267.03 222.167 264.553C215.476 262.076 213.094 266.201 212.545 266.201C211.995 266.201 211.533 267.667 211.533 267.667C211.533 267.667 218.957 236.61 197.332 236.61C183.775 236.61 165.088 251.362 155.832 264.824L109.108 290.384L108.097 289.285C81.9136 261.321 33.4527 241.535 35.4679 203.978C36.2007 190.326 40.964 154.323 128.535 110.721C200.263 74.996 257.708 84.7937 267.696 106.595C281.898 137.739 237.006 195.632 162.435 203.986C134.039 207.195 119.104 196.196 115.344 192.077C111.402 187.769 110.852 187.585 109.387 188.413C107.005 189.696 108.471 193.543 109.387 195.837C111.585 201.611 120.745 211.871 136.318 217C149.97 221.493 183.313 223.962 223.625 208.39C268.788 190.89 304.058 142.341 293.704 101.766C283.166 60.4497 214.648 46.8926 149.875 69.8883C111.314 83.6139 69.617 105.041 39.5717 133.167C3.77378 166.51 -1.90551 195.646 0.4688 207.738C8.80821 250.886 68.254 279.011 92.0704 299.808L88.7727 301.64C76.8645 307.503 31.5181 331.231 20.1595 356.33C7.33525 384.727 22.1747 405.157 32.0677 407.905C62.6626 416.428 93.9903 401.127 110.94 375.933C127.795 350.739 125.78 318.041 117.997 303.106L117.719 302.556L127.062 297.06C133.108 293.484 139.066 290.186 144.283 287.35C141.352 295.323 139.242 304.755 138.142 318.495C136.86 334.617 143.455 355.502 152.161 363.753C156.008 367.33 160.588 367.417 163.432 367.417C173.508 367.417 178.088 359.078 183.13 349.097C189.359 336.911 194.855 322.804 194.855 322.804C194.855 322.804 187.981 361.005 206.763 361.005C213.637 361.005 220.503 352.116 223.618 347.536V347.624C223.618 347.624 223.801 347.346 224.167 346.708C224.9 345.609 225.266 344.964 225.266 344.964V344.781C228.014 340.018 234.155 329.113 243.316 311.072C255.136 287.805 266.494 258.675 266.494 258.675C266.494 258.675 267.594 265.82 270.987 277.545C273.002 284.507 277.399 292.114 280.792 299.53L276.395 305.575L276.483 305.671C274.138 308.778 271.724 311.832 269.242 314.831C259.899 326.006 248.724 338.743 247.258 342.407C245.514 346.716 245.88 349.918 249.273 352.483C251.75 354.315 256.147 354.681 260.815 354.315C269.242 353.765 275.105 351.655 278.036 350.372C283.325 348.487 288.32 345.864 292.876 342.582C302.036 335.804 307.627 326.182 307.078 313.358C306.799 306.301 304.513 299.339 301.669 292.744L304.146 289.08C318.619 267.916 329.795 244.649 329.795 244.649C329.795 244.649 330.894 251.794 334.287 263.519C336.031 269.477 339.512 275.977 342.626 282.389C329.069 293.477 320.547 306.301 317.615 314.728C312.207 330.301 316.421 337.358 324.394 339.006C327.97 339.739 333.1 338.09 336.947 336.442C341.71 334.881 347.485 332.228 352.798 328.285C361.958 321.507 370.752 312.068 370.297 299.339C370.019 293.477 368.465 287.702 366.355 282.206C377.897 277.443 392.831 274.695 411.789 276.981C452.556 281.744 460.616 307.21 459.056 317.835C457.495 328.461 448.979 334.324 446.136 336.156C443.293 337.9 442.377 338.537 442.655 339.82C443.022 341.747 444.304 341.652 446.781 341.285C450.174 340.736 468.216 332.58 468.949 312.977C470.048 287.783 446.136 260.302 403.728 260.581L403.736 260.588ZM89.3296 366.589C75.8605 381.341 56.9027 386.925 48.8418 382.162C40.1359 377.12 43.5289 355.414 60.1124 339.746C70.1886 330.22 83.2913 321.426 91.9018 316.018L100.241 310.976C100.791 310.61 101.157 310.427 101.157 310.427C101.802 310.06 102.535 309.599 103.268 309.144C109.409 331.495 103.546 351.098 89.3443 366.582L89.3296 366.589ZM187.82 299.625C183.144 311.079 173.251 340.479 167.301 338.83C162.171 337.453 159.057 315.197 166.29 293.206C169.954 282.118 177.743 268.927 182.324 263.798C189.747 255.554 197.808 252.806 199.823 256.191C202.205 260.588 190.751 292.473 187.82 299.625ZM269.074 338.464C267.059 339.475 265.227 340.208 264.399 339.659C263.754 339.292 265.227 337.914 265.227 337.914C265.227 337.914 275.398 327.01 279.429 321.976L287.402 311.804V312.904C287.402 326.094 274.761 334.888 269.081 338.464H269.074ZM331.729 324.174C330.264 323.075 330.447 319.682 335.393 309.056C337.321 304.843 341.718 297.786 349.317 291.102C350.233 293.85 350.782 296.511 350.695 298.98C350.599 315.468 338.874 321.609 331.729 324.174Z" fill="#CF649A"/>
</g>
<defs>
<clipPath id="clip0_95_64">
<rect width="469" height="469" fill="white"/>
</clipPath>
</defs>
</svg>
