<svg width="581" height="581" viewBox="0 0 581 581" fill="none" xmlns="http://www.w3.org/2000/svg">
<path fill-rule="evenodd" clip-rule="evenodd" d="M543.285 505.896C539.297 510.399 535.051 514.645 530.548 518.633C526.045 522.621 521.22 526.352 516.074 529.826C511.056 533.299 505.782 536.516 500.249 539.474C494.717 542.562 488.992 545.393 483.074 547.966C477.156 550.667 471.109 553.112 464.933 555.299C458.758 557.486 452.454 559.544 446.021 561.474C439.588 563.275 433.091 564.948 426.53 566.492C419.968 568.035 413.407 569.451 406.845 570.737C400.284 571.895 393.722 572.988 387.161 574.018C380.599 574.918 374.102 575.755 367.669 576.526C361.108 577.298 354.675 577.942 348.371 578.456C341.938 578.842 335.634 579.228 329.459 579.614C323.154 579.871 316.915 580 310.739 580C304.435 580 298.26 579.936 292.213 579.807C286.037 579.55 279.926 579.228 273.879 578.842C267.704 578.456 261.593 577.942 255.546 577.298C249.499 576.655 243.452 575.883 237.405 574.983C231.487 574.211 225.505 573.246 219.458 572.088C213.411 571.059 207.364 569.901 201.317 568.614C195.399 567.199 189.417 565.72 183.37 564.176C177.323 562.761 171.34 561.152 165.422 559.351C159.504 557.55 153.586 555.62 147.668 553.562C141.878 551.504 136.153 549.316 130.492 547.001C124.831 544.685 119.299 542.241 113.896 539.667C108.492 537.094 103.217 534.328 98.0709 531.369C92.9247 528.41 87.9714 525.323 83.2112 522.106C78.5795 518.89 74.0766 515.417 69.7023 511.686C65.4566 508.083 61.4683 504.288 57.7373 500.3C53.8776 496.312 50.3396 492.13 47.1232 487.756C43.9068 483.253 41.012 478.622 38.4389 473.862C35.8658 469.102 33.55 464.084 31.4915 458.809C29.433 453.663 27.6318 448.324 26.0879 442.792C24.544 437.26 23.1288 431.535 21.8423 425.617C20.6844 419.699 19.6551 413.717 18.7545 407.67C17.9826 401.495 17.275 395.191 16.6317 388.758C15.9884 382.326 15.4095 375.829 14.8948 369.267C14.3802 362.577 13.9299 355.823 13.544 349.005C13.158 342.186 12.7077 335.303 12.1931 328.356C11.8071 321.409 11.3568 314.397 10.8422 307.321C10.3276 300.245 9.7486 293.105 9.10532 285.901C8.46204 278.696 7.75444 271.492 6.9825 264.287C6.21057 257.083 5.50296 249.942 4.85968 242.866C4.08774 235.662 3.44446 228.522 2.92984 221.446C2.28656 214.37 1.83626 207.358 1.57895 200.411C1.19298 193.464 1 186.581 1 179.762C1 173.073 1.19298 166.447 1.57895 159.886C2.09358 153.453 2.80118 147.149 3.70177 140.974C4.60237 134.798 5.88893 128.816 7.56145 123.027C9.10532 117.237 11.0352 111.641 13.351 106.238C15.7954 100.834 18.5615 95.6881 21.6493 90.7994C24.8657 85.9106 28.4037 81.2791 32.2634 76.9049C36.1231 72.5307 40.3044 68.3495 44.8074 64.3613C49.439 60.3731 54.3279 56.5778 59.4741 52.9756C64.6204 49.5019 69.9596 46.2213 75.4918 43.1337C81.1527 39.9173 86.9422 36.9583 92.8603 34.2566C98.9072 31.5549 105.083 28.9819 111.387 26.5375C117.691 24.2218 124.124 22.099 130.685 20.1692C137.247 18.1108 143.872 16.2453 150.563 14.5728C157.124 12.9003 163.75 11.3565 170.44 9.94134C177.13 8.65482 183.82 7.49694 190.51 6.46773C197.2 5.30985 203.826 4.34496 210.388 3.57305C216.949 2.92979 223.51 2.35085 230.072 1.83624C236.505 1.45028 242.938 1.19298 249.37 1.06433C255.803 0.935674 262.172 1 268.476 1.2573C274.78 1.51461 280.955 1.96489 287.002 2.60815C293.178 3.25142 299.289 4.02333 305.336 4.9239C311.254 5.95312 317.172 7.17531 323.09 8.59049C328.88 9.87701 334.605 11.4208 340.266 13.222C345.927 15.0231 351.459 17.0172 356.862 19.2043C362.266 21.3914 367.605 23.7715 372.88 26.3445C378.026 28.9176 383.108 31.6836 388.126 34.6426C393.143 37.6016 398.032 40.7536 402.793 44.0985C407.553 47.4435 412.249 50.9814 416.88 54.7124C421.512 58.3146 426.015 62.1099 430.389 66.0981C434.764 70.0863 439.074 74.1389 443.319 78.2558C447.565 82.5013 451.682 86.8755 455.67 91.3783C459.787 95.7525 463.775 100.32 467.635 105.08C471.495 109.711 475.29 114.407 479.021 119.167C482.752 123.927 486.419 128.816 490.021 133.834C493.624 138.722 497.162 143.74 500.635 148.886C503.98 153.903 507.326 158.985 510.671 164.131C513.887 169.277 517.039 174.488 520.127 179.762C523.214 185.037 526.238 190.376 529.197 195.78C532.156 201.183 534.987 206.651 537.688 212.183C540.39 217.715 542.963 223.376 545.408 229.165C547.981 234.826 550.361 240.615 552.548 246.533C554.864 252.322 557.051 258.24 559.11 264.287C561.039 270.334 562.905 276.445 564.706 282.62C566.507 288.924 568.18 295.228 569.724 301.532C571.139 307.965 572.49 314.461 573.776 321.023C574.934 327.713 575.963 334.403 576.864 341.093C577.765 347.782 578.472 354.537 578.987 361.355C579.501 368.045 579.823 374.799 579.952 381.618C580.08 388.308 579.952 394.998 579.566 401.688C579.18 408.378 578.601 414.939 577.829 421.372C576.928 427.804 575.77 434.173 574.355 440.477C573.069 446.652 571.461 452.698 569.531 458.616C567.472 464.534 565.156 470.26 562.583 475.792C560.01 481.324 557.115 486.598 553.899 491.616C550.683 496.633 547.145 501.393 543.285 505.896Z" fill="#1C1C1C" stroke="#2A2A2A"/>
</svg>
