<svg width="288" height="235" viewBox="0 0 288 235" fill="none" xmlns="http://www.w3.org/2000/svg">
<path d="M144 50.4769C105.6 50.4769 81.6 70.9337 72 111.847C86.4 91.3905 103.2 83.7192 122.4 88.8334C133.355 91.7514 141.185 100.219 149.851 109.592C163.97 124.861 180.31 142.533 216 142.533C254.4 142.533 278.4 122.076 288 81.1621C273.6 101.619 256.8 109.29 237.6 104.176C226.645 101.258 218.815 92.7907 210.149 83.4175C196.03 68.1487 179.69 50.4769 144 50.4769ZM72 142.533C33.6 142.533 9.6 162.989 0 203.903C14.4 183.446 31.2 175.775 50.4 180.889C61.3547 183.807 69.1845 192.274 77.8512 201.648C91.9696 216.916 108.31 234.588 144 234.588C182.4 234.588 206.4 214.131 216 173.218C201.6 193.675 184.8 201.346 165.6 196.232C154.645 193.314 146.815 184.846 138.149 175.473C124.03 160.204 107.69 142.533 72 142.533Z" fill="url(#paint0_linear_38_128)"/>
<path d="M51.4849 15.2886H46.324V25.9452C46.324 28.7869 48.072 28.7425 51.4849 28.5649V32.872C44.576 33.76 41.829 31.7175 41.829 25.9452V15.2886H38V10.6707H41.829V4.70675L46.324 3.28587V10.6707H51.4849V15.2886ZM71.158 10.6707H75.6529V32.872H71.158V29.675C69.5764 32.0283 67.1208 33.4492 63.8745 33.4492C58.2142 33.4492 53.5111 28.3429 53.5111 21.7713C53.5111 15.1554 58.2142 10.0935 63.8745 10.0935C67.1208 10.0935 69.5764 11.5144 71.158 13.8233V10.6707ZM64.582 28.8757C68.3278 28.8757 71.158 25.9008 71.158 21.7713C71.158 17.6419 68.3278 14.6669 64.582 14.6669C60.8362 14.6669 58.0061 17.6419 58.0061 21.7713C58.0061 25.9008 60.8362 28.8757 64.582 28.8757ZM83.1445 7.34052C81.5629 7.34052 80.2727 5.91964 80.2727 4.27675C80.2727 2.58945 81.5629 1.21297 83.1445 1.21297C84.7261 1.21297 86.0163 2.58945 86.0163 4.27675C86.0163 5.91964 84.7261 7.34052 83.1445 7.34052ZM80.897 32.872V10.6707H85.392V32.872H80.897ZM90.5945 32.872V0.45813H95.0894V32.872H90.5945ZM124.265 10.6707H129.01L122.475 32.872H118.064L113.735 17.9083L109.365 32.872H104.953L98.419 10.6707H103.164L107.201 25.9896L111.571 10.6707H115.858L120.186 25.9896L124.265 10.6707ZM134.587 7.34052C133.005 7.34052 131.715 5.91964 131.715 4.27675C131.715 2.58945 133.005 1.21297 134.587 1.21297C136.168 1.21297 137.459 2.58945 137.459 4.27675C137.459 5.91964 136.168 7.34052 134.587 7.34052ZM132.339 32.872V10.6707H136.834V32.872H132.339ZM152.983 10.0935C157.644 10.0935 160.974 13.4681 160.974 19.2404V32.872H156.479V19.7288C156.479 16.3542 154.648 14.5781 151.817 14.5781C148.862 14.5781 146.532 16.443 146.532 20.9721V32.872H142.037V10.6707H146.532V13.5125C147.905 11.2035 150.153 10.0935 152.983 10.0935ZM182.283 1.79021H186.778V32.872H182.283V29.675C180.702 32.0283 178.246 33.4492 175 33.4492C169.339 33.4492 164.636 28.3429 164.636 21.7713C164.636 15.1554 169.339 10.0935 175 10.0935C178.246 10.0935 180.702 11.5144 182.283 13.8233V1.79021ZM175.707 28.8757C179.453 28.8757 182.283 25.9008 182.283 21.7713C182.283 17.6419 179.453 14.6669 175.707 14.6669C171.961 14.6669 169.131 17.6419 169.131 21.7713C169.131 25.9008 171.961 28.8757 175.707 28.8757ZM201.845 33.4492C195.56 33.4492 190.857 28.3429 190.857 21.7713C190.857 15.1554 195.56 10.0935 201.845 10.0935C205.923 10.0935 209.461 12.358 211.126 15.8214L207.255 18.2191C206.34 16.1322 204.3 14.8001 201.803 14.8001C198.14 14.8001 195.352 17.7751 195.352 21.7713C195.352 25.7676 198.14 28.7425 201.803 28.7425C204.3 28.7425 206.34 27.366 207.338 25.3235L211.209 27.6769C209.461 31.1847 205.923 33.4492 201.845 33.4492ZM218.617 16.7983C218.617 20.8389 229.813 18.3967 229.813 26.6112C229.813 31.0515 226.192 33.4492 221.697 33.4492C217.535 33.4492 214.539 31.4511 213.207 28.2541L217.077 25.8564C217.743 27.8545 219.408 29.0533 221.697 29.0533C223.695 29.0533 225.235 28.3429 225.235 26.5668C225.235 22.615 214.039 24.8351 214.039 16.8871C214.039 12.7132 217.41 10.0935 221.656 10.0935C225.069 10.0935 227.899 11.7808 229.355 14.7113L225.568 16.9759C224.819 15.2442 223.362 14.4449 221.656 14.4449C220.033 14.4449 218.617 15.1998 218.617 16.7983ZM237.804 16.7983C237.804 20.8389 249 18.3967 249 26.6112C249 31.0515 245.379 33.4492 240.884 33.4492C236.722 33.4492 233.725 31.4511 232.394 28.2541L236.264 25.8564C236.93 27.8545 238.595 29.0533 240.884 29.0533C242.882 29.0533 244.422 28.3429 244.422 26.5668C244.422 22.615 233.226 24.8351 233.226 16.8871C233.226 12.7132 236.597 10.0935 240.842 10.0935C244.255 10.0935 247.085 11.7808 248.542 14.7113L244.755 16.9759C244.006 15.2442 242.549 14.4449 240.842 14.4449C239.219 14.4449 237.804 15.1998 237.804 16.7983Z" fill="#D4D4D4"/>
<defs>
<linearGradient id="paint0_linear_38_128" x1="-800" y1="5942.04" x2="24835.3" y2="19814.6" gradientUnits="userSpaceOnUse">
<stop stop-color="#D2D2D2"/>
<stop offset="1" stop-color="#7B7B7B"/>
</linearGradient>
</defs>
</svg>
