<svg width="392" height="235" viewBox="0 0 392 235" fill="none" xmlns="http://www.w3.org/2000/svg">
<g clip-path="url(#clip0_95_25)">
<path d="M196 0.3125C143.734 0.3125 111.066 26.3547 98 78.4375C117.6 52.3953 140.466 42.6297 166.6 49.1406C181.51 52.8546 192.167 63.6349 203.964 75.5658C223.181 95.004 245.421 117.5 294 117.5C346.266 117.5 378.934 91.4578 392 39.375C372.4 65.4172 349.534 75.1828 323.4 68.6719C308.49 64.9579 297.833 54.1775 286.036 42.2467C266.819 22.8085 244.579 0.3125 196 0.3125ZM98 117.5C45.7338 117.5 13.0662 143.542 0 195.625C19.6 169.583 42.4662 159.817 68.6 166.328C83.5098 170.042 94.1673 180.822 105.964 192.753C125.181 212.191 147.421 234.687 196 234.687C248.266 234.687 280.934 208.645 294 156.562C274.4 182.605 251.534 192.37 225.4 185.859C210.49 182.145 199.833 171.365 188.036 159.434C168.819 139.996 146.579 117.5 98 117.5Z" fill="url(#paint0_linear_95_25)"/>
</g>
<defs>
<linearGradient id="paint0_linear_95_25" x1="-2787.78" y1="11520.3" x2="-1635.09" y2="24500.5" gradientUnits="userSpaceOnUse">
<stop stop-color="#2298BD"/>
<stop offset="1" stop-color="#0ED7B5"/>
</linearGradient>
<clipPath id="clip0_95_25">
<rect width="392" height="235" fill="white"/>
</clipPath>
</defs>
</svg>
