<svg width="1420" height="4504" viewBox="0 0 1420 4504" fill="none" xmlns="http://www.w3.org/2000/svg">
<path d="M-1 4480H1067.64C1501.19 4480 1509.69 3901.98 1067.64 3901.98H429.555C-27.5039 3901.98 -10.0016 3283.88 442.057 3283.88H1009.13C1505.19 3283.88 1509.59 2644.01 1009.13 2644.01H442.057C289.537 2644.01 104.513 2603.06 104.513 2349.99L104.513 7.95722e-05" stroke="#D4D4D4" stroke-width="48"/>
<path d="M0 4476H1068.5C1502 4476 1510.5 3898.49 1068.5 3898.49H430.5C-26.5005 3898.49 -9.00049 3280.95 443 3280.95H1010C1506 3280.95 1510.4 2641.65 1010 2641.65H443C290.5 2641.65 105.5 2600.74 105.5 2347.89L105.5 0.000124931" stroke="black" stroke-width="10" stroke-dasharray="96 96"/>
</svg>
